<svg width="26" height="32" viewBox="0 0 26 32" fill="none" xmlns="http://www.w3.org/2000/svg">
<path d="M1.57145 32H24.4286C24.8857 32 25.1905 31.6952 25.1905 31.2381V3.80952C25.1905 3.35237 24.8857 3.04764 24.4286 3.04764H17.5715V0.76188C17.5715 0.304789 17.2668 0 16.8096 0H9.19056C8.7334 0 8.42868 0.304789 8.42868 0.76188V3.04758H1.57145C1.1143 3.04758 0.80957 3.35237 0.80957 3.80946V31.2381C0.80957 31.6953 1.11436 32 1.57145 32ZM9.19056 7.61904H16.8096H20.6191V27.4286H5.38103V7.61904H9.19056ZM9.95244 1.52382H16.0477V6.09522H9.95244V1.52382ZM2.33339 4.5714H8.42861V6.09522H4.61909C4.16194 6.09522 3.85721 6.40001 3.85721 6.8571V28.1905C3.85721 28.6476 4.162 28.9524 4.61909 28.9524H21.381C21.8382 28.9524 22.1429 28.6476 22.1429 28.1905V6.8571C22.1429 6.39995 21.8381 6.09522 21.381 6.09522H17.5715V4.5714H23.6667V30.4762H2.33339V4.5714Z" fill="#A9C530"/>
<path d="M14.5239 3.04773H11.4762C11.0191 3.04773 10.7144 3.35252 10.7144 3.80961C10.7144 4.2667 11.0191 4.57149 11.4762 4.57149H14.5239C14.981 4.57149 15.2857 4.2667 15.2857 3.80961C15.2857 3.35252 14.981 3.04773 14.5239 3.04773Z" fill="#A9C530"/>
<path d="M7.0572 13.4095C7.20957 13.5619 7.36199 13.5619 7.66672 13.5619C7.97151 13.5619 8.12387 13.5619 8.27624 13.4095L9.19054 12.4952L10.1048 13.4095C10.2572 13.5619 10.4096 13.5619 10.7144 13.5619C11.0192 13.5619 11.1715 13.5619 11.3239 13.4095C11.6287 13.1048 11.6287 12.6477 11.3239 12.3429L10.2572 11.2762L11.1715 10.3619C11.4763 10.0571 11.4763 9.60003 11.1715 9.29524C10.8667 8.99045 10.4096 8.99045 10.1048 9.29524L9.19054 10.2095L8.12387 9.29524C7.81908 8.99045 7.36199 8.99045 7.0572 9.29524C6.75242 9.60003 6.75242 10.0571 7.0572 10.3619L7.97151 11.2762L7.0572 12.1905C6.75242 12.6476 6.75242 13.1048 7.0572 13.4095Z" fill="#A9C530"/>
<path d="M18.7906 19.9619C18.4858 19.6571 18.0288 19.6571 17.724 19.9619L16.8097 20.8762L15.8954 19.9619C15.5906 19.6571 15.1335 19.6571 14.8287 19.9619C14.5239 20.2667 14.5239 20.7237 14.8287 21.0285L15.743 21.9428L14.8287 22.8571C14.5239 23.1619 14.5239 23.619 14.8287 23.9238C14.9811 24.0762 15.1335 24.0762 15.4382 24.0762C15.7429 24.0762 15.8954 24.0762 16.0477 23.9238L16.962 23.0095L17.8763 23.9238C18.0287 24.0762 18.1811 24.0762 18.4858 24.0762C18.7906 24.0762 18.943 24.0762 19.0954 23.9238C19.4002 23.619 19.4002 23.1619 19.0954 22.8571L18.1811 21.9428L19.0954 21.0285C19.0954 20.7237 19.0954 20.2667 18.7906 19.9619Z" fill="#A9C530"/>
<path d="M7.05714 24.0763C7.2095 24.2286 7.36193 24.2286 7.66666 24.2286C7.97145 24.2286 8.12381 24.2286 8.27617 24.0763L9.19048 23.162L10.1048 24.0763C10.2572 24.2286 10.4096 24.2286 10.7143 24.2286C11.0191 24.2286 11.1715 24.2286 11.3238 24.0763C11.6286 23.7715 11.6286 23.3144 11.3238 23.0096L10.4095 22.0953L11.3238 21.181C11.6286 20.8762 11.6286 20.4191 11.3238 20.1143C11.019 19.8095 10.5619 19.8095 10.2572 20.1143L9.34284 21.0286L8.42854 20.1143C8.12375 19.8095 7.66666 19.8095 7.36187 20.1143C7.05708 20.4191 7.05708 20.8762 7.36187 21.181L8.27617 22.0953L7.36187 23.0096C6.75235 23.3143 6.75235 23.7715 7.05714 24.0763Z" fill="#A9C530"/>
<path d="M15.5903 11.7334L16.0474 11.2762C15.7426 16 11.1712 16.4572 8.42838 16.4572C7.97123 16.4572 7.6665 16.762 7.6665 17.2191C7.6665 17.6762 7.97129 17.981 8.42838 17.981C8.73317 17.981 8.88554 17.981 9.19026 17.981C14.2188 17.981 17.4188 15.5428 17.7236 11.4286L18.0284 11.7334C18.1808 11.8857 18.3332 12.0382 18.6379 12.0382C18.7903 12.0382 18.9427 12.0382 19.0951 11.8858C19.3999 11.581 19.3999 11.1239 19.0951 10.8191L17.4189 8.99058C17.2665 8.83822 17.1141 8.68579 16.8094 8.68579C16.657 8.68579 16.3522 8.83816 16.1999 8.99058L14.5237 10.6668C14.2189 10.9716 14.2189 11.4286 14.5237 11.7334C14.8284 12.0381 15.4379 12.0381 15.5903 11.7334Z" fill="#A9C530"/>
</svg>
