<svg width="20" height="20" viewBox="0 0 20 20" fill="none" xmlns="http://www.w3.org/2000/svg">
<g id="Iconly/Light-Outline/Paper Fail">
<g id="Paper Fail">
<g id="Group 3">
<mask id="mask0" style="mask-type:alpha" maskUnits="userSpaceOnUse" x="2" y="1" width="15" height="18">
<path id="Clip 2" fill-rule="evenodd" clip-rule="evenodd" d="M2.5 1.67627H16.7096V18.2221H2.5V1.67627Z" fill="white"/>
</mask>
<g mask="url(#mask0)">
<path id="Fill 1" fill-rule="evenodd" clip-rule="evenodd" d="M6.23201 2.92627C4.86285 2.92627 3.74951 4.04044 3.74951 5.40877V14.4496C3.75368 15.1254 4.02201 15.7621 4.50451 16.2396C4.98618 16.7154 5.65035 16.9888 6.30535 16.9721C6.31118 16.9721 6.40285 16.9713 6.40785 16.9713H12.977C14.3453 16.9563 15.462 15.8254 15.4595 14.4504V6.95127L11.597 2.92627H6.23201ZM6.28535 18.2221C5.28535 18.2221 4.33951 17.8346 3.62534 17.1279C2.90534 16.4163 2.50535 15.4663 2.49951 14.4529V5.40877C2.49951 3.35127 4.17368 1.67627 6.23201 1.67627H11.8637C12.0337 1.67627 12.1962 1.74544 12.3145 1.86794L16.5353 6.2671C16.647 6.38294 16.7095 6.53877 16.7095 6.6996V14.4496C16.7137 16.5071 15.042 18.1996 12.9837 18.2213L6.30951 18.2221H6.28535Z" fill="#A9C530"/>
</g>
</g>
<path id="Fill 4" fill-rule="evenodd" clip-rule="evenodd" d="M16.0809 7.48699H13.7842C12.2592 7.48283 11.02 6.23949 11.02 4.71616V2.29199C11.02 1.94699 11.3 1.66699 11.645 1.66699C11.99 1.66699 12.27 1.94699 12.27 2.29199V4.71616C12.27 5.55282 12.95 6.23449 13.7859 6.23699H16.0809C16.4259 6.23699 16.7059 6.51699 16.7059 6.86199C16.7059 7.20699 16.4259 7.48699 16.0809 7.48699Z" fill="#A9C530"/>
<path id="Fill 6" fill-rule="evenodd" clip-rule="evenodd" d="M10.8959 12.832C10.7359 12.832 10.5759 12.7711 10.4543 12.6486L7.56594 9.76031C7.32177 9.51614 7.32177 9.12114 7.56594 8.87697C7.8101 8.63281 8.2051 8.63281 8.44927 8.87697L11.3376 11.7653C11.5818 12.0095 11.5818 12.4045 11.3376 12.6486C11.2159 12.7711 11.0559 12.832 10.8959 12.832Z" fill="#A9C530"/>
<path id="Fill 8" fill-rule="evenodd" clip-rule="evenodd" d="M8.00858 12.832C7.84858 12.832 7.68858 12.7711 7.56691 12.6486C7.32275 12.4045 7.32275 12.0095 7.56691 11.7653L10.4552 8.87697C10.6994 8.63281 11.0944 8.63281 11.3386 8.87697C11.5827 9.12114 11.5827 9.51614 11.3386 9.76031L8.45025 12.6486C8.32858 12.7711 8.16858 12.832 8.00858 12.832Z" fill="#A9C530"/>
</g>
</g>
</svg>
