<svg width="20" height="20" viewBox="0 0 20 20" fill="none" xmlns="http://www.w3.org/2000/svg">
<g id="Iconly/Light-Outline/Paper Download">
<g id="Paper Download">
<g id="Group 3">
<mask id="mask0" style="mask-type:alpha" maskUnits="userSpaceOnUse" x="2" y="1" width="15" height="18">
<path id="Clip 2" fill-rule="evenodd" clip-rule="evenodd" d="M2.5 1.67627H16.7101V18.2209H2.5V1.67627Z" fill="white"/>
</mask>
<g mask="url(#mask0)">
<path id="Fill 1" fill-rule="evenodd" clip-rule="evenodd" d="M6.31087 2.92627C4.93004 2.92627 3.78337 4.0446 3.75087 5.42377V14.3563C3.72087 15.7738 4.83754 16.9404 6.2417 16.9713H12.9775C14.3684 16.9213 15.4692 15.7738 15.46 14.3604V6.9496L11.5984 2.92627H6.32087H6.31087ZM6.32089 18.2213H6.21589C4.12256 18.1763 2.45589 16.4363 2.50089 14.3429V5.40877C2.55006 3.34127 4.25672 1.67627 6.30839 1.67627H6.32339H11.8642C12.0342 1.67627 12.1967 1.74544 12.3151 1.86794L16.5367 6.26544C16.6476 6.38127 16.7101 6.5371 16.7101 6.69794V14.3563C16.7234 16.4471 15.0934 18.1463 12.9992 18.2213H6.32089Z" fill="white"/>
</g>
</g>
<path id="Fill 4" fill-rule="evenodd" clip-rule="evenodd" d="M16.0815 7.48699H13.7865C12.2607 7.48283 11.0215 6.23949 11.0215 4.71616V2.29199C11.0215 1.94699 11.3015 1.66699 11.6465 1.66699C11.9915 1.66699 12.2715 1.94699 12.2715 2.29199V4.71616C12.2715 5.55283 12.9515 6.23449 13.7882 6.23699H16.0815C16.4265 6.23699 16.7065 6.51699 16.7065 6.86199C16.7065 7.20699 16.4265 7.48699 16.0815 7.48699Z" fill="white"/>
<path id="Fill 6" fill-rule="evenodd" clip-rule="evenodd" d="M9.28516 13.917C8.94016 13.917 8.66016 13.637 8.66016 13.292V8.25781C8.66016 7.91281 8.94016 7.63281 9.28516 7.63281C9.63016 7.63281 9.91016 7.91281 9.91016 8.25781V13.292C9.91016 13.637 9.63016 13.917 9.28516 13.917Z" fill="white"/>
<path id="Fill 8" fill-rule="evenodd" clip-rule="evenodd" d="M9.2847 13.9159C9.11887 13.9159 8.95887 13.8501 8.8422 13.7317L6.88804 11.7701C6.6447 11.5251 6.64554 11.1292 6.8897 10.8859C7.1347 10.6426 7.53053 10.6426 7.77387 10.8876L9.2847 12.4059L10.7955 10.8876C11.0389 10.6426 11.4347 10.6426 11.6797 10.8859C11.9239 11.1292 11.9247 11.5251 11.6814 11.7701L9.7272 13.7317C9.61053 13.8501 9.45053 13.9159 9.2847 13.9159Z" fill="white"/>
</g>
</g>
</svg>
