<svg width="32" height="32" viewBox="0 0 32 32" fill="none" xmlns="http://www.w3.org/2000/svg">
<path d="M23.7059 22.3163C23.7057 22.3163 23.7055 22.3162 23.7053 22.3162L23.7028 22.3155C23.3191 22.2109 22.9173 22.1505 22.4995 22.1505C22.4995 22.1505 22.4995 22.1505 22.4995 22.1505L20.0995 22.1495V20.2248C22.4879 18.8155 24.099 16.2203 24.099 13.2505V11.8417C24.383 11.7942 24.599 11.5477 24.599 11.25V9.25C24.599 8.95235 24.383 8.70579 24.099 8.65827V7.251C24.099 5.19402 22.5758 3.49002 20.599 3.19824V1.25C20.599 0.918272 20.3307 0.65 19.999 0.65H14.999C11.0838 0.65 7.899 3.83477 7.899 7.75V8.65827C7.61499 8.70579 7.399 8.95235 7.399 9.25V11.25C7.399 11.5477 7.61499 11.7942 7.899 11.8417V13.2505C7.899 16.2203 9.5101 18.8155 11.899 20.2253V21.75C11.899 21.7535 11.8992 21.7568 11.8995 21.76V22.1505L9.50002 22.15C6.96327 22.15 4.9 24.2133 4.9 26.75L4.9005 30.749C4.9005 31.0808 5.16934 31.349 5.5005 31.349C5.83229 31.349 6.1005 31.0802 6.1005 30.749L6.1 26.75C6.1 25.4553 6.83009 24.3292 7.8995 23.7557V30.75C7.8995 31.0817 8.16777 31.35 8.4995 31.35C8.83123 31.35 9.0995 31.0817 9.0995 30.75V23.3774C9.23214 23.3607 9.36499 23.35 9.5 23.35L11.3995 23.3505V24.248C11.3995 26.7847 13.4628 28.8485 15.9995 28.8485C18.5362 28.8485 20.5995 26.7847 20.5995 24.248V23.35L22.5 23.3505C22.635 23.3505 22.7682 23.3613 22.901 23.3779V30.75C22.901 31.0817 23.1693 31.35 23.501 31.35C23.8327 31.35 24.101 31.0817 24.101 30.75V23.7567C25.17 24.3302 25.9 25.4558 25.9 26.7505V30.749C25.9 31.0807 26.1683 31.349 26.5 31.349C26.8317 31.349 27.1 31.0807 27.1 30.749V26.7505C27.1 24.6396 25.6696 22.8618 23.7288 22.3223C23.7184 22.3187 23.7097 22.317 23.7064 22.3164L23.7059 22.3163ZM15.9995 27.6485C14.1252 27.6485 12.5995 26.1228 12.5995 24.248V23.3423C12.8838 23.295 13.1 23.0483 13.1 22.7505V20.8087C14.0006 21.1562 14.9774 21.3505 15.9995 21.3505C17.0217 21.3505 17.9989 21.1557 18.8995 20.8086V21.75C18.8995 21.7535 18.8997 21.7568 18.9 21.76V22.7495C18.9 23.0472 19.116 23.2932 19.3995 23.3411V24.248C19.3995 26.1228 17.8738 27.6485 15.9995 27.6485ZM8.5995 10.65V9.85H23.3995V10.65H8.5995ZM9.0995 7.75C9.0995 4.49673 11.7462 1.85 14.9995 1.85H19.3995V3.751C19.3995 4.08273 19.6678 4.351 19.9995 4.351C21.5988 4.351 22.8995 5.65173 22.8995 7.251V8.65H9.0995V7.75ZM9.0995 13.2505V11.85H22.8995V13.2505C22.8995 17.0553 19.8043 20.1505 15.9995 20.1505C12.1947 20.1505 9.0995 17.0553 9.0995 13.2505Z" fill="#A9C530" stroke="#A9C530" stroke-width="0.2"/>
<path d="M4 31L28 31" stroke="#A9C530" stroke-width="1.25" stroke-linecap="round"/>
</svg>
