<svg width="32" height="32" viewBox="0 0 32 32" fill="none" xmlns="http://www.w3.org/2000/svg">
<mask id="path-1-outside-1" maskUnits="userSpaceOnUse" x="-0.256348" y="0" width="32" height="32" fill="black">
<rect fill="white" x="-0.256348" width="32" height="32"/>
<path d="M31.2366 17.8924C31.2563 17.8038 31.2516 17.7115 31.2229 17.6254C30.8742 12.5868 26.7049 8.66607 21.6543 8.62736C19.9686 2.97689 14.0215 -0.237307 8.37105 1.44836C2.72052 3.13403 -0.493613 9.08117 1.19199 14.7316C2.07951 17.7066 4.21797 20.148 7.05019 21.4196C6.0485 21.9554 5.11795 22.6148 4.2802 23.382L2.82935 24.7118C2.20817 25.2811 2.16609 26.2462 2.7354 26.8673C2.79903 26.9367 2.86895 27.0002 2.94428 27.0567L4.57973 28.2833C6.93386 30.0414 9.79189 30.994 12.73 30.9999H14.1854C17.1233 30.9938 19.9809 30.0412 22.3347 28.2833L22.9104 27.8515C27.6954 27.2035 31.2627 23.1152 31.2565 18.2865C31.2565 18.1533 31.2417 18.0241 31.2366 17.8924ZM28.5699 13.2011C29.4904 14.4549 30.0528 15.9353 30.1972 17.484L29.7659 17.6996L27.269 16.0352L28.0802 13.2011H28.5699ZM25.1291 10.4067C26.0907 10.8374 26.9658 11.4397 27.7115 12.1841H27.6967C27.4697 12.1843 27.2703 12.3349 27.208 12.5533L26.255 15.8882L24.6211 16.6419L22.1028 14.9632V12.9575L24.9374 10.9743C25.1177 10.8468 25.1952 10.6175 25.1291 10.4067ZM13.6423 12.8111C13.5878 12.8556 13.5431 12.9111 13.5111 12.9738C13.5052 12.992 13.5003 13.0105 13.4964 13.0292L12.1427 11.6755L13.7583 10.0599C14.188 10.4506 14.6487 10.8057 15.1359 11.1217H15.1349C14.5735 11.6251 14.0726 12.1919 13.6423 12.8111ZM12.9731 13.9436C12.3964 15.0847 12.0539 16.3296 11.9657 17.6051C11.4952 16.2735 10.7631 15.0495 9.81255 14.0051L11.4226 12.3931L12.9731 13.9436ZM14.1738 13.8734L14.5806 14.0768L15.4014 16.1283L13.356 18.1761L12.9634 17.9798C13.0133 16.5308 13.4298 15.1179 14.1738 13.8734ZM13.2299 19.2476C13.4257 19.3453 13.6621 19.3069 13.8168 19.152L16.1225 16.8468L18.1225 17.6468L19.0709 20.966C19.0802 20.9917 19.0918 21.0166 19.1055 21.0402C17.3331 20.2297 15.4067 19.8108 13.4577 19.8121C13.3377 19.8121 13.2182 19.8172 13.0982 19.8202L13.0972 19.8177C13.0565 19.5899 13.0179 19.36 12.9955 19.1301L13.2299 19.2476ZM18.4836 16.6978L16.3915 15.8608L15.4558 13.5215C15.4095 13.4056 15.3223 13.3108 15.2107 13.255L14.753 13.0252C15.6229 11.893 16.7586 10.9928 18.0595 10.4042C17.9934 10.6149 18.0708 10.8443 18.2512 10.9717L21.0858 12.9575V14.9632L18.4836 16.6978ZM21.5943 15.8455L24.0017 17.454C24.0058 17.4647 24.0048 17.4759 24.0098 17.4866C24.0192 17.5042 24.0297 17.5212 24.0414 17.5374L23.245 20.3206H19.9436L19.134 17.4866L21.5943 15.8455ZM23.9097 9.96583V9.96837L24.0419 10.3605L21.5943 12.0717L19.1467 10.3579L19.2789 9.96583C20.7922 9.53325 22.3964 9.53325 23.9097 9.96583ZM20.6088 8.67516C18.9357 8.84819 17.3375 9.45793 15.9745 10.4433C15.4415 10.1245 14.9406 9.7551 14.4784 9.34033L18.6031 5.21712C19.5057 6.21722 20.1889 7.39512 20.6088 8.67516ZM17.8779 4.50161L13.7588 8.62075C12.3189 7.02427 11.4544 4.99197 11.3031 2.84734L11.2441 2.02657C13.6895 1.9787 16.0615 2.86368 17.8779 4.50161ZM10.2301 2.10081L10.2885 2.91956C10.4564 5.30872 11.4252 7.57139 13.0382 9.34185L11.4236 10.9565L4.96926 4.50161C6.43442 3.17974 8.27137 2.34141 10.2301 2.10081ZM4.25019 5.22068L10.7045 11.6755L9.09399 13.2861C7.32188 11.6737 5.05775 10.7061 2.66763 10.54L1.84838 10.4815C2.0893 8.52273 2.92794 6.68577 4.25019 5.22068ZM1.77464 11.496L2.59542 11.5545C4.74061 11.7044 6.77412 12.5674 8.37238 14.0061L4.24867 18.1304C2.61119 16.3135 1.72659 13.9415 1.77464 11.496ZM4.96214 18.8566L9.09399 14.7267C10.4044 16.1869 11.237 18.0128 11.48 19.9596C10.395 20.1186 9.33339 20.4088 8.31848 20.8241C7.07816 20.4019 5.93637 19.7326 4.96214 18.8566ZM23.4316 26.18C23.4104 26.2031 23.3871 26.2242 23.362 26.2431L21.724 27.4702C19.5465 29.0962 16.903 29.9773 14.1854 29.9829H12.73C10.0125 29.9773 7.36898 29.0962 5.19149 27.4702L3.55554 26.2431C3.33083 26.0746 3.28525 25.7559 3.45376 25.5312C3.47258 25.506 3.49375 25.4827 3.51689 25.4615L4.9652 24.1317C6.00051 23.1881 7.18654 22.4246 8.47409 21.8727C8.55132 21.8583 8.62411 21.8262 8.68666 21.7787C13.1895 19.9189 18.362 20.8365 21.9503 24.1317L23.4006 25.4615C23.6076 25.6513 23.6215 25.9729 23.4316 26.18ZM22.6353 23.382C21.754 22.575 20.7701 21.8876 19.7092 21.3377H23.4179L24.5367 22.4565L23.6203 24.2872L22.6353 23.382ZM24.4457 26.4439C24.6512 26.0017 24.6208 25.4858 24.3648 25.0709L25.4683 22.8633H28.3995L28.6258 23.3159C27.5897 24.7661 26.1292 25.859 24.4457 26.4439ZM29.2513 22.2953L29.1715 22.1275C29.0849 21.9542 28.9075 21.8452 28.7138 21.8462H25.3646L24.1995 20.6812L25.0961 17.543L26.6344 16.8336L29.4486 18.7096C29.6002 18.8105 29.7941 18.8227 29.9572 18.7416L30.2231 18.6084C30.1786 19.8945 29.8465 21.1543 29.2513 22.2953Z"/>
</mask>
<path d="M31.2366 17.8924C31.2563 17.8038 31.2516 17.7115 31.2229 17.6254C30.8742 12.5868 26.7049 8.66607 21.6543 8.62736C19.9686 2.97689 14.0215 -0.237307 8.37105 1.44836C2.72052 3.13403 -0.493613 9.08117 1.19199 14.7316C2.07951 17.7066 4.21797 20.148 7.05019 21.4196C6.0485 21.9554 5.11795 22.6148 4.2802 23.382L2.82935 24.7118C2.20817 25.2811 2.16609 26.2462 2.7354 26.8673C2.79903 26.9367 2.86895 27.0002 2.94428 27.0567L4.57973 28.2833C6.93386 30.0414 9.79189 30.994 12.73 30.9999H14.1854C17.1233 30.9938 19.9809 30.0412 22.3347 28.2833L22.9104 27.8515C27.6954 27.2035 31.2627 23.1152 31.2565 18.2865C31.2565 18.1533 31.2417 18.0241 31.2366 17.8924ZM28.5699 13.2011C29.4904 14.4549 30.0528 15.9353 30.1972 17.484L29.7659 17.6996L27.269 16.0352L28.0802 13.2011H28.5699ZM25.1291 10.4067C26.0907 10.8374 26.9658 11.4397 27.7115 12.1841H27.6967C27.4697 12.1843 27.2703 12.3349 27.208 12.5533L26.255 15.8882L24.6211 16.6419L22.1028 14.9632V12.9575L24.9374 10.9743C25.1177 10.8468 25.1952 10.6175 25.1291 10.4067ZM13.6423 12.8111C13.5878 12.8556 13.5431 12.9111 13.5111 12.9738C13.5052 12.992 13.5003 13.0105 13.4964 13.0292L12.1427 11.6755L13.7583 10.0599C14.188 10.4506 14.6487 10.8057 15.1359 11.1217H15.1349C14.5735 11.6251 14.0726 12.1919 13.6423 12.8111ZM12.9731 13.9436C12.3964 15.0847 12.0539 16.3296 11.9657 17.6051C11.4952 16.2735 10.7631 15.0495 9.81255 14.0051L11.4226 12.3931L12.9731 13.9436ZM14.1738 13.8734L14.5806 14.0768L15.4014 16.1283L13.356 18.1761L12.9634 17.9798C13.0133 16.5308 13.4298 15.1179 14.1738 13.8734ZM13.2299 19.2476C13.4257 19.3453 13.6621 19.3069 13.8168 19.152L16.1225 16.8468L18.1225 17.6468L19.0709 20.966C19.0802 20.9917 19.0918 21.0166 19.1055 21.0402C17.3331 20.2297 15.4067 19.8108 13.4577 19.8121C13.3377 19.8121 13.2182 19.8172 13.0982 19.8202L13.0972 19.8177C13.0565 19.5899 13.0179 19.36 12.9955 19.1301L13.2299 19.2476ZM18.4836 16.6978L16.3915 15.8608L15.4558 13.5215C15.4095 13.4056 15.3223 13.3108 15.2107 13.255L14.753 13.0252C15.6229 11.893 16.7586 10.9928 18.0595 10.4042C17.9934 10.6149 18.0708 10.8443 18.2512 10.9717L21.0858 12.9575V14.9632L18.4836 16.6978ZM21.5943 15.8455L24.0017 17.454C24.0058 17.4647 24.0048 17.4759 24.0098 17.4866C24.0192 17.5042 24.0297 17.5212 24.0414 17.5374L23.245 20.3206H19.9436L19.134 17.4866L21.5943 15.8455ZM23.9097 9.96583V9.96837L24.0419 10.3605L21.5943 12.0717L19.1467 10.3579L19.2789 9.96583C20.7922 9.53325 22.3964 9.53325 23.9097 9.96583ZM20.6088 8.67516C18.9357 8.84819 17.3375 9.45793 15.9745 10.4433C15.4415 10.1245 14.9406 9.7551 14.4784 9.34033L18.6031 5.21712C19.5057 6.21722 20.1889 7.39512 20.6088 8.67516ZM17.8779 4.50161L13.7588 8.62075C12.3189 7.02427 11.4544 4.99197 11.3031 2.84734L11.2441 2.02657C13.6895 1.9787 16.0615 2.86368 17.8779 4.50161ZM10.2301 2.10081L10.2885 2.91956C10.4564 5.30872 11.4252 7.57139 13.0382 9.34185L11.4236 10.9565L4.96926 4.50161C6.43442 3.17974 8.27137 2.34141 10.2301 2.10081ZM4.25019 5.22068L10.7045 11.6755L9.09399 13.2861C7.32188 11.6737 5.05775 10.7061 2.66763 10.54L1.84838 10.4815C2.0893 8.52273 2.92794 6.68577 4.25019 5.22068ZM1.77464 11.496L2.59542 11.5545C4.74061 11.7044 6.77412 12.5674 8.37238 14.0061L4.24867 18.1304C2.61119 16.3135 1.72659 13.9415 1.77464 11.496ZM4.96214 18.8566L9.09399 14.7267C10.4044 16.1869 11.237 18.0128 11.48 19.9596C10.395 20.1186 9.33339 20.4088 8.31848 20.8241C7.07816 20.4019 5.93637 19.7326 4.96214 18.8566ZM23.4316 26.18C23.4104 26.2031 23.3871 26.2242 23.362 26.2431L21.724 27.4702C19.5465 29.0962 16.903 29.9773 14.1854 29.9829H12.73C10.0125 29.9773 7.36898 29.0962 5.19149 27.4702L3.55554 26.2431C3.33083 26.0746 3.28525 25.7559 3.45376 25.5312C3.47258 25.506 3.49375 25.4827 3.51689 25.4615L4.9652 24.1317C6.00051 23.1881 7.18654 22.4246 8.47409 21.8727C8.55132 21.8583 8.62411 21.8262 8.68666 21.7787C13.1895 19.9189 18.362 20.8365 21.9503 24.1317L23.4006 25.4615C23.6076 25.6513 23.6215 25.9729 23.4316 26.18ZM22.6353 23.382C21.754 22.575 20.7701 21.8876 19.7092 21.3377H23.4179L24.5367 22.4565L23.6203 24.2872L22.6353 23.382ZM24.4457 26.4439C24.6512 26.0017 24.6208 25.4858 24.3648 25.0709L25.4683 22.8633H28.3995L28.6258 23.3159C27.5897 24.7661 26.1292 25.859 24.4457 26.4439ZM29.2513 22.2953L29.1715 22.1275C29.0849 21.9542 28.9075 21.8452 28.7138 21.8462H25.3646L24.1995 20.6812L25.0961 17.543L26.6344 16.8336L29.4486 18.7096C29.6002 18.8105 29.7941 18.8227 29.9572 18.7416L30.2231 18.6084C30.1786 19.8945 29.8465 21.1543 29.2513 22.2953Z" fill="#A9C530"/>
<path d="M31.2366 17.8924C31.2563 17.8038 31.2516 17.7115 31.2229 17.6254C30.8742 12.5868 26.7049 8.66607 21.6543 8.62736C19.9686 2.97689 14.0215 -0.237307 8.37105 1.44836C2.72052 3.13403 -0.493613 9.08117 1.19199 14.7316C2.07951 17.7066 4.21797 20.148 7.05019 21.4196C6.0485 21.9554 5.11795 22.6148 4.2802 23.382L2.82935 24.7118C2.20817 25.2811 2.16609 26.2462 2.7354 26.8673C2.79903 26.9367 2.86895 27.0002 2.94428 27.0567L4.57973 28.2833C6.93386 30.0414 9.79189 30.994 12.73 30.9999H14.1854C17.1233 30.9938 19.9809 30.0412 22.3347 28.2833L22.9104 27.8515C27.6954 27.2035 31.2627 23.1152 31.2565 18.2865C31.2565 18.1533 31.2417 18.0241 31.2366 17.8924ZM28.5699 13.2011C29.4904 14.4549 30.0528 15.9353 30.1972 17.484L29.7659 17.6996L27.269 16.0352L28.0802 13.2011H28.5699ZM25.1291 10.4067C26.0907 10.8374 26.9658 11.4397 27.7115 12.1841H27.6967C27.4697 12.1843 27.2703 12.3349 27.208 12.5533L26.255 15.8882L24.6211 16.6419L22.1028 14.9632V12.9575L24.9374 10.9743C25.1177 10.8468 25.1952 10.6175 25.1291 10.4067ZM13.6423 12.8111C13.5878 12.8556 13.5431 12.9111 13.5111 12.9738C13.5052 12.992 13.5003 13.0105 13.4964 13.0292L12.1427 11.6755L13.7583 10.0599C14.188 10.4506 14.6487 10.8057 15.1359 11.1217H15.1349C14.5735 11.6251 14.0726 12.1919 13.6423 12.8111ZM12.9731 13.9436C12.3964 15.0847 12.0539 16.3296 11.9657 17.6051C11.4952 16.2735 10.7631 15.0495 9.81255 14.0051L11.4226 12.3931L12.9731 13.9436ZM14.1738 13.8734L14.5806 14.0768L15.4014 16.1283L13.356 18.1761L12.9634 17.9798C13.0133 16.5308 13.4298 15.1179 14.1738 13.8734ZM13.2299 19.2476C13.4257 19.3453 13.6621 19.3069 13.8168 19.152L16.1225 16.8468L18.1225 17.6468L19.0709 20.966C19.0802 20.9917 19.0918 21.0166 19.1055 21.0402C17.3331 20.2297 15.4067 19.8108 13.4577 19.8121C13.3377 19.8121 13.2182 19.8172 13.0982 19.8202L13.0972 19.8177C13.0565 19.5899 13.0179 19.36 12.9955 19.1301L13.2299 19.2476ZM18.4836 16.6978L16.3915 15.8608L15.4558 13.5215C15.4095 13.4056 15.3223 13.3108 15.2107 13.255L14.753 13.0252C15.6229 11.893 16.7586 10.9928 18.0595 10.4042C17.9934 10.6149 18.0708 10.8443 18.2512 10.9717L21.0858 12.9575V14.9632L18.4836 16.6978ZM21.5943 15.8455L24.0017 17.454C24.0058 17.4647 24.0048 17.4759 24.0098 17.4866C24.0192 17.5042 24.0297 17.5212 24.0414 17.5374L23.245 20.3206H19.9436L19.134 17.4866L21.5943 15.8455ZM23.9097 9.96583V9.96837L24.0419 10.3605L21.5943 12.0717L19.1467 10.3579L19.2789 9.96583C20.7922 9.53325 22.3964 9.53325 23.9097 9.96583ZM20.6088 8.67516C18.9357 8.84819 17.3375 9.45793 15.9745 10.4433C15.4415 10.1245 14.9406 9.7551 14.4784 9.34033L18.6031 5.21712C19.5057 6.21722 20.1889 7.39512 20.6088 8.67516ZM17.8779 4.50161L13.7588 8.62075C12.3189 7.02427 11.4544 4.99197 11.3031 2.84734L11.2441 2.02657C13.6895 1.9787 16.0615 2.86368 17.8779 4.50161ZM10.2301 2.10081L10.2885 2.91956C10.4564 5.30872 11.4252 7.57139 13.0382 9.34185L11.4236 10.9565L4.96926 4.50161C6.43442 3.17974 8.27137 2.34141 10.2301 2.10081ZM4.25019 5.22068L10.7045 11.6755L9.09399 13.2861C7.32188 11.6737 5.05775 10.7061 2.66763 10.54L1.84838 10.4815C2.0893 8.52273 2.92794 6.68577 4.25019 5.22068ZM1.77464 11.496L2.59542 11.5545C4.74061 11.7044 6.77412 12.5674 8.37238 14.0061L4.24867 18.1304C2.61119 16.3135 1.72659 13.9415 1.77464 11.496ZM4.96214 18.8566L9.09399 14.7267C10.4044 16.1869 11.237 18.0128 11.48 19.9596C10.395 20.1186 9.33339 20.4088 8.31848 20.8241C7.07816 20.4019 5.93637 19.7326 4.96214 18.8566ZM23.4316 26.18C23.4104 26.2031 23.3871 26.2242 23.362 26.2431L21.724 27.4702C19.5465 29.0962 16.903 29.9773 14.1854 29.9829H12.73C10.0125 29.9773 7.36898 29.0962 5.19149 27.4702L3.55554 26.2431C3.33083 26.0746 3.28525 25.7559 3.45376 25.5312C3.47258 25.506 3.49375 25.4827 3.51689 25.4615L4.9652 24.1317C6.00051 23.1881 7.18654 22.4246 8.47409 21.8727C8.55132 21.8583 8.62411 21.8262 8.68666 21.7787C13.1895 19.9189 18.362 20.8365 21.9503 24.1317L23.4006 25.4615C23.6076 25.6513 23.6215 25.9729 23.4316 26.18ZM22.6353 23.382C21.754 22.575 20.7701 21.8876 19.7092 21.3377H23.4179L24.5367 22.4565L23.6203 24.2872L22.6353 23.382ZM24.4457 26.4439C24.6512 26.0017 24.6208 25.4858 24.3648 25.0709L25.4683 22.8633H28.3995L28.6258 23.3159C27.5897 24.7661 26.1292 25.859 24.4457 26.4439ZM29.2513 22.2953L29.1715 22.1275C29.0849 21.9542 28.9075 21.8452 28.7138 21.8462H25.3646L24.1995 20.6812L25.0961 17.543L26.6344 16.8336L29.4486 18.7096C29.6002 18.8105 29.7941 18.8227 29.9572 18.7416L30.2231 18.6084C30.1786 19.8945 29.8465 21.1543 29.2513 22.2953Z" stroke="#A9C530" stroke-width="0.5" mask="url(#path-1-outside-1)"/>
<path d="M18.0342 24.8974H17.5257V24.3889C17.5257 24.1081 17.298 23.8804 17.0171 23.8804C16.7363 23.8804 16.5086 24.1081 16.5086 24.3889V24.8974H15.4915V24.3889C15.4915 24.1081 15.2638 23.8804 14.983 23.8804C14.7022 23.8804 14.4745 24.1081 14.4745 24.3889V24.8974H13.4574V24.3889C13.4574 24.1081 13.2297 23.8804 12.9489 23.8804C12.668 23.8804 12.4403 24.1081 12.4403 24.3889V24.8974H11.4233V24.3889C11.4233 24.1081 11.1956 23.8804 10.9147 23.8804C10.6339 23.8804 10.4062 24.1081 10.4062 24.3889V24.8974H9.38912V24.3889C9.38912 24.1081 9.16142 23.8804 8.88059 23.8804C8.59975 23.8804 8.37205 24.1081 8.37205 24.3889V24.8974H7.86352C7.58268 24.8974 7.35498 25.1251 7.35498 25.406C7.35498 25.6868 7.58268 25.9145 7.86352 25.9145H8.37205V26.423C8.37205 26.7039 8.59975 26.9316 8.88059 26.9316C9.16142 26.9316 9.38912 26.7039 9.38912 26.423V25.9145H10.4062V26.423C10.4062 26.7039 10.6339 26.9316 10.9147 26.9316C11.1956 26.9316 11.4233 26.7039 11.4233 26.423V25.9145H12.4403V26.423C12.4403 26.7039 12.668 26.9316 12.9489 26.9316C13.2297 26.9316 13.4574 26.7039 13.4574 26.423V25.9145H14.4745V26.423C14.4745 26.7039 14.7022 26.9316 14.983 26.9316C15.2638 26.9316 15.4915 26.7039 15.4915 26.423V25.9145H16.5086V26.423C16.5086 26.7039 16.7363 26.9316 17.0171 26.9316C17.298 26.9316 17.5257 26.7039 17.5257 26.423V25.9145H18.0342C18.3151 25.9145 18.5428 25.6868 18.5428 25.406C18.5428 25.1251 18.3151 24.8974 18.0342 24.8974Z" fill="#A9C530"/>
</svg>
