<svg width="40" height="40" viewBox="0 0 40 40" fill="none" xmlns="http://www.w3.org/2000/svg">
<g filter="url(#filter0_d)">
<rect x="4" y="2" width="32" height="32" rx="5" fill="white"/>
<rect x="4.5" y="2.5" width="31" height="31" rx="4.5" stroke="#29383A"/>
</g>
<path d="M21.7476 26.4428H29.0002" stroke="#29383A" stroke-width="1.5" stroke-linecap="round" stroke-linejoin="round"/>
<path fill-rule="evenodd" clip-rule="evenodd" d="M20.78 9.79479C21.5557 8.86779 22.95 8.73186 23.8962 9.49173C23.9485 9.53296 25.6295 10.8388 25.6295 10.8388C26.669 11.4672 26.992 12.8031 26.3494 13.8226C26.3153 13.8772 16.8119 25.7645 16.8119 25.7645C16.4958 26.1589 16.0158 26.3918 15.5029 26.3973L11.8635 26.443L11.0435 22.9723C10.9287 22.4843 11.0435 21.9718 11.3597 21.5773L20.78 9.79479Z" stroke="#29383A" stroke-width="1.5" stroke-linecap="round" stroke-linejoin="round"/>
<path d="M19.021 12.001L24.4732 16.1881" stroke="#29383A" stroke-width="1.5" stroke-linecap="round" stroke-linejoin="round"/>
<defs>
<filter id="filter0_d" x="0" y="0" width="40" height="40" filterUnits="userSpaceOnUse" color-interpolation-filters="sRGB">
<feFlood flood-opacity="0" result="BackgroundImageFix"/>
<feColorMatrix in="SourceAlpha" type="matrix" values="0 0 0 0 0 0 0 0 0 0 0 0 0 0 0 0 0 0 127 0" result="hardAlpha"/>
<feOffset dy="2"/>
<feGaussianBlur stdDeviation="2"/>
<feComposite in2="hardAlpha" operator="out"/>
<feColorMatrix type="matrix" values="0 0 0 0 0.160784 0 0 0 0 0.219608 0 0 0 0 0.227451 0 0 0 0.15 0"/>
<feBlend mode="normal" in2="BackgroundImageFix" result="effect1_dropShadow"/>
<feBlend mode="normal" in="SourceGraphic" in2="effect1_dropShadow" result="shape"/>
</filter>
</defs>
</svg>
