<svg width="20" height="20" viewBox="0 0 20 20" fill="none" xmlns="http://www.w3.org/2000/svg">
<path d="M14.813 13.9598L14.811 13.9593C14.5721 13.8941 14.3221 13.8566 14.0622 13.8566C14.0622 13.8566 14.0622 13.8566 14.0622 13.8566L12.55 13.856L12.5497 12.6334C14.0422 11.7555 15.0494 10.1356 15.0494 8.28156V7.39034C15.2261 7.36604 15.3619 7.21471 15.3619 7.03125V5.78125C15.3619 5.59779 15.2261 5.44646 15.0494 5.42216V4.53188C15.0494 3.24887 14.0965 2.18661 12.8619 2.00971V0.78125C12.8619 0.580823 12.6998 0.41875 12.4994 0.41875H9.37437C6.93426 0.41875 4.94938 2.40364 4.94938 4.84375V5.42216C4.77267 5.44646 4.63688 5.59779 4.63688 5.78125V7.03125C4.63688 7.21471 4.77267 7.36604 4.94938 7.39034V8.28156C4.94938 10.1356 5.95655 11.7555 7.44937 12.6337V13.5938H7.44838L7.44969 13.6003V13.8566L5.93751 13.8562C4.35895 13.8562 3.075 15.1402 3.075 16.7188L3.07531 19.2181C3.07531 19.4186 3.23773 19.5806 3.43781 19.5806C3.63827 19.5806 3.80031 19.4182 3.80031 19.2181L3.8 16.7187C3.8 15.8973 4.26742 15.1839 4.94969 14.8265V19.2188C4.94969 19.4192 5.11176 19.5812 5.31219 19.5812C5.51261 19.5812 5.67469 19.4192 5.67469 19.2188V14.5999C5.76157 14.5886 5.84874 14.5813 5.9375 14.5813L7.13719 14.5816V15.155C7.13719 16.7335 8.42113 18.0178 9.99969 18.0178C11.5782 18.0178 12.8622 16.7335 12.8622 15.155V14.5813L14.0625 14.5816C14.1513 14.5816 14.2387 14.5889 14.3256 14.6002V19.2188C14.3256 19.4192 14.4877 19.5812 14.6881 19.5812C14.8886 19.5812 15.0506 19.4192 15.0506 19.2188V14.8272C15.7326 15.1845 16.2 15.8976 16.2 16.7191V19.2181C16.2 19.4186 16.3621 19.5806 16.5625 19.5806C16.7629 19.5806 16.925 19.4186 16.925 19.2181V16.7191C16.925 15.4054 16.0348 14.299 14.8268 13.9634C14.8208 13.9612 14.8157 13.9603 14.8138 13.96L14.813 13.9598ZM8.175 14.2191V12.9872C8.74122 13.208 9.35601 13.3316 9.99969 13.3316C10.6434 13.3316 11.2585 13.2077 11.8247 12.9871V13.5938H11.8237L11.825 13.6003V14.2184C11.825 14.4019 11.9608 14.5529 12.1372 14.5775V15.155C12.1372 16.3336 11.178 17.2928 9.99969 17.2928C8.82137 17.2928 7.86219 16.3336 7.86219 15.155V14.5782C8.03889 14.5539 8.175 14.4026 8.175 14.2191ZM5.36219 6.66875V6.14375H14.6372V6.66875H5.36219ZM5.67469 4.84375C5.67469 2.80355 7.33449 1.14375 9.37469 1.14375H12.1372V2.34437C12.1372 2.5448 12.2993 2.70687 12.4997 2.70687C13.5061 2.70687 14.3247 3.52543 14.3247 4.53188V5.41875H5.67469V4.84375ZM5.67469 8.28156V7.39375H14.3247V8.28156C14.3247 10.6664 12.3846 12.6066 9.99969 12.6066C7.6148 12.6066 5.67469 10.6664 5.67469 8.28156Z" fill="#A9C530" stroke="#A9C530" stroke-width="0.1"/>
<mask id="path-2-outside-1" maskUnits="userSpaceOnUse" x="1.98767" y="-0.668701" width="16" height="21" fill="black">
<rect fill="white" x="1.98767" y="-0.668701" width="16" height="21"/>
<path fill-rule="evenodd" clip-rule="evenodd" d="M14.0627 14.5316L12.8124 14.5313V15.1551C12.8124 16.706 11.5508 17.9679 9.99986 17.9679C8.44892 17.9679 7.18736 16.706 7.18736 15.1551V14.5316L5.93767 14.5313C5.83111 14.5313 5.72736 14.5416 5.62486 14.5563V19.2188C5.62486 19.3916 5.48517 19.5313 5.31236 19.5313C5.13955 19.5313 4.99986 19.3916 4.99986 19.2188V14.7457C4.95309 14.768 4.90724 14.7919 4.86236 14.8174C4.19946 15.1933 3.75017 15.904 3.75017 16.7188L3.75048 19.2182C3.75048 19.3907 3.6108 19.5307 3.43798 19.5307C3.26548 19.5307 3.12548 19.391 3.12548 19.2182L3.12517 16.7188C3.12517 15.1679 4.38673 13.9063 5.93767 13.9063L7.49986 13.9066V13.5954L7.49955 13.5938V12.6051C6.00767 11.7388 4.99955 10.1272 4.99955 8.28161V7.3438C4.82673 7.3438 4.68705 7.20411 4.68705 7.0313V5.7813C4.68705 5.60849 4.82673 5.4688 4.99955 5.4688V4.8438C4.99955 2.4313 6.96205 0.468799 9.37455 0.468799H12.4995C12.6724 0.468799 12.812 0.608486 12.812 0.781299V2.05349C14.0433 2.20817 14.9995 3.25942 14.9995 4.53192V5.4688C15.1724 5.4688 15.312 5.60849 15.312 5.7813V7.0313C15.312 7.20411 15.1724 7.3438 14.9995 7.3438V8.28161C14.9995 10.1272 13.9914 11.7388 12.4999 12.6047L12.5002 13.906L14.0624 13.9066C14.3174 13.9066 14.563 13.9435 14.798 14.0076C14.8024 14.0091 14.807 14.0091 14.8114 14.011C15.9995 14.3401 16.8752 15.4279 16.8752 16.7191V19.2182C16.8752 19.391 16.7355 19.5307 16.5627 19.5307C16.3899 19.5307 16.2502 19.391 16.2502 19.2182V16.7191C16.2502 15.9043 15.8009 15.1939 15.1383 14.818C15.0934 14.7925 15.0476 14.7686 15.0008 14.7463V19.2188C15.0008 19.3916 14.8611 19.5313 14.6883 19.5313C14.5155 19.5313 14.3758 19.3916 14.3758 19.2188V14.5566C14.2733 14.5419 14.1692 14.5316 14.0627 14.5316ZM14.2383 14.6783C14.1797 14.6725 14.1213 14.6691 14.0627 14.6691L12.9499 14.6688V15.1551C12.9499 16.7819 11.6268 18.1054 9.99986 18.1054C8.37296 18.1054 7.04986 16.7819 7.04986 15.1551V14.6691L5.93767 14.6688C5.93766 14.6688 5.93768 14.6688 5.93767 14.6688C5.87909 14.6688 5.82084 14.6722 5.76236 14.678V19.2188C5.76236 19.4676 5.56111 19.6688 5.31236 19.6688C5.06361 19.6688 4.86236 19.4676 4.86236 19.2188V14.9772C4.27795 15.3387 3.88767 15.9839 3.88767 16.7188L3.88798 19.2182C3.88798 19.4665 3.68682 19.6682 3.43798 19.6682C3.18963 19.6682 2.98798 19.467 2.98798 19.2182L2.98767 16.7188C2.98767 15.0919 4.31079 13.7688 5.93767 13.7688L7.36236 13.7691V13.609L7.36205 13.6074V12.6835C5.86758 11.7847 4.86205 10.1503 4.86205 8.28161V7.45995C4.68066 7.40192 4.54955 7.23208 4.54955 7.0313V5.7813C4.54955 5.58051 4.68066 5.41068 4.86205 5.35265V4.8438C4.86205 2.35536 6.88611 0.331299 9.37455 0.331299H12.4995C12.7483 0.331299 12.9495 0.532547 12.9495 0.781299V1.93501C14.1899 2.14945 15.137 3.23074 15.137 4.53192V5.35265C15.3184 5.41068 15.4495 5.58051 15.4495 5.7813V7.0313C15.4495 7.23208 15.3184 7.40192 15.137 7.45995V8.28161C15.137 10.1502 14.1315 11.7847 12.6374 12.6832L12.6376 13.7685L14.0624 13.7691C14.0624 13.7691 14.0623 13.7691 14.0624 13.7691C14.3303 13.7691 14.5878 13.8078 14.833 13.8746C14.8339 13.8748 14.8349 13.875 14.836 13.8752C14.8378 13.8756 14.84 13.8761 14.8422 13.8767C14.8453 13.8775 14.8489 13.8785 14.8529 13.8798C16.0962 14.2264 17.0127 15.3658 17.0127 16.7191V19.2182C17.0127 19.4669 16.8114 19.6682 16.5627 19.6682C16.3139 19.6682 16.1127 19.4669 16.1127 19.2182V16.7191C16.1127 15.9843 15.7224 15.3394 15.1383 14.9778V19.2188C15.1383 19.4676 14.937 19.6688 14.6883 19.6688C14.4395 19.6688 14.2383 19.4676 14.2383 19.2188V14.6783ZM11.8749 13.5938V12.9135C11.8293 12.932 11.7835 12.9498 11.7374 12.967C11.1959 13.1688 10.6109 13.2816 9.99986 13.2816C9.38882 13.2816 8.80406 13.1691 8.26267 12.9671C8.21652 12.9499 8.17068 12.932 8.12517 12.9135V14.2191C8.12517 14.3919 7.98517 14.5316 7.81236 14.5316V15.1551C7.81236 16.3613 8.79392 17.3429 9.99986 17.3429C11.2058 17.3429 12.1874 16.3613 12.1874 15.1551V14.531C12.0149 14.5307 11.8752 14.3913 11.8752 14.2185V13.5954L11.8749 13.5938ZM11.7377 13.609L11.7374 13.6074V13.1135C11.1947 13.3097 10.6099 13.4191 9.99986 13.4191C9.38983 13.4191 8.80534 13.31 8.26267 13.1136V14.2191C8.26267 14.42 8.13125 14.5898 7.94986 14.6478V15.1551C7.94986 16.2854 8.86987 17.2054 9.99986 17.2054C11.1298 17.2054 12.0499 16.2854 12.0499 15.1551V14.647C11.8688 14.5888 11.7377 14.4194 11.7377 14.2185V13.609ZM5.44986 6.2313V6.5813H14.5499V6.2313H5.44986ZM9.37486 1.2313C7.38299 1.2313 5.76236 2.85193 5.76236 4.8438V5.3313H14.2374V4.53192C14.2374 3.5738 13.458 2.79442 12.4999 2.79442C12.2511 2.79442 12.0499 2.59318 12.0499 2.34442V1.2313H9.37486ZM5.76236 7.4813V8.28161C5.76236 10.6182 7.6633 12.5191 9.99986 12.5191C12.3364 12.5191 14.2374 10.6182 14.2374 8.28161V7.4813H5.76236ZM5.31236 6.7188H14.6874V6.0938H5.31236V6.7188ZM9.37486 1.0938C7.30705 1.0938 5.62486 2.77599 5.62486 4.8438V5.4688H14.3749V4.53192C14.3749 3.49786 13.5339 2.65692 12.4999 2.65692C12.327 2.65692 12.1874 2.51724 12.1874 2.34442V1.0938H9.37486ZM5.62486 8.28161C5.62486 10.6941 7.58736 12.6566 9.99986 12.6566C12.4124 12.6566 14.3749 10.6941 14.3749 8.28161V7.3438H5.62486V8.28161Z"/>
</mask>
<path fill-rule="evenodd" clip-rule="evenodd" d="M14.0627 14.5316L12.8124 14.5313V15.1551C12.8124 16.706 11.5508 17.9679 9.99986 17.9679C8.44892 17.9679 7.18736 16.706 7.18736 15.1551V14.5316L5.93767 14.5313C5.83111 14.5313 5.72736 14.5416 5.62486 14.5563V19.2188C5.62486 19.3916 5.48517 19.5313 5.31236 19.5313C5.13955 19.5313 4.99986 19.3916 4.99986 19.2188V14.7457C4.95309 14.768 4.90724 14.7919 4.86236 14.8174C4.19946 15.1933 3.75017 15.904 3.75017 16.7188L3.75048 19.2182C3.75048 19.3907 3.6108 19.5307 3.43798 19.5307C3.26548 19.5307 3.12548 19.391 3.12548 19.2182L3.12517 16.7188C3.12517 15.1679 4.38673 13.9063 5.93767 13.9063L7.49986 13.9066V13.5954L7.49955 13.5938V12.6051C6.00767 11.7388 4.99955 10.1272 4.99955 8.28161V7.3438C4.82673 7.3438 4.68705 7.20411 4.68705 7.0313V5.7813C4.68705 5.60849 4.82673 5.4688 4.99955 5.4688V4.8438C4.99955 2.4313 6.96205 0.468799 9.37455 0.468799H12.4995C12.6724 0.468799 12.812 0.608486 12.812 0.781299V2.05349C14.0433 2.20817 14.9995 3.25942 14.9995 4.53192V5.4688C15.1724 5.4688 15.312 5.60849 15.312 5.7813V7.0313C15.312 7.20411 15.1724 7.3438 14.9995 7.3438V8.28161C14.9995 10.1272 13.9914 11.7388 12.4999 12.6047L12.5002 13.906L14.0624 13.9066C14.3174 13.9066 14.563 13.9435 14.798 14.0076C14.8024 14.0091 14.807 14.0091 14.8114 14.011C15.9995 14.3401 16.8752 15.4279 16.8752 16.7191V19.2182C16.8752 19.391 16.7355 19.5307 16.5627 19.5307C16.3899 19.5307 16.2502 19.391 16.2502 19.2182V16.7191C16.2502 15.9043 15.8009 15.1939 15.1383 14.818C15.0934 14.7925 15.0476 14.7686 15.0008 14.7463V19.2188C15.0008 19.3916 14.8611 19.5313 14.6883 19.5313C14.5155 19.5313 14.3758 19.3916 14.3758 19.2188V14.5566C14.2733 14.5419 14.1692 14.5316 14.0627 14.5316ZM14.2383 14.6783C14.1797 14.6725 14.1213 14.6691 14.0627 14.6691L12.9499 14.6688V15.1551C12.9499 16.7819 11.6268 18.1054 9.99986 18.1054C8.37296 18.1054 7.04986 16.7819 7.04986 15.1551V14.6691L5.93767 14.6688C5.93766 14.6688 5.93768 14.6688 5.93767 14.6688C5.87909 14.6688 5.82084 14.6722 5.76236 14.678V19.2188C5.76236 19.4676 5.56111 19.6688 5.31236 19.6688C5.06361 19.6688 4.86236 19.4676 4.86236 19.2188V14.9772C4.27795 15.3387 3.88767 15.9839 3.88767 16.7188L3.88798 19.2182C3.88798 19.4665 3.68682 19.6682 3.43798 19.6682C3.18963 19.6682 2.98798 19.467 2.98798 19.2182L2.98767 16.7188C2.98767 15.0919 4.31079 13.7688 5.93767 13.7688L7.36236 13.7691V13.609L7.36205 13.6074V12.6835C5.86758 11.7847 4.86205 10.1503 4.86205 8.28161V7.45995C4.68066 7.40192 4.54955 7.23208 4.54955 7.0313V5.7813C4.54955 5.58051 4.68066 5.41068 4.86205 5.35265V4.8438C4.86205 2.35536 6.88611 0.331299 9.37455 0.331299H12.4995C12.7483 0.331299 12.9495 0.532547 12.9495 0.781299V1.93501C14.1899 2.14945 15.137 3.23074 15.137 4.53192V5.35265C15.3184 5.41068 15.4495 5.58051 15.4495 5.7813V7.0313C15.4495 7.23208 15.3184 7.40192 15.137 7.45995V8.28161C15.137 10.1502 14.1315 11.7847 12.6374 12.6832L12.6376 13.7685L14.0624 13.7691C14.0624 13.7691 14.0623 13.7691 14.0624 13.7691C14.3303 13.7691 14.5878 13.8078 14.833 13.8746C14.8339 13.8748 14.8349 13.875 14.836 13.8752C14.8378 13.8756 14.84 13.8761 14.8422 13.8767C14.8453 13.8775 14.8489 13.8785 14.8529 13.8798C16.0962 14.2264 17.0127 15.3658 17.0127 16.7191V19.2182C17.0127 19.4669 16.8114 19.6682 16.5627 19.6682C16.3139 19.6682 16.1127 19.4669 16.1127 19.2182V16.7191C16.1127 15.9843 15.7224 15.3394 15.1383 14.9778V19.2188C15.1383 19.4676 14.937 19.6688 14.6883 19.6688C14.4395 19.6688 14.2383 19.4676 14.2383 19.2188V14.6783ZM11.8749 13.5938V12.9135C11.8293 12.932 11.7835 12.9498 11.7374 12.967C11.1959 13.1688 10.6109 13.2816 9.99986 13.2816C9.38882 13.2816 8.80406 13.1691 8.26267 12.9671C8.21652 12.9499 8.17068 12.932 8.12517 12.9135V14.2191C8.12517 14.3919 7.98517 14.5316 7.81236 14.5316V15.1551C7.81236 16.3613 8.79392 17.3429 9.99986 17.3429C11.2058 17.3429 12.1874 16.3613 12.1874 15.1551V14.531C12.0149 14.5307 11.8752 14.3913 11.8752 14.2185V13.5954L11.8749 13.5938ZM11.7377 13.609L11.7374 13.6074V13.1135C11.1947 13.3097 10.6099 13.4191 9.99986 13.4191C9.38983 13.4191 8.80534 13.31 8.26267 13.1136V14.2191C8.26267 14.42 8.13125 14.5898 7.94986 14.6478V15.1551C7.94986 16.2854 8.86987 17.2054 9.99986 17.2054C11.1298 17.2054 12.0499 16.2854 12.0499 15.1551V14.647C11.8688 14.5888 11.7377 14.4194 11.7377 14.2185V13.609ZM5.44986 6.2313V6.5813H14.5499V6.2313H5.44986ZM9.37486 1.2313C7.38299 1.2313 5.76236 2.85193 5.76236 4.8438V5.3313H14.2374V4.53192C14.2374 3.5738 13.458 2.79442 12.4999 2.79442C12.2511 2.79442 12.0499 2.59318 12.0499 2.34442V1.2313H9.37486ZM5.76236 7.4813V8.28161C5.76236 10.6182 7.6633 12.5191 9.99986 12.5191C12.3364 12.5191 14.2374 10.6182 14.2374 8.28161V7.4813H5.76236ZM5.31236 6.7188H14.6874V6.0938H5.31236V6.7188ZM9.37486 1.0938C7.30705 1.0938 5.62486 2.77599 5.62486 4.8438V5.4688H14.3749V4.53192C14.3749 3.49786 13.5339 2.65692 12.4999 2.65692C12.327 2.65692 12.1874 2.51724 12.1874 2.34442V1.0938H9.37486ZM5.62486 8.28161C5.62486 10.6941 7.58736 12.6566 9.99986 12.6566C12.4124 12.6566 14.3749 10.6941 14.3749 8.28161V7.3438H5.62486V8.28161Z" fill="#A9C530"/>
<path d="M14.0627 14.5316L14.0626 14.6316H14.0627V14.5316ZM12.8124 14.5313L12.8124 14.4313L12.7124 14.4313V14.5313H12.8124ZM7.18736 14.5316H7.28736V14.4316L7.18738 14.4316L7.18736 14.5316ZM5.93767 14.5313L5.9377 14.4313H5.93767V14.5313ZM5.62486 14.5563L5.61067 14.4573L5.52486 14.4696V14.5563H5.62486ZM4.99986 14.7457H5.09986V14.5872L4.9568 14.6554L4.99986 14.7457ZM4.86236 14.8174L4.81303 14.7304H4.81303L4.86236 14.8174ZM3.75017 16.7188H3.65017V16.7188L3.75017 16.7188ZM3.75048 19.2182H3.85048V19.2182L3.75048 19.2182ZM3.12548 19.2182H3.22548L3.22548 19.2182L3.12548 19.2182ZM3.12517 16.7188H3.02517V16.7188L3.12517 16.7188ZM5.93767 13.9063L5.93769 13.8063H5.93767V13.9063ZM7.49986 13.9066L7.49984 14.0066L7.59986 14.0066V13.9066H7.49986ZM7.49986 13.5954H7.59986V13.5855L7.59791 13.5757L7.49986 13.5954ZM7.49955 13.5938H7.39955V13.6037L7.40149 13.6134L7.49955 13.5938ZM7.49955 12.6051H7.59955V12.5475L7.54976 12.5186L7.49955 12.6051ZM4.99955 7.3438H5.09955V7.2438H4.99955V7.3438ZM4.99955 5.4688V5.5688H5.09955V5.4688H4.99955ZM12.812 2.05349H12.712V2.14171L12.7996 2.15271L12.812 2.05349ZM14.9995 5.4688H14.8995V5.5688H14.9995V5.4688ZM14.9995 7.3438V7.2438H14.8995V7.3438H14.9995ZM12.4999 12.6047L12.4496 12.5183L12.3998 12.5472L12.3999 12.6048L12.4999 12.6047ZM12.5002 13.906L12.4002 13.906L12.4002 14.0059L12.5001 14.006L12.5002 13.906ZM14.0624 13.9066L14.0623 14.0066H14.0624V13.9066ZM14.798 14.0076L14.8317 13.9131L14.8243 13.9111L14.798 14.0076ZM14.8114 14.011L14.7717 14.1037L14.7847 14.1074L14.8114 14.011ZM15.1383 14.818L15.089 14.905L15.1383 14.818ZM15.0008 14.7463L15.0439 14.6561L14.9008 14.5878V14.7463H15.0008ZM14.3758 14.5566H14.4758V14.4699L14.39 14.4576L14.3758 14.5566ZM14.0627 14.6691L14.0626 14.7691H14.0627V14.6691ZM14.2383 14.6783H14.3383V14.5876L14.2481 14.5788L14.2383 14.6783ZM12.9499 14.6688L12.9499 14.5688L12.8499 14.5688V14.6688H12.9499ZM7.04986 14.6691H7.14986V14.5691L7.04988 14.5691L7.04986 14.6691ZM5.76236 14.678L5.75255 14.5784L5.66236 14.5873V14.678H5.76236ZM4.86236 14.9772H4.96236V14.7977L4.80974 14.8921L4.86236 14.9772ZM3.88767 16.7188H3.78767V16.7188L3.88767 16.7188ZM3.88798 19.2182H3.98798V19.2182L3.88798 19.2182ZM2.98798 19.2182H3.08798V19.2182L2.98798 19.2182ZM2.98767 16.7188H2.88767V16.7188L2.98767 16.7188ZM5.93767 13.7688L5.93769 13.6688H5.93767V13.7688ZM7.36236 13.7691L7.36234 13.8691L7.46236 13.8691V13.7691H7.36236ZM7.36236 13.609H7.46236V13.5991L7.46041 13.5894L7.36236 13.609ZM7.36205 13.6074H7.26205V13.6173L7.26399 13.6271L7.36205 13.6074ZM7.36205 12.6835H7.46205V12.627L7.41358 12.5978L7.36205 12.6835ZM4.86205 7.45995H4.96205V7.38695L4.89252 7.36471L4.86205 7.45995ZM4.86205 5.35265L4.89252 5.44789L4.96205 5.42565V5.35265H4.86205ZM12.9495 1.93501H12.8495V2.01921L12.9325 2.03355L12.9495 1.93501ZM15.137 5.35265H15.037V5.42565L15.1066 5.44789L15.137 5.35265ZM15.137 7.45995L15.1066 7.36471L15.037 7.38695V7.45995H15.137ZM12.6374 12.6832L12.5858 12.5975L12.5374 12.6266L12.5374 12.6832L12.6374 12.6832ZM12.6376 13.7685L12.5376 13.7686L12.5377 13.8685L12.6376 13.8685L12.6376 13.7685ZM14.833 13.8746L14.8067 13.9713L14.8132 13.9726L14.833 13.8746ZM14.836 13.8752L14.8147 13.9729L14.8147 13.9729L14.836 13.8752ZM14.8422 13.8767L14.8671 13.7798L14.8671 13.7798L14.8422 13.8767ZM14.8529 13.8798L14.8215 13.9749L14.826 13.9761L14.8529 13.8798ZM15.1383 14.9778L15.1909 14.8928L15.0383 14.7983V14.9778H15.1383ZM11.8749 13.5938H11.7749V13.6037L11.7768 13.6134L11.8749 13.5938ZM11.8749 12.9135H11.9749V12.7649L11.8372 12.8208L11.8749 12.9135ZM11.7374 12.967L11.7723 13.0607H11.7723L11.7374 12.967ZM8.26267 12.9671L8.29763 12.8734H8.29763L8.26267 12.9671ZM8.12517 12.9135L8.16284 12.8209L8.02517 12.7649V12.9135H8.12517ZM7.81236 14.5316V14.4316H7.71236V14.5316H7.81236ZM12.1874 14.531H12.2874V14.4312L12.1875 14.431L12.1874 14.531ZM11.8752 13.5954H11.9752V13.5855L11.9732 13.5757L11.8752 13.5954ZM11.7374 13.6074H11.6374V13.6173L11.6393 13.627L11.7374 13.6074ZM11.7377 13.609H11.8377V13.5991L11.8357 13.5894L11.7377 13.609ZM11.7374 13.1135H11.8374V12.971L11.7034 13.0195L11.7374 13.1135ZM8.26267 13.1136L8.29671 13.0196L8.16267 12.971V13.1136H8.26267ZM7.94986 14.6478L7.9194 14.5525L7.84986 14.5748V14.6478H7.94986ZM12.0499 14.647H12.1499V14.5741L12.0804 14.5518L12.0499 14.647ZM5.44986 6.5813H5.34986V6.6813H5.44986V6.5813ZM5.44986 6.2313V6.1313H5.34986V6.2313H5.44986ZM14.5499 6.5813V6.6813H14.6499V6.5813H14.5499ZM14.5499 6.2313H14.6499V6.1313H14.5499V6.2313ZM5.76236 5.3313H5.66236V5.4313H5.76236V5.3313ZM14.2374 5.3313V5.4313H14.3374V5.3313H14.2374ZM12.0499 1.2313H12.1499V1.1313H12.0499V1.2313ZM5.76236 7.4813V7.3813H5.66236V7.4813H5.76236ZM14.2374 7.4813H14.3374V7.3813H14.2374V7.4813ZM5.31236 6.7188H5.21236V6.8188H5.31236V6.7188ZM14.6874 6.7188V6.8188H14.7874V6.7188H14.6874ZM14.6874 6.0938H14.7874V5.9938H14.6874V6.0938ZM5.31236 6.0938V5.9938H5.21236V6.0938H5.31236ZM5.62486 5.4688H5.52486V5.5688H5.62486V5.4688ZM14.3749 5.4688V5.5688H14.4749V5.4688H14.3749ZM12.1874 1.0938H12.2874V0.993799H12.1874V1.0938ZM14.3749 7.3438H14.4749V7.2438H14.3749V7.3438ZM5.62486 7.3438V7.2438H5.52486V7.3438H5.62486ZM9.99986 18.0679C11.606 18.0679 12.9124 16.7612 12.9124 15.1551H12.7124C12.7124 16.6508 11.4956 17.8679 9.99986 17.8679V18.0679ZM7.08736 15.1551C7.08736 16.7612 8.39368 18.0679 9.99986 18.0679V17.8679C8.50416 17.8679 7.28736 16.6508 7.28736 15.1551H7.08736ZM7.08736 14.5316V15.1551H7.28736V14.5316H7.08736ZM5.93765 14.6313L7.18733 14.6316L7.18738 14.4316L5.9377 14.4313L5.93765 14.6313ZM5.63904 14.6553C5.73879 14.641 5.83748 14.6313 5.93767 14.6313V14.4313C5.82474 14.4313 5.71593 14.4422 5.61067 14.4573L5.63904 14.6553ZM5.72486 19.2188V14.5563H5.52486V19.2188H5.72486ZM5.31236 19.6313C5.5404 19.6313 5.72486 19.4468 5.72486 19.2188H5.52486C5.52486 19.3364 5.42994 19.4313 5.31236 19.4313V19.6313ZM4.89986 19.2188C4.89986 19.4468 5.08432 19.6313 5.31236 19.6313V19.4313C5.19477 19.4313 5.09986 19.3364 5.09986 19.2188H4.89986ZM4.91169 14.9043C4.95453 14.88 4.99829 14.8572 5.04292 14.8359L4.9568 14.6554C4.9079 14.6788 4.85995 14.7038 4.81303 14.7304L4.91169 14.9043ZM3.85017 16.7188C3.85017 15.9417 4.27857 15.2634 4.91169 14.9043L4.81303 14.7304C4.12035 15.1232 3.65017 15.8662 3.65017 16.7188H3.85017ZM3.85048 19.2182L3.85017 16.7188L3.65017 16.7188L3.65048 19.2182L3.85048 19.2182ZM3.43798 19.6307C3.66609 19.6307 3.85048 19.4458 3.85048 19.2182H3.65048C3.65048 19.3355 3.5555 19.4307 3.43798 19.4307V19.6307ZM3.02548 19.2182C3.02548 19.4463 3.21032 19.6307 3.43798 19.6307V19.4307C3.32065 19.4307 3.22548 19.3357 3.22548 19.2182H3.02548ZM3.02517 16.7188L3.02548 19.2182L3.22548 19.2182L3.22517 16.7188L3.02517 16.7188ZM5.93767 13.8063C4.33151 13.8063 3.02517 15.1126 3.02517 16.7188H3.22517C3.22517 15.2231 4.44196 14.0063 5.93767 14.0063V13.8063ZM7.40149 13.6134L7.4018 13.615L7.59791 13.5757L7.5976 13.5742L7.40149 13.6134ZM7.39955 12.6051V13.5938H7.59955V12.6051H7.39955ZM4.89955 8.28161C4.89955 10.1646 5.92818 11.8083 7.44933 12.6915L7.54976 12.5186C6.08716 11.6693 5.09955 10.0899 5.09955 8.28161H4.89955ZM4.58705 7.0313C4.58705 7.25934 4.7715 7.4438 4.99955 7.4438V7.2438C4.88196 7.2438 4.78705 7.14888 4.78705 7.0313H4.58705ZM4.58705 5.7813V7.0313H4.78705V5.7813H4.58705ZM4.99955 5.3688C4.7715 5.3688 4.58705 5.55326 4.58705 5.7813H4.78705C4.78705 5.66372 4.88196 5.5688 4.99955 5.5688V5.3688ZM9.37455 0.368799C6.90682 0.368799 4.89955 2.37607 4.89955 4.8438H5.09955C5.09955 2.48653 7.01727 0.568799 9.37455 0.568799V0.368799ZM12.4995 0.368799H9.37455V0.568799H12.4995V0.368799ZM12.912 0.781299C12.912 0.553258 12.7276 0.368799 12.4995 0.368799V0.568799C12.6171 0.568799 12.712 0.663715 12.712 0.781299H12.912ZM12.912 2.05349V0.781299H12.712V2.05349H12.912ZM15.0995 4.53192C15.0995 3.20818 14.1049 2.11513 12.8245 1.95427L12.7996 2.15271C13.9817 2.30122 14.8995 3.31067 14.8995 4.53192H15.0995ZM15.412 5.7813C15.412 5.55326 15.2276 5.3688 14.9995 5.3688V5.5688C15.1171 5.5688 15.212 5.66372 15.212 5.7813H15.412ZM15.412 7.0313V5.7813H15.212V7.0313H15.412ZM14.9995 7.4438C15.2276 7.4438 15.412 7.25934 15.412 7.0313H15.212C15.212 7.14888 15.1171 7.2438 14.9995 7.2438V7.4438ZM12.5501 12.6912C14.0709 11.8083 15.0995 10.1646 15.0995 8.28161H14.8995C14.8995 10.0899 13.9119 11.6693 12.4496 12.5183L12.5501 12.6912ZM12.6002 13.906L12.5999 12.6047L12.3999 12.6048L12.4002 13.906L12.6002 13.906ZM14.8243 13.9111C14.5816 13.8449 14.3271 13.8066 14.0624 13.8066V14.0066C14.3076 14.0066 14.5444 14.0421 14.7717 14.104L14.8243 13.9111ZM14.8508 13.9191C14.8438 13.9161 14.8376 13.9142 14.8329 13.913C14.8285 13.9119 14.8247 13.9112 14.8233 13.9109C14.821 13.9105 14.8221 13.9107 14.8229 13.9109C14.8243 13.9111 14.8275 13.9119 14.8316 13.9134L14.7644 14.1017C14.7707 14.104 14.7761 14.1053 14.7797 14.1061C14.7815 14.1065 14.783 14.1068 14.784 14.107C14.7846 14.1071 14.785 14.1072 14.7853 14.1073C14.7857 14.1073 14.7859 14.1074 14.7861 14.1074C14.7869 14.1076 14.7854 14.1073 14.7832 14.1067C14.7809 14.1061 14.7769 14.105 14.772 14.1029L14.8508 13.9191ZM16.9752 16.7191C16.9752 15.3815 16.0682 14.2553 14.8381 13.9146L14.7847 14.1074C15.9309 14.4248 16.7752 15.4742 16.7752 16.7191H16.9752ZM16.9752 19.2182V16.7191H16.7752V19.2182H16.9752ZM16.5627 19.6307C16.7907 19.6307 16.9752 19.4462 16.9752 19.2182H16.7752C16.7752 19.3358 16.6803 19.4307 16.5627 19.4307V19.6307ZM16.1502 19.2182C16.1502 19.4462 16.3346 19.6307 16.5627 19.6307V19.4307C16.4451 19.4307 16.3502 19.3358 16.3502 19.2182H16.1502ZM16.1502 16.7191V19.2182H16.3502V16.7191H16.1502ZM15.089 14.905C15.7218 15.264 16.1502 15.942 16.1502 16.7191H16.3502C16.3502 15.8666 15.88 15.1238 15.1876 14.731L15.089 14.905ZM14.9577 14.8365C15.0023 14.8578 15.0461 14.8807 15.089 14.905L15.1876 14.731C15.1407 14.7044 15.0928 14.6794 15.0439 14.6561L14.9577 14.8365ZM14.6883 19.6313C14.9163 19.6313 15.1008 19.4468 15.1008 19.2188H14.9008C14.9008 19.3364 14.8059 19.4313 14.6883 19.4313V19.6313ZM14.2758 19.2188C14.2758 19.4468 14.4603 19.6313 14.6883 19.6313V19.4313C14.5707 19.4313 14.4758 19.3364 14.4758 19.2188H14.2758ZM14.2758 14.5566V19.2188H14.4758V14.5566H14.2758ZM14.0627 14.6316C14.1629 14.6316 14.2619 14.6413 14.3616 14.6556L14.39 14.4576C14.2847 14.4425 14.1756 14.4316 14.0627 14.4316V14.6316ZM14.0627 14.7691C14.1174 14.7691 14.1725 14.7723 14.2285 14.7778L14.2481 14.5788C14.1869 14.5727 14.1252 14.5691 14.0627 14.5691V14.7691ZM13.0499 15.1551V14.6688H12.8499V15.1551H13.0499ZM9.99986 18.2054C11.682 18.2054 13.0499 16.8371 13.0499 15.1551H12.8499C12.8499 16.7267 11.5715 18.0054 9.99986 18.0054V18.2054ZM6.94986 15.1551C6.94986 16.8371 8.31772 18.2054 9.99986 18.2054V18.0054C8.42821 18.0054 7.14986 16.7267 7.14986 15.1551H6.94986ZM6.94986 14.6691V15.1551H7.14986V14.6691H6.94986ZM5.93765 14.7688L7.04983 14.7691L7.04988 14.5691L5.9377 14.5688L5.93765 14.7688ZM5.93767 14.7688C5.93767 14.7688 5.93767 14.7688 5.93767 14.7688C5.93767 14.7688 5.93767 14.7688 5.93767 14.7688C5.93767 14.7688 5.93767 14.7688 5.93767 14.7688C5.93767 14.7688 5.93767 14.7688 5.93767 14.7688C5.93767 14.7688 5.93767 14.7688 5.93767 14.7688H5.93767C5.93767 14.7688 5.93767 14.7688 5.93767 14.7688H5.93767C5.93767 14.7688 5.93767 14.7688 5.93767 14.7688C5.93767 14.7688 5.93767 14.7688 5.93767 14.7688C5.93767 14.7688 5.93767 14.7688 5.93767 14.7688C5.93767 14.7688 5.93767 14.7688 5.93767 14.7688C5.93767 14.7688 5.93767 14.7688 5.93767 14.7688C5.93767 14.6688 5.93767 14.5688 5.93767 14.5688H5.93767C5.93767 14.5688 5.93767 14.5688 5.93767 14.5688H5.93767H5.93767C5.93767 14.5688 5.93767 14.5688 5.93767 14.5688C5.93767 14.5688 5.93767 14.5688 5.93767 14.5688C5.93767 14.5688 5.93767 14.5688 5.93767 14.5688C5.93767 14.5688 5.93767 14.5688 5.93767 14.5688C5.93767 14.5688 5.93767 14.5688 5.93767 14.5688C5.93767 14.5688 5.93767 14.5688 5.93767 14.5688H5.93767C5.93767 14.5688 5.93767 14.5688 5.93767 14.5688C5.93767 14.5688 5.93767 14.5688 5.93767 14.5688C5.93767 14.5688 5.93767 14.5688 5.93767 14.5688C5.93767 14.5688 5.93767 14.5688 5.93767 14.5688H5.93767C5.93767 14.5688 5.93767 14.5688 5.93767 14.5688C5.93767 14.5688 5.93767 14.5688 5.93767 14.5688C5.93767 14.5688 5.93767 14.5688 5.93767 14.5688C5.93767 14.5688 5.93767 14.5688 5.93767 14.5688C5.93767 14.5688 5.93767 14.5688 5.93767 14.5688C5.93767 14.5688 5.93767 14.5688 5.93767 14.5688H5.93767H5.93767C5.93767 14.5688 5.93767 14.5688 5.93767 14.5688H5.93767C5.93767 14.5688 5.93767 14.6688 5.93767 14.7688C5.93767 14.7688 5.93767 14.7688 5.93767 14.7688C5.93767 14.7688 5.93767 14.7688 5.93767 14.7688C5.93767 14.7688 5.93767 14.7688 5.93767 14.7688C5.93767 14.7688 5.93767 14.7688 5.93767 14.7688C5.93767 14.7688 5.93767 14.7688 5.93767 14.7688H5.93767C5.93767 14.7688 5.93767 14.7688 5.93767 14.7688H5.93767C5.93767 14.7688 5.93767 14.7688 5.93767 14.7688C5.93767 14.7688 5.93767 14.7688 5.93767 14.7688C5.93767 14.7688 5.93767 14.7688 5.93767 14.7688C5.93767 14.7688 5.93767 14.7688 5.93767 14.7688C5.93767 14.7688 5.93767 14.7688 5.93767 14.7688V14.5688C5.93767 14.5688 5.93767 14.5688 5.93767 14.5688C5.93767 14.5688 5.93767 14.5688 5.93767 14.5688C5.93767 14.5688 5.93767 14.5688 5.93767 14.5688C5.93767 14.5688 5.93767 14.5688 5.93767 14.5688C5.93767 14.5688 5.93767 14.5688 5.93767 14.5688H5.93767C5.93767 14.5688 5.93767 14.5688 5.93767 14.5688H5.93767C5.93767 14.5688 5.93767 14.5688 5.93767 14.5688C5.93767 14.5688 5.93767 14.5688 5.93767 14.5688C5.93767 14.5688 5.93767 14.5688 5.93767 14.5688C5.93767 14.5688 5.93767 14.5688 5.93767 14.5688C5.93767 14.5688 5.93767 14.5688 5.93767 14.5688C5.93767 14.6688 5.93767 14.7688 5.93767 14.7688H5.93767C5.93767 14.7688 5.93767 14.7688 5.93767 14.7688H5.93767H5.93767C5.93767 14.7688 5.93767 14.7688 5.93767 14.7688C5.93767 14.7688 5.93767 14.7688 5.93767 14.7688C5.93767 14.7688 5.93767 14.7688 5.93767 14.7688C5.93767 14.7688 5.93767 14.7688 5.93767 14.7688C5.93767 14.7688 5.93767 14.7688 5.93767 14.7688C5.93767 14.7688 5.93767 14.7688 5.93767 14.7688H5.93767C5.93767 14.7688 5.93767 14.7688 5.93767 14.7688C5.93767 14.7688 5.93767 14.7688 5.93767 14.7688C5.93767 14.7688 5.93767 14.7688 5.93767 14.7688C5.93767 14.7688 5.93767 14.7688 5.93767 14.7688H5.93767C5.93767 14.7688 5.93767 14.7688 5.93767 14.7688C5.93767 14.7688 5.93767 14.7688 5.93767 14.7688C5.93767 14.7688 5.93767 14.7688 5.93767 14.7688C5.93767 14.7688 5.93767 14.7688 5.93767 14.7688C5.93767 14.7688 5.93767 14.7688 5.93767 14.7688C5.93767 14.7688 5.93767 14.7688 5.93767 14.7688H5.93767H5.93767C5.93767 14.7688 5.93767 14.7688 5.93767 14.7688H5.93767C5.93767 14.7688 5.93767 14.6688 5.93767 14.5688C5.93767 14.5688 5.93767 14.5688 5.93767 14.5688C5.93767 14.5688 5.93767 14.5688 5.93767 14.5688C5.93767 14.5688 5.93767 14.5688 5.93767 14.5688C5.93767 14.5688 5.93767 14.5688 5.93767 14.5688C5.93767 14.5688 5.93767 14.5688 5.93767 14.5688H5.93767C5.93767 14.5688 5.93767 14.5688 5.93767 14.5688H5.93767C5.93767 14.5688 5.93767 14.5688 5.93767 14.5688C5.93767 14.5688 5.93767 14.5688 5.93767 14.5688C5.93767 14.5688 5.93767 14.5688 5.93767 14.5688C5.93767 14.5688 5.93767 14.5688 5.93767 14.5688C5.93767 14.5688 5.93767 14.5688 5.93767 14.5688V14.7688ZM5.77217 14.7775C5.82803 14.772 5.88295 14.7688 5.93767 14.7688V14.5688C5.87523 14.5688 5.81365 14.5724 5.75255 14.5784L5.77217 14.7775ZM5.86236 19.2188V14.678H5.66236V19.2188H5.86236ZM5.31236 19.7688C5.61634 19.7688 5.86236 19.5228 5.86236 19.2188H5.66236C5.66236 19.4123 5.50588 19.5688 5.31236 19.5688V19.7688ZM4.76236 19.2188C4.76236 19.5228 5.00838 19.7688 5.31236 19.7688V19.5688C5.11884 19.5688 4.96236 19.4123 4.96236 19.2188H4.76236ZM4.76236 14.9772V19.2188H4.96236V14.9772H4.76236ZM3.98767 16.7188C3.98767 16.0202 4.35856 15.4065 4.91497 15.0622L4.80974 14.8921C4.19734 15.271 3.78767 15.9476 3.78767 16.7188H3.98767ZM3.98798 19.2182L3.98767 16.7188L3.78767 16.7188L3.78798 19.2182L3.98798 19.2182ZM3.43798 19.7682C3.74212 19.7682 3.98798 19.5217 3.98798 19.2182H3.78798C3.78798 19.4114 3.63152 19.5682 3.43798 19.5682V19.7682ZM2.88798 19.2182C2.88798 19.5223 3.13448 19.7682 3.43798 19.7682V19.5682C3.24479 19.5682 3.08798 19.4117 3.08798 19.2182H2.88798ZM2.88767 16.7188L2.88798 19.2182L3.08798 19.2182L3.08767 16.7188L2.88767 16.7188ZM5.93767 13.6688C4.25557 13.6688 2.88767 15.0367 2.88767 16.7188H3.08767C3.08767 15.1472 4.36602 13.8688 5.93767 13.8688V13.6688ZM7.26236 13.609V13.7691H7.46236V13.609H7.26236ZM7.26399 13.6271L7.26431 13.6286L7.46041 13.5894L7.4601 13.5878L7.26399 13.6271ZM4.76205 8.28161C4.76205 10.1871 5.78749 11.8532 7.31051 12.7692L7.41358 12.5978C5.94767 11.7162 4.96205 10.1134 4.96205 8.28161H4.76205ZM4.76205 7.45995V8.28161H4.96205V7.45995H4.76205ZM4.44955 7.0313C4.44955 7.27677 4.60992 7.48428 4.83157 7.5552L4.89252 7.36471C4.7514 7.31956 4.64955 7.1874 4.64955 7.0313H4.44955ZM4.44955 5.7813V7.0313H4.64955V5.7813H4.44955ZM4.83157 5.2574C4.60992 5.32832 4.44955 5.53583 4.44955 5.7813H4.64955C4.64955 5.6252 4.7514 5.49304 4.89252 5.44789L4.83157 5.2574ZM4.76205 4.8438V5.35265H4.96205V4.8438H4.76205ZM9.37455 0.231299C6.83088 0.231299 4.76205 2.30013 4.76205 4.8438H4.96205C4.96205 2.41059 6.94133 0.431299 9.37455 0.431299V0.231299ZM12.4995 0.231299H9.37455V0.431299H12.4995V0.231299ZM13.0495 0.781299C13.0495 0.477319 12.8035 0.231299 12.4995 0.231299V0.431299C12.6931 0.431299 12.8495 0.587776 12.8495 0.781299H13.0495ZM13.0495 1.93501V0.781299H12.8495V1.93501H13.0495ZM15.237 4.53192C15.237 3.18104 14.2538 2.05903 12.9666 1.83647L12.9325 2.03355C14.1259 2.23988 15.037 3.28044 15.037 4.53192H15.237ZM15.237 5.35265V4.53192H15.037V5.35265H15.237ZM15.5495 5.7813C15.5495 5.53583 15.3892 5.32832 15.1675 5.2574L15.1066 5.44789C15.2477 5.49304 15.3495 5.6252 15.3495 5.7813H15.5495ZM15.5495 7.0313V5.7813H15.3495V7.0313H15.5495ZM15.1675 7.5552C15.3892 7.48428 15.5495 7.27677 15.5495 7.0313H15.3495C15.3495 7.1874 15.2477 7.31956 15.1066 7.36471L15.1675 7.5552ZM15.237 8.28161V7.45995H15.037V8.28161H15.237ZM12.6889 12.7689C14.2116 11.8532 15.237 10.1871 15.237 8.28161H15.037C15.037 10.1134 14.0514 11.7162 12.5858 12.5975L12.6889 12.7689ZM12.7376 13.7685L12.7374 12.6832L12.5374 12.6832L12.5376 13.7686L12.7376 13.7685ZM14.0624 13.6691L12.6377 13.6685L12.6376 13.8685L14.0623 13.8691L14.0624 13.6691ZM14.0624 13.6691H14.0624C14.0624 13.6691 14.0624 13.6691 14.0624 13.6691H14.0624H14.0624H14.0624C14.0624 13.7691 14.0624 13.8691 14.0624 13.8691C14.0624 13.8691 14.0624 13.8691 14.0624 13.8691H14.0624H14.0624C14.0624 13.8691 14.0624 13.8691 14.0624 13.8691C14.0624 13.8691 14.0624 13.8691 14.0624 13.8691C14.0624 13.8691 14.0624 13.8691 14.0624 13.8691C14.0624 13.8691 14.0624 13.8691 14.0624 13.8691H14.0624H14.0624C14.0624 13.8691 14.0624 13.8691 14.0624 13.8691C14.0624 13.8691 14.0624 13.7691 14.0624 13.6691H14.0624H14.0624H14.0624C14.0624 13.6691 14.0624 13.6691 14.0624 13.6691H14.0624V13.8691H14.0624C14.0624 13.8691 14.0624 13.8691 14.0624 13.8691H14.0624H14.0624H14.0624C14.0624 13.7691 14.0624 13.6691 14.0624 13.6691C14.0624 13.6691 14.0624 13.6691 14.0624 13.6691H14.0624H14.0624C14.0624 13.6691 14.0624 13.6691 14.0624 13.6691C14.0624 13.6691 14.0624 13.6691 14.0624 13.6691C14.0624 13.6691 14.0624 13.6691 14.0624 13.6691C14.0624 13.6691 14.0624 13.6691 14.0624 13.6691H14.0624H14.0624C14.0624 13.6691 14.0624 13.6691 14.0624 13.6691C14.0624 13.6691 14.0624 13.7691 14.0624 13.8691H14.0624H14.0624H14.0624C14.0624 13.8691 14.0624 13.8691 14.0624 13.8691H14.0624V13.6691ZM14.8593 13.7781C14.6063 13.7092 14.34 13.6691 14.0624 13.6691L14.0624 13.8691C14.3206 13.8691 14.5692 13.9064 14.8068 13.9711L14.8593 13.7781ZM14.8573 13.7775C14.8556 13.7771 14.8541 13.7768 14.8528 13.7766L14.8132 13.9726C14.8137 13.9727 14.8141 13.9728 14.8147 13.9729L14.8573 13.7775ZM14.8671 13.7798C14.8634 13.7789 14.86 13.7781 14.8572 13.7775L14.8147 13.9729C14.8156 13.9731 14.8165 13.9733 14.8174 13.9736L14.8671 13.7798ZM14.8842 13.7848C14.8777 13.7827 14.8719 13.7811 14.8671 13.7798L14.8174 13.9736C14.8187 13.9739 14.82 13.9743 14.8215 13.9748L14.8842 13.7848ZM17.1127 16.7191C17.1127 15.3195 16.1649 14.1417 14.8797 13.7835L14.826 13.9761C16.0275 14.3111 16.9127 15.4121 16.9127 16.7191H17.1127ZM17.1127 19.2182V16.7191H16.9127V19.2182H17.1127ZM16.5627 19.7682C16.8667 19.7682 17.1127 19.5222 17.1127 19.2182H16.9127C16.9127 19.4117 16.7562 19.5682 16.5627 19.5682V19.7682ZM16.0127 19.2182C16.0127 19.5222 16.2587 19.7682 16.5627 19.7682V19.5682C16.3691 19.5682 16.2127 19.4117 16.2127 19.2182H16.0127ZM16.0127 16.7191V19.2182H16.2127V16.7191H16.0127ZM15.0857 15.0628C15.6418 15.4071 16.0127 16.0206 16.0127 16.7191H16.2127C16.2127 15.9479 15.8031 15.2717 15.1909 14.8928L15.0857 15.0628ZM15.2383 19.2188V14.9778H15.0383V19.2188H15.2383ZM14.6883 19.7688C14.9923 19.7688 15.2383 19.5228 15.2383 19.2188H15.0383C15.0383 19.4123 14.8818 19.5688 14.6883 19.5688V19.7688ZM14.1383 19.2188C14.1383 19.5228 14.3843 19.7688 14.6883 19.7688V19.5688C14.4948 19.5688 14.3383 19.4123 14.3383 19.2188H14.1383ZM14.1383 14.6783V19.2188H14.3383V14.6783H14.1383ZM11.7723 13.0607C11.8193 13.0432 11.8661 13.025 11.9125 13.0061L11.8372 12.8208C11.7926 12.839 11.7477 12.8565 11.7024 12.8733L11.7723 13.0607ZM9.99986 13.3816C10.6233 13.3816 11.2201 13.2665 11.7723 13.0607L11.7024 12.8733C11.1717 13.0711 10.5985 13.1816 9.99986 13.1816V13.3816ZM8.22771 13.0608C8.77986 13.2668 9.37644 13.3816 9.99986 13.3816V13.1816C9.4012 13.1816 8.82825 13.0714 8.29763 12.8734L8.22771 13.0608ZM8.0875 13.0061C8.1339 13.025 8.18064 13.0432 8.22771 13.0608L8.29763 12.8734C8.25239 12.8565 8.20746 12.839 8.16284 12.8209L8.0875 13.0061ZM7.81236 14.6316C8.04027 14.6316 8.22517 14.4473 8.22517 14.2191H8.02517C8.02517 14.3366 7.93007 14.4316 7.81236 14.4316V14.6316ZM9.99986 17.2429C8.84916 17.2429 7.91236 16.3061 7.91236 15.1551H7.71236C7.71236 16.4165 8.73868 17.4429 9.99986 17.4429V17.2429ZM12.0874 15.1551C12.0874 16.3061 11.1506 17.2429 9.99986 17.2429V17.4429C11.261 17.4429 12.2874 16.4165 12.2874 15.1551H12.0874ZM11.7752 14.2185C11.7752 14.4466 11.9597 14.6306 12.1872 14.631L12.1875 14.431C12.07 14.4308 11.9752 14.336 11.9752 14.2185H11.7752ZM11.7752 13.5954V14.2185H11.9752V13.5954H11.7752ZM11.7768 13.6134L11.7771 13.615L11.9732 13.5757L11.9729 13.5742L11.7768 13.6134ZM11.6393 13.627L11.6396 13.6286L11.8357 13.5894L11.8354 13.5878L11.6393 13.627ZM9.99986 13.5191C10.622 13.5191 11.2182 13.4076 11.7714 13.2075L11.7034 13.0195C11.1711 13.2119 10.5979 13.3191 9.99986 13.3191V13.5191ZM8.22864 13.2076C8.78182 13.4078 9.37781 13.5191 9.99986 13.5191V13.3191C9.40185 13.3191 8.82886 13.2122 8.29671 13.0196L8.22864 13.2076ZM8.36267 14.2191V13.1136H8.16267V14.2191H8.36267ZM7.98032 14.743C8.20188 14.6722 8.36267 14.4648 8.36267 14.2191H8.16267C8.16267 14.3752 8.06062 14.5074 7.9194 14.5525L7.98032 14.743ZM8.04986 15.1551V14.6478H7.84986V15.1551H8.04986ZM9.99986 17.1054C8.92511 17.1054 8.04986 16.2302 8.04986 15.1551H7.84986C7.84986 16.3406 8.81464 17.3054 9.99986 17.3054V17.1054ZM11.9499 15.1551C11.9499 16.2302 11.0746 17.1054 9.99986 17.1054V17.3054C11.1851 17.3054 12.1499 16.3406 12.1499 15.1551H11.9499ZM11.9499 14.647V15.1551H12.1499V14.647H11.9499ZM11.6377 14.2185C11.6377 14.4641 11.7981 14.6712 12.0193 14.7422L12.0804 14.5518C11.9395 14.5065 11.8377 14.3746 11.8377 14.2185H11.6377ZM11.6377 13.609V14.2185H11.8377V13.609H11.6377ZM5.54986 6.5813V6.2313H5.34986V6.5813H5.54986ZM14.5499 6.4813H5.44986V6.6813H14.5499V6.4813ZM14.4499 6.2313V6.5813H14.6499V6.2313H14.4499ZM5.44986 6.3313H14.5499V6.1313H5.44986V6.3313ZM5.86236 4.8438C5.86236 2.90715 7.43821 1.3313 9.37486 1.3313V1.1313C7.32776 1.1313 5.66236 2.7967 5.66236 4.8438H5.86236ZM5.86236 5.3313V4.8438H5.66236V5.3313H5.86236ZM14.2374 5.2313H5.76236V5.4313H14.2374V5.2313ZM14.1374 4.53192V5.3313H14.3374V4.53192H14.1374ZM12.4999 2.89442C13.4028 2.89442 14.1374 3.62903 14.1374 4.53192H14.3374C14.3374 3.51857 13.5132 2.69442 12.4999 2.69442V2.89442ZM11.9499 2.34442C11.9499 2.6484 12.1959 2.89442 12.4999 2.89442V2.69442C12.3063 2.69442 12.1499 2.53795 12.1499 2.34442H11.9499ZM11.9499 1.2313V2.34442H12.1499V1.2313H11.9499ZM9.37486 1.3313H12.0499V1.1313H9.37486V1.3313ZM5.86236 8.28161V7.4813H5.66236V8.28161H5.86236ZM9.99986 12.4191C7.71853 12.4191 5.86236 10.5629 5.86236 8.28161H5.66236C5.66236 10.6734 7.60807 12.6191 9.99986 12.6191V12.4191ZM14.1374 8.28161C14.1374 10.5629 12.2812 12.4191 9.99986 12.4191V12.6191C12.3916 12.6191 14.3374 10.6734 14.3374 8.28161H14.1374ZM14.1374 7.4813V8.28161H14.3374V7.4813H14.1374ZM5.76236 7.5813H14.2374V7.3813H5.76236V7.5813ZM5.72486 4.8438C5.72486 2.83121 7.36227 1.1938 9.37486 1.1938V0.993799C7.25182 0.993799 5.52486 2.72076 5.52486 4.8438H5.72486ZM12.4999 2.75692C13.4787 2.75692 14.2749 3.55309 14.2749 4.53192H14.4749C14.4749 3.44263 13.5891 2.55692 12.4999 2.55692V2.75692ZM12.0874 2.34442C12.0874 2.57246 12.2718 2.75692 12.4999 2.75692V2.55692C12.3823 2.55692 12.2874 2.46201 12.2874 2.34442H12.0874ZM9.99986 12.5566C7.64259 12.5566 5.72486 10.6389 5.72486 8.28161H5.52486C5.52486 10.7493 7.53213 12.7566 9.99986 12.7566V12.5566ZM14.2749 8.28161C14.2749 10.6389 12.3571 12.5566 9.99986 12.5566V12.7566C12.4676 12.7566 14.4749 10.7493 14.4749 8.28161H14.2749ZM12.8123 14.6313L14.0626 14.6316L14.0627 14.4316L12.8124 14.4313L12.8123 14.6313ZM12.7124 14.5313V15.1551H12.9124V14.5313H12.7124ZM4.89986 14.7457V19.2188H5.09986V14.7457H4.89986ZM7.49988 13.8066L5.93769 13.8063L5.93765 14.0063L7.49984 14.0066L7.49988 13.8066ZM7.39986 13.5954V13.9066H7.59986V13.5954H7.39986ZM4.89955 7.3438V8.28161H5.09955V7.3438H4.89955ZM4.89955 4.8438V5.4688H5.09955V4.8438H4.89955ZM15.0995 5.4688V4.53192H14.8995V5.4688H15.0995ZM15.0995 8.28161V7.3438H14.8995V8.28161H15.0995ZM12.5001 14.006L14.0623 14.0066L14.0624 13.8066L12.5002 13.806L12.5001 14.006ZM15.1008 19.2188V14.7463H14.9008V19.2188H15.1008ZM12.9498 14.7688L14.0626 14.7691L14.0627 14.5691L12.9499 14.5688L12.9498 14.7688ZM7.36238 13.6691L5.93769 13.6688L5.93765 13.8688L7.36234 13.8691L7.36238 13.6691ZM7.26205 12.6835V13.6074H7.46205V12.6835H7.26205ZM11.7749 12.9135V13.5938H11.9749V12.9135H11.7749ZM8.22517 14.2191V12.9135H8.02517V14.2191H8.22517ZM7.91236 15.1551V14.5316H7.71236V15.1551H7.91236ZM12.0874 14.531V15.1551H12.2874V14.531H12.0874ZM11.6374 13.1135V13.6074H11.8374V13.1135H11.6374ZM5.41236 6.7188V6.0938H5.21236V6.7188H5.41236ZM14.6874 6.6188H5.31236V6.8188H14.6874V6.6188ZM14.5874 6.0938V6.7188H14.7874V6.0938H14.5874ZM5.31236 6.1938H14.6874V5.9938H5.31236V6.1938ZM5.72486 5.4688V4.8438H5.52486V5.4688H5.72486ZM14.3749 5.3688H5.62486V5.5688H14.3749V5.3688ZM14.2749 4.53192V5.4688H14.4749V4.53192H14.2749ZM12.0874 1.0938V2.34442H12.2874V1.0938H12.0874ZM9.37486 1.1938H12.1874V0.993799H9.37486V1.1938ZM5.72486 8.28161V7.3438H5.52486V8.28161H5.72486ZM14.2749 7.3438V8.28161H14.4749V7.3438H14.2749ZM5.62486 7.4438H14.3749V7.2438H5.62486V7.4438Z" fill="#A9C530" mask="url(#path-2-outside-1)"/>
<path d="M2.5 18.9344C2.25665 18.9344 2.05937 19.1316 2.05937 19.375C2.05937 19.6184 2.25665 19.8156 2.5 19.8156L17.5 19.8156C17.7434 19.8156 17.9406 19.6184 17.9406 19.375C17.9406 19.1316 17.7434 18.9344 17.5 18.9344L2.5 18.9344Z" fill="#A9C530" stroke="#A9C530" stroke-width="0.1" stroke-linecap="round"/>
</svg>
