<svg width="20" height="20" viewBox="0 0 20 20" fill="none" xmlns="http://www.w3.org/2000/svg">
<mask id="path-1-outside-1" maskUnits="userSpaceOnUse" x="-0.535156" y="-0.375" width="21" height="20" fill="black">
<rect fill="white" x="-0.535156" y="-0.375" width="21" height="20"/>
<path d="M19.523 11.1827C19.5353 11.1274 19.5323 11.0697 19.5144 11.0159C19.2964 7.86672 16.6906 5.4163 13.534 5.3921C12.4805 1.86056 8.7635 -0.148317 5.23197 0.905226C1.70039 1.95877 -0.308447 5.67573 0.745055 9.20727C1.29976 11.0666 2.63629 12.5925 4.40643 13.3872C3.78037 13.7222 3.19878 14.1342 2.67518 14.6138L1.7684 15.4449C1.38017 15.8007 1.35387 16.4038 1.70968 16.7921C1.74945 16.8355 1.79315 16.8751 1.84023 16.9104L2.86239 17.6771C4.33372 18.7759 6.11999 19.3713 7.95632 19.3749H8.86597C10.7021 19.3711 12.4881 18.7757 13.9593 17.6771L14.3191 17.4072C17.3097 17.0022 19.5392 14.447 19.5354 11.4291C19.5354 11.3458 19.5261 11.2651 19.523 11.1827ZM17.8562 8.25071C18.4316 9.03433 18.7831 9.95959 18.8733 10.9275L18.6038 11.0623L17.0432 10.022L17.5502 8.25071H17.8562ZM15.7058 6.5042C16.3067 6.77337 16.8537 7.14981 17.3197 7.61504H17.3105C17.1686 7.61516 17.044 7.70931 17.0051 7.84579L16.4094 9.93015L15.3882 10.4012L13.8143 9.352V8.09846L15.5859 6.85891C15.6987 6.77925 15.7471 6.63595 15.7058 6.5042ZM8.52652 8.00693C8.49243 8.03478 8.4645 8.06942 8.44452 8.10863C8.44082 8.12 8.43772 8.13156 8.4353 8.14328L7.58922 7.2972L8.59898 6.28744C8.86755 6.53162 9.15551 6.75355 9.46 6.95108H9.45936C9.10847 7.26566 8.79545 7.61996 8.52652 8.00693ZM8.10825 8.71475C7.74782 9.42793 7.53372 10.206 7.47862 11.0032C7.18458 10.1709 6.72702 9.40596 6.13291 8.7532L7.13917 7.74567L8.10825 8.71475ZM8.85865 8.67088L9.11292 8.79802L9.62591 10.0802L8.34758 11.3601L8.10221 11.2374C8.1334 10.3317 8.39366 9.44871 8.85865 8.67088ZM8.26875 12.0298C8.39112 12.0908 8.53887 12.0668 8.63554 11.97L10.0766 10.5293L11.3266 11.0292L11.9194 13.1037C11.9252 13.1198 11.9324 13.1354 11.941 13.1501C10.8332 12.6436 9.62925 12.3818 8.41114 12.3826C8.33614 12.3826 8.26144 12.3857 8.18644 12.3876L8.1858 12.3861C8.16037 12.2437 8.13622 12.1 8.12223 11.9563L8.26875 12.0298ZM11.5523 10.4361L10.2447 9.91298L9.65992 8.45094C9.63099 8.37852 9.57648 8.31924 9.50672 8.2844L9.22067 8.14074C9.76436 7.43312 10.4742 6.87047 11.2872 6.50261C11.2459 6.63432 11.2943 6.77766 11.4071 6.85732L13.1787 8.09846V9.352L11.5523 10.4361ZM13.4965 9.90345L15.0011 10.9088C15.0037 10.9154 15.003 10.9224 15.0062 10.9291C15.012 10.9401 15.0186 10.9508 15.0259 10.9609L14.5282 12.7004H12.4648L11.9588 10.9291L13.4965 9.90345ZM14.9436 6.22864V6.23023L15.0262 6.47528L13.4965 7.5448L11.9668 6.47369L12.0494 6.22864C12.9952 5.95828 13.9978 5.95828 14.9436 6.22864ZM12.8805 5.42198C11.8349 5.53012 10.836 5.9112 9.98411 6.52709C9.65102 6.32781 9.33791 6.09694 9.04904 5.83771L11.627 3.2607C12.1911 3.88576 12.6181 4.62195 12.8805 5.42198ZM11.1738 2.81351L8.5993 5.38797C7.69935 4.39017 7.15908 3.11998 7.06448 1.77959L7.02761 1.2666C8.556 1.23669 10.0385 1.7898 11.1738 2.81351ZM6.39385 1.31301L6.4304 1.82472C6.53533 3.31795 7.1408 4.73212 8.14893 5.83866L7.13981 6.84778L3.10585 2.81351C4.02157 1.98733 5.16967 1.46338 6.39385 1.31301ZM2.65643 3.26292L6.69039 7.2972L5.68381 8.30378C4.57623 7.29605 3.16115 6.69133 1.66733 6.58748L1.1553 6.55093C1.30587 5.32671 1.83002 4.17861 2.65643 3.26292ZM1.10921 7.18501L1.6222 7.22156C2.96294 7.31524 4.23389 7.85461 5.2328 8.75384L2.65548 11.3315C1.63205 10.1959 1.07918 8.71343 1.10921 7.18501ZM3.1014 11.7853L5.68381 9.20421C6.50283 10.1168 7.02316 11.258 7.17509 12.4747C6.49695 12.5741 5.83343 12.7555 5.19911 13.0151C4.42391 12.7512 3.71029 12.3329 3.1014 11.7853ZM14.6448 16.3625C14.6316 16.3769 14.617 16.3901 14.6013 16.4019L13.5775 17.1689C12.2166 18.1851 10.5644 18.7358 8.86597 18.7393H7.95632C6.25786 18.7358 4.60567 18.1851 3.24474 17.1689L2.22227 16.4019C2.08183 16.2966 2.05334 16.0974 2.15866 15.957C2.17042 15.9413 2.18365 15.9267 2.19811 15.9134L3.10331 15.0823C3.75038 14.4925 4.49165 14.0154 5.29637 13.6705C5.34464 13.6614 5.39013 13.6413 5.42922 13.6117C8.24349 12.4493 11.4763 13.0228 13.719 15.0823L14.6254 15.9134C14.7548 16.0321 14.7635 16.2331 14.6448 16.3625ZM14.1471 14.6138C13.5963 14.1094 12.9814 13.6798 12.3183 13.3361H14.6363L15.3355 14.0353L14.7627 15.1795L14.1471 14.6138ZM15.2786 16.5274C15.4071 16.2511 15.3881 15.9286 15.2281 15.6693L15.9178 14.2896H17.7498L17.8912 14.5724C17.2436 15.4788 16.3308 16.1619 15.2786 16.5274ZM18.2821 13.9345L18.2322 13.8297C18.1781 13.7214 18.0672 13.6532 17.9462 13.6539H15.8529L15.1248 12.9257L15.6851 10.9644L16.6466 10.521L18.4055 11.6935C18.5002 11.7566 18.6214 11.7642 18.7233 11.7135L18.8895 11.6302C18.8617 12.4341 18.6541 13.2214 18.2821 13.9345Z"/>
</mask>
<path d="M19.523 11.1827C19.5353 11.1274 19.5323 11.0697 19.5144 11.0159C19.2964 7.86672 16.6906 5.4163 13.534 5.3921C12.4805 1.86056 8.7635 -0.148317 5.23197 0.905226C1.70039 1.95877 -0.308447 5.67573 0.745055 9.20727C1.29976 11.0666 2.63629 12.5925 4.40643 13.3872C3.78037 13.7222 3.19878 14.1342 2.67518 14.6138L1.7684 15.4449C1.38017 15.8007 1.35387 16.4038 1.70968 16.7921C1.74945 16.8355 1.79315 16.8751 1.84023 16.9104L2.86239 17.6771C4.33372 18.7759 6.11999 19.3713 7.95632 19.3749H8.86597C10.7021 19.3711 12.4881 18.7757 13.9593 17.6771L14.3191 17.4072C17.3097 17.0022 19.5392 14.447 19.5354 11.4291C19.5354 11.3458 19.5261 11.2651 19.523 11.1827ZM17.8562 8.25071C18.4316 9.03433 18.7831 9.95959 18.8733 10.9275L18.6038 11.0623L17.0432 10.022L17.5502 8.25071H17.8562ZM15.7058 6.5042C16.3067 6.77337 16.8537 7.14981 17.3197 7.61504H17.3105C17.1686 7.61516 17.044 7.70931 17.0051 7.84579L16.4094 9.93015L15.3882 10.4012L13.8143 9.352V8.09846L15.5859 6.85891C15.6987 6.77925 15.7471 6.63595 15.7058 6.5042ZM8.52652 8.00693C8.49243 8.03478 8.4645 8.06942 8.44452 8.10863C8.44082 8.12 8.43772 8.13156 8.4353 8.14328L7.58922 7.2972L8.59898 6.28744C8.86755 6.53162 9.15551 6.75355 9.46 6.95108H9.45936C9.10847 7.26566 8.79545 7.61996 8.52652 8.00693ZM8.10825 8.71475C7.74782 9.42793 7.53372 10.206 7.47862 11.0032C7.18458 10.1709 6.72702 9.40596 6.13291 8.7532L7.13917 7.74567L8.10825 8.71475ZM8.85865 8.67088L9.11292 8.79802L9.62591 10.0802L8.34758 11.3601L8.10221 11.2374C8.1334 10.3317 8.39366 9.44871 8.85865 8.67088ZM8.26875 12.0298C8.39112 12.0908 8.53887 12.0668 8.63554 11.97L10.0766 10.5293L11.3266 11.0292L11.9194 13.1037C11.9252 13.1198 11.9324 13.1354 11.941 13.1501C10.8332 12.6436 9.62925 12.3818 8.41114 12.3826C8.33614 12.3826 8.26144 12.3857 8.18644 12.3876L8.1858 12.3861C8.16037 12.2437 8.13622 12.1 8.12223 11.9563L8.26875 12.0298ZM11.5523 10.4361L10.2447 9.91298L9.65992 8.45094C9.63099 8.37852 9.57648 8.31924 9.50672 8.2844L9.22067 8.14074C9.76436 7.43312 10.4742 6.87047 11.2872 6.50261C11.2459 6.63432 11.2943 6.77766 11.4071 6.85732L13.1787 8.09846V9.352L11.5523 10.4361ZM13.4965 9.90345L15.0011 10.9088C15.0037 10.9154 15.003 10.9224 15.0062 10.9291C15.012 10.9401 15.0186 10.9508 15.0259 10.9609L14.5282 12.7004H12.4648L11.9588 10.9291L13.4965 9.90345ZM14.9436 6.22864V6.23023L15.0262 6.47528L13.4965 7.5448L11.9668 6.47369L12.0494 6.22864C12.9952 5.95828 13.9978 5.95828 14.9436 6.22864ZM12.8805 5.42198C11.8349 5.53012 10.836 5.9112 9.98411 6.52709C9.65102 6.32781 9.33791 6.09694 9.04904 5.83771L11.627 3.2607C12.1911 3.88576 12.6181 4.62195 12.8805 5.42198ZM11.1738 2.81351L8.5993 5.38797C7.69935 4.39017 7.15908 3.11998 7.06448 1.77959L7.02761 1.2666C8.556 1.23669 10.0385 1.7898 11.1738 2.81351ZM6.39385 1.31301L6.4304 1.82472C6.53533 3.31795 7.1408 4.73212 8.14893 5.83866L7.13981 6.84778L3.10585 2.81351C4.02157 1.98733 5.16967 1.46338 6.39385 1.31301ZM2.65643 3.26292L6.69039 7.2972L5.68381 8.30378C4.57623 7.29605 3.16115 6.69133 1.66733 6.58748L1.1553 6.55093C1.30587 5.32671 1.83002 4.17861 2.65643 3.26292ZM1.10921 7.18501L1.6222 7.22156C2.96294 7.31524 4.23389 7.85461 5.2328 8.75384L2.65548 11.3315C1.63205 10.1959 1.07918 8.71343 1.10921 7.18501ZM3.1014 11.7853L5.68381 9.20421C6.50283 10.1168 7.02316 11.258 7.17509 12.4747C6.49695 12.5741 5.83343 12.7555 5.19911 13.0151C4.42391 12.7512 3.71029 12.3329 3.1014 11.7853ZM14.6448 16.3625C14.6316 16.3769 14.617 16.3901 14.6013 16.4019L13.5775 17.1689C12.2166 18.1851 10.5644 18.7358 8.86597 18.7393H7.95632C6.25786 18.7358 4.60567 18.1851 3.24474 17.1689L2.22227 16.4019C2.08183 16.2966 2.05334 16.0974 2.15866 15.957C2.17042 15.9413 2.18365 15.9267 2.19811 15.9134L3.10331 15.0823C3.75038 14.4925 4.49165 14.0154 5.29637 13.6705C5.34464 13.6614 5.39013 13.6413 5.42922 13.6117C8.24349 12.4493 11.4763 13.0228 13.719 15.0823L14.6254 15.9134C14.7548 16.0321 14.7635 16.2331 14.6448 16.3625ZM14.1471 14.6138C13.5963 14.1094 12.9814 13.6798 12.3183 13.3361H14.6363L15.3355 14.0353L14.7627 15.1795L14.1471 14.6138ZM15.2786 16.5274C15.4071 16.2511 15.3881 15.9286 15.2281 15.6693L15.9178 14.2896H17.7498L17.8912 14.5724C17.2436 15.4788 16.3308 16.1619 15.2786 16.5274ZM18.2821 13.9345L18.2322 13.8297C18.1781 13.7214 18.0672 13.6532 17.9462 13.6539H15.8529L15.1248 12.9257L15.6851 10.9644L16.6466 10.521L18.4055 11.6935C18.5002 11.7566 18.6214 11.7642 18.7233 11.7135L18.8895 11.6302C18.8617 12.4341 18.6541 13.2214 18.2821 13.9345Z" fill="#A9C530"/>
<path d="M19.523 11.1827C19.5353 11.1274 19.5323 11.0697 19.5144 11.0159C19.2964 7.86672 16.6906 5.4163 13.534 5.3921C12.4805 1.86056 8.7635 -0.148317 5.23197 0.905226C1.70039 1.95877 -0.308447 5.67573 0.745055 9.20727C1.29976 11.0666 2.63629 12.5925 4.40643 13.3872C3.78037 13.7222 3.19878 14.1342 2.67518 14.6138L1.7684 15.4449C1.38017 15.8007 1.35387 16.4038 1.70968 16.7921C1.74945 16.8355 1.79315 16.8751 1.84023 16.9104L2.86239 17.6771C4.33372 18.7759 6.11999 19.3713 7.95632 19.3749H8.86597C10.7021 19.3711 12.4881 18.7757 13.9593 17.6771L14.3191 17.4072C17.3097 17.0022 19.5392 14.447 19.5354 11.4291C19.5354 11.3458 19.5261 11.2651 19.523 11.1827ZM17.8562 8.25071C18.4316 9.03433 18.7831 9.95959 18.8733 10.9275L18.6038 11.0623L17.0432 10.022L17.5502 8.25071H17.8562ZM15.7058 6.5042C16.3067 6.77337 16.8537 7.14981 17.3197 7.61504H17.3105C17.1686 7.61516 17.044 7.70931 17.0051 7.84579L16.4094 9.93015L15.3882 10.4012L13.8143 9.352V8.09846L15.5859 6.85891C15.6987 6.77925 15.7471 6.63595 15.7058 6.5042ZM8.52652 8.00693C8.49243 8.03478 8.4645 8.06942 8.44452 8.10863C8.44082 8.12 8.43772 8.13156 8.4353 8.14328L7.58922 7.2972L8.59898 6.28744C8.86755 6.53162 9.15551 6.75355 9.46 6.95108H9.45936C9.10847 7.26566 8.79545 7.61996 8.52652 8.00693ZM8.10825 8.71475C7.74782 9.42793 7.53372 10.206 7.47862 11.0032C7.18458 10.1709 6.72702 9.40596 6.13291 8.7532L7.13917 7.74567L8.10825 8.71475ZM8.85865 8.67088L9.11292 8.79802L9.62591 10.0802L8.34758 11.3601L8.10221 11.2374C8.1334 10.3317 8.39366 9.44871 8.85865 8.67088ZM8.26875 12.0298C8.39112 12.0908 8.53887 12.0668 8.63554 11.97L10.0766 10.5293L11.3266 11.0292L11.9194 13.1037C11.9252 13.1198 11.9324 13.1354 11.941 13.1501C10.8332 12.6436 9.62925 12.3818 8.41114 12.3826C8.33614 12.3826 8.26144 12.3857 8.18644 12.3876L8.1858 12.3861C8.16037 12.2437 8.13622 12.1 8.12223 11.9563L8.26875 12.0298ZM11.5523 10.4361L10.2447 9.91298L9.65992 8.45094C9.63099 8.37852 9.57648 8.31924 9.50672 8.2844L9.22067 8.14074C9.76436 7.43312 10.4742 6.87047 11.2872 6.50261C11.2459 6.63432 11.2943 6.77766 11.4071 6.85732L13.1787 8.09846V9.352L11.5523 10.4361ZM13.4965 9.90345L15.0011 10.9088C15.0037 10.9154 15.003 10.9224 15.0062 10.9291C15.012 10.9401 15.0186 10.9508 15.0259 10.9609L14.5282 12.7004H12.4648L11.9588 10.9291L13.4965 9.90345ZM14.9436 6.22864V6.23023L15.0262 6.47528L13.4965 7.5448L11.9668 6.47369L12.0494 6.22864C12.9952 5.95828 13.9978 5.95828 14.9436 6.22864ZM12.8805 5.42198C11.8349 5.53012 10.836 5.9112 9.98411 6.52709C9.65102 6.32781 9.33791 6.09694 9.04904 5.83771L11.627 3.2607C12.1911 3.88576 12.6181 4.62195 12.8805 5.42198ZM11.1738 2.81351L8.5993 5.38797C7.69935 4.39017 7.15908 3.11998 7.06448 1.77959L7.02761 1.2666C8.556 1.23669 10.0385 1.7898 11.1738 2.81351ZM6.39385 1.31301L6.4304 1.82472C6.53533 3.31795 7.1408 4.73212 8.14893 5.83866L7.13981 6.84778L3.10585 2.81351C4.02157 1.98733 5.16967 1.46338 6.39385 1.31301ZM2.65643 3.26292L6.69039 7.2972L5.68381 8.30378C4.57623 7.29605 3.16115 6.69133 1.66733 6.58748L1.1553 6.55093C1.30587 5.32671 1.83002 4.17861 2.65643 3.26292ZM1.10921 7.18501L1.6222 7.22156C2.96294 7.31524 4.23389 7.85461 5.2328 8.75384L2.65548 11.3315C1.63205 10.1959 1.07918 8.71343 1.10921 7.18501ZM3.1014 11.7853L5.68381 9.20421C6.50283 10.1168 7.02316 11.258 7.17509 12.4747C6.49695 12.5741 5.83343 12.7555 5.19911 13.0151C4.42391 12.7512 3.71029 12.3329 3.1014 11.7853ZM14.6448 16.3625C14.6316 16.3769 14.617 16.3901 14.6013 16.4019L13.5775 17.1689C12.2166 18.1851 10.5644 18.7358 8.86597 18.7393H7.95632C6.25786 18.7358 4.60567 18.1851 3.24474 17.1689L2.22227 16.4019C2.08183 16.2966 2.05334 16.0974 2.15866 15.957C2.17042 15.9413 2.18365 15.9267 2.19811 15.9134L3.10331 15.0823C3.75038 14.4925 4.49165 14.0154 5.29637 13.6705C5.34464 13.6614 5.39013 13.6413 5.42922 13.6117C8.24349 12.4493 11.4763 13.0228 13.719 15.0823L14.6254 15.9134C14.7548 16.0321 14.7635 16.2331 14.6448 16.3625ZM14.1471 14.6138C13.5963 14.1094 12.9814 13.6798 12.3183 13.3361H14.6363L15.3355 14.0353L14.7627 15.1795L14.1471 14.6138ZM15.2786 16.5274C15.4071 16.2511 15.3881 15.9286 15.2281 15.6693L15.9178 14.2896H17.7498L17.8912 14.5724C17.2436 15.4788 16.3308 16.1619 15.2786 16.5274ZM18.2821 13.9345L18.2322 13.8297C18.1781 13.7214 18.0672 13.6532 17.9462 13.6539H15.8529L15.1248 12.9257L15.6851 10.9644L16.6466 10.521L18.4055 11.6935C18.5002 11.7566 18.6214 11.7642 18.7233 11.7135L18.8895 11.6302C18.8617 12.4341 18.6541 13.2214 18.2821 13.9345Z" stroke="#A9C530" stroke-width="0.4" mask="url(#path-1-outside-1)"/>
<path d="M11.2717 15.561H10.9539V15.2431C10.9539 15.0676 10.8115 14.9253 10.636 14.9253C10.4605 14.9253 10.3182 15.0676 10.3182 15.2431V15.561H9.68252V15.2431C9.68252 15.0676 9.54021 14.9253 9.36469 14.9253C9.18916 14.9253 9.04685 15.0676 9.04685 15.2431V15.561H8.41118V15.2431C8.41118 15.0676 8.26887 14.9253 8.09335 14.9253C7.91782 14.9253 7.77551 15.0676 7.77551 15.2431V15.561H7.13984V15.2431C7.13984 15.0676 6.99753 14.9253 6.82201 14.9253C6.64649 14.9253 6.50417 15.0676 6.50417 15.2431V15.561H5.86851V15.2431C5.86851 15.0676 5.7262 14.9253 5.55067 14.9253C5.37515 14.9253 5.23284 15.0676 5.23284 15.2431V15.561H4.915C4.73948 15.561 4.59717 15.7033 4.59717 15.8788C4.59717 16.0543 4.73948 16.1966 4.915 16.1966H5.23284V16.5145C5.23284 16.69 5.37515 16.8323 5.55067 16.8323C5.7262 16.8323 5.86851 16.69 5.86851 16.5145V16.1966H6.50417V16.5145C6.50417 16.69 6.64649 16.8323 6.82201 16.8323C6.99753 16.8323 7.13984 16.69 7.13984 16.5145V16.1966H7.77551V16.5145C7.77551 16.69 7.91782 16.8323 8.09335 16.8323C8.26887 16.8323 8.41118 16.69 8.41118 16.5145V16.1966H9.04685V16.5145C9.04685 16.69 9.18916 16.8323 9.36469 16.8323C9.54021 16.8323 9.68252 16.69 9.68252 16.5145V16.1966H10.3182V16.5145C10.3182 16.69 10.4605 16.8323 10.636 16.8323C10.8115 16.8323 10.9539 16.69 10.9539 16.5145V16.1966H11.2717C11.4472 16.1966 11.5895 16.0543 11.5895 15.8788C11.5895 15.7033 11.4472 15.561 11.2717 15.561Z" fill="#A9C530"/>
</svg>
