<svg width="20" height="20" viewBox="0 0 20 20" fill="none" xmlns="http://www.w3.org/2000/svg">
<g opacity="0.5">
<path d="M6.59984 1.01663H3.78317V2.31663H6.59984V1.01663ZM9.3665 3.80079C9.3665 2.2728 8.14061 1.01663 6.59984 1.01663V2.31663C7.40906 2.31663 8.0665 2.97712 8.0665 3.80079H9.3665ZM9.3665 6.64162V3.80079H8.0665V6.64162H9.3665ZM6.59984 9.42496C8.1388 9.42496 9.3665 8.17894 9.3665 6.64162H8.0665C8.0665 7.47097 7.41087 8.12496 6.59984 8.12496V9.42496ZM3.78317 9.42496H6.59984V8.12496H3.78317V9.42496ZM1.0165 6.64162C1.0165 8.18062 2.2542 9.42496 3.78317 9.42496V8.12496C2.97881 8.12496 2.3165 7.4693 2.3165 6.64162H1.0165ZM1.0165 3.80079V6.64162H2.3165V3.80079H1.0165ZM3.78317 1.01663C2.25239 1.01663 1.0165 2.27113 1.0165 3.80079H2.3165C2.3165 2.97879 2.98062 2.31663 3.78317 2.31663V1.01663ZM6.59984 10.5747H3.78317V11.8747H6.59984V10.5747ZM9.3665 13.3589C9.3665 11.8219 8.13913 10.5747 6.59984 10.5747V11.8747C7.41054 11.8747 8.0665 12.5292 8.0665 13.3589H9.3665ZM9.3665 16.1997V13.3589H8.0665V16.1997H9.3665ZM6.59984 18.983C8.14045 18.983 9.3665 17.727 9.3665 16.1997H8.0665C8.0665 17.0224 7.40923 17.683 6.59984 17.683V18.983ZM3.78317 18.983H6.59984V17.683H3.78317V18.983ZM1.0165 16.1997C1.0165 17.7287 2.25255 18.983 3.78317 18.983V17.683C2.98045 17.683 2.3165 17.0207 2.3165 16.1997H1.0165ZM1.0165 13.3589V16.1997H2.3165V13.3589H1.0165ZM3.78317 10.5747C2.25387 10.5747 1.0165 11.8202 1.0165 13.3589H2.3165C2.3165 12.5309 2.97914 11.8747 3.78317 11.8747V10.5747ZM13.3999 2.31663H16.2166V1.01663H13.3999V2.31663ZM11.9332 3.80079C11.9332 2.97712 12.5907 2.31663 13.3999 2.31663V1.01663C11.8591 1.01663 10.6332 2.2728 10.6332 3.80079H11.9332ZM11.9332 6.64162V3.80079H10.6332V6.64162H11.9332ZM13.3999 8.12496C12.5889 8.12496 11.9332 7.47097 11.9332 6.64162H10.6332C10.6332 8.17894 11.8609 9.42496 13.3999 9.42496V8.12496ZM16.2166 8.12496H13.3999V9.42496H16.2166V8.12496ZM17.6832 6.64162C17.6832 7.4693 17.0209 8.12496 16.2166 8.12496V9.42496C17.7455 9.42496 18.9832 8.18062 18.9832 6.64162H17.6832ZM17.6832 3.80079V6.64162H18.9832V3.80079H17.6832ZM16.2166 2.31663C17.0191 2.31663 17.6832 2.97879 17.6832 3.80079H18.9832C18.9832 2.27113 17.7474 1.01663 16.2166 1.01663V2.31663ZM16.2166 10.5747H13.3999V11.8747H16.2166V10.5747ZM18.9832 13.3589C18.9832 11.8202 17.7459 10.5747 16.2166 10.5747V11.8747C17.0206 11.8747 17.6832 12.5309 17.6832 13.3589H18.9832ZM18.9832 16.1997V13.3589H17.6832V16.1997H18.9832ZM16.2166 18.983C17.7472 18.983 18.9832 17.7287 18.9832 16.1997H17.6832C17.6832 17.0207 17.0193 17.683 16.2166 17.683V18.983ZM13.3999 18.983H16.2166V17.683H13.3999V18.983ZM10.6332 16.1997C10.6332 17.727 11.8593 18.983 13.3999 18.983V17.683C12.5905 17.683 11.9332 17.0224 11.9332 16.1997H10.6332ZM10.6332 13.3589V16.1997H11.9332V13.3589H10.6332ZM13.3999 10.5747C11.8606 10.5747 10.6332 11.8219 10.6332 13.3589H11.9332C11.9332 12.5292 12.5892 11.8747 13.3999 11.8747V10.5747Z" fill="#A9C530"/>
</g>
</svg>
