<svg width="20" height="20" viewBox="0 0 20 20" fill="none" xmlns="http://www.w3.org/2000/svg">
<path d="M2.85703 20H17.1427C17.4285 20 17.6189 19.8095 17.6189 19.5238V2.38095C17.6189 2.09523 17.4284 1.90478 17.1427 1.90478H12.8571V0.476175C12.8571 0.190493 12.6666 0 12.3809 0H7.61897C7.33325 0 7.1428 0.190493 7.1428 0.476175V1.90474H2.85703C2.57131 1.90474 2.38086 2.09523 2.38086 2.38091V19.5238C2.38086 19.8095 2.57135 20 2.85703 20ZM7.61897 4.7619H12.3809H14.7618V17.1429H5.23802V4.7619H7.61897ZM8.09515 0.952388H11.9047V3.80951H8.09515V0.952388ZM3.33325 2.85713H7.14276V3.80951H4.76181C4.47609 3.80951 4.28564 4.00001 4.28564 4.28569V17.619C4.28564 17.9048 4.47613 18.0952 4.76181 18.0952H15.238C15.5237 18.0952 15.7142 17.9047 15.7142 17.619V4.28569C15.7142 3.99997 15.5237 3.80951 15.238 3.80951H12.8571V2.85713H16.6666V19.0476H3.33325V2.85713Z" fill="#A9C530"/>
<path d="M10.9522 1.90479H9.04746C8.76174 1.90479 8.57129 2.09528 8.57129 2.38096C8.57129 2.66664 8.76178 2.85714 9.04746 2.85714H10.9522C11.238 2.85714 11.4284 2.66664 11.4284 2.38096C11.4284 2.09528 11.238 1.90479 10.9522 1.90479Z" fill="#A9C530"/>
<path d="M6.28545 8.38106C6.38068 8.47628 6.47594 8.47628 6.6664 8.47628C6.85689 8.47628 6.95212 8.47628 7.04734 8.38106L7.61878 7.80962L8.19022 8.38106C8.28545 8.47628 8.38072 8.47628 8.57117 8.47628C8.76166 8.47628 8.85689 8.47628 8.95212 8.38106C9.14261 8.19056 9.14261 7.90488 8.95212 7.71439L8.28545 7.04772L8.85689 6.47628C9.04738 6.28579 9.04738 6.00011 8.85689 5.80962C8.6664 5.61912 8.38072 5.61912 8.19022 5.80962L7.61878 6.38106L6.95212 5.80962C6.76162 5.61912 6.47594 5.61912 6.28545 5.80962C6.09495 6.00011 6.09495 6.28579 6.28545 6.47628L6.85689 7.04772L6.28545 7.61916C6.09495 7.90484 6.09495 8.19056 6.28545 8.38106Z" fill="#A9C530"/>
<path d="M13.6191 12.4761C13.4286 12.2856 13.1429 12.2856 12.9524 12.4761L12.381 13.0476L11.8095 12.4761C11.619 12.2856 11.3334 12.2856 11.1429 12.4761C10.9524 12.6666 10.9524 12.9523 11.1429 13.1428L11.7143 13.7142L11.1429 14.2857C10.9524 14.4762 10.9524 14.7618 11.1429 14.9523C11.2381 15.0476 11.3334 15.0476 11.5238 15.0476C11.7143 15.0476 11.8095 15.0476 11.9048 14.9523L12.4762 14.3809L13.0476 14.9523C13.1429 15.0476 13.2381 15.0476 13.4286 15.0476C13.619 15.0476 13.7143 15.0476 13.8095 14.9523C14 14.7618 14 14.4762 13.8095 14.2857L13.2381 13.7142L13.8095 13.1428C13.8096 12.9523 13.8096 12.6666 13.6191 12.4761Z" fill="#A9C530"/>
<path d="M6.28577 15.0475C6.381 15.1428 6.47627 15.1428 6.66672 15.1428C6.85721 15.1428 6.95244 15.1428 7.04767 15.0475L7.61911 14.4761L8.19055 15.0475C8.28578 15.1428 8.38105 15.1428 8.5715 15.1428C8.76199 15.1428 8.85722 15.1428 8.95245 15.0475C9.14294 14.8571 9.14294 14.5714 8.95245 14.3809L8.38101 13.8094L8.95245 13.238C9.14294 13.0475 9.14294 12.7618 8.95245 12.5713C8.76195 12.3808 8.47627 12.3808 8.28578 12.5713L7.71434 13.1428L7.1429 12.5713C6.9524 12.3808 6.66672 12.3808 6.47623 12.5713C6.28574 12.7618 6.28574 13.0475 6.47623 13.238L7.04767 13.8094L6.47623 14.3809C6.09528 14.5713 6.09528 14.8571 6.28577 15.0475Z" fill="#A9C530"/>
<path d="M11.6189 7.33345L11.9046 7.04773C11.7141 10.0001 8.85696 10.2858 7.14268 10.2858C6.85696 10.2858 6.6665 10.4763 6.6665 10.762C6.6665 11.0477 6.857 11.2382 7.14268 11.2382C7.33317 11.2382 7.4284 11.2382 7.61885 11.2382C10.7617 11.2382 12.7617 9.71436 12.9522 7.14296L13.1427 7.33345C13.2379 7.42868 13.3332 7.52394 13.5236 7.52394C13.6189 7.52394 13.7141 7.52394 13.8094 7.42872C13.9998 7.23822 13.9998 6.95254 13.8094 6.76205L12.7617 5.6192C12.6665 5.52398 12.5712 5.42871 12.3808 5.42871C12.2856 5.42871 12.0951 5.52394 11.9998 5.6192L10.9522 6.66682C10.7617 6.85731 10.7617 7.143 10.9522 7.33349C11.1427 7.52391 11.5236 7.5239 11.6189 7.33345Z" fill="#A9C530"/>
</svg>
