<svg width="20" height="20" viewBox="0 0 20 20" fill="none" xmlns="http://www.w3.org/2000/svg">
<g opacity="0.5">
<path d="M14.813 13.9598L14.811 13.9593C14.5721 13.8941 14.3221 13.8566 14.0622 13.8566C14.0622 13.8566 14.0622 13.8566 14.0622 13.8566L12.55 13.856L12.5497 12.6334C14.0422 11.7555 15.0494 10.1356 15.0494 8.28156V7.39034C15.2261 7.36604 15.3619 7.21471 15.3619 7.03125V5.78125C15.3619 5.59779 15.2261 5.44646 15.0494 5.42216V4.53188C15.0494 3.24887 14.0965 2.18661 12.8619 2.00971V0.78125C12.8619 0.580823 12.6998 0.41875 12.4994 0.41875H9.37437C6.93426 0.41875 4.94938 2.40364 4.94938 4.84375V5.42216C4.77267 5.44646 4.63688 5.59779 4.63688 5.78125V7.03125C4.63688 7.21471 4.77267 7.36604 4.94938 7.39034V8.28156C4.94938 10.1356 5.95655 11.7555 7.44937 12.6337V13.5938H7.44838L7.44969 13.6003V13.8566L5.93751 13.8562C4.35895 13.8562 3.075 15.1402 3.075 16.7188L3.07531 19.2181C3.07531 19.4186 3.23773 19.5806 3.43781 19.5806C3.63827 19.5806 3.80031 19.4182 3.80031 19.2181L3.8 16.7187C3.8 15.8973 4.26742 15.1839 4.94969 14.8265V19.2188C4.94969 19.4192 5.11176 19.5812 5.31219 19.5812C5.51261 19.5812 5.67469 19.4192 5.67469 19.2188V14.5999C5.76157 14.5886 5.84874 14.5813 5.9375 14.5813L7.13719 14.5816V15.155C7.13719 16.7335 8.42113 18.0178 9.99969 18.0178C11.5782 18.0178 12.8622 16.7335 12.8622 15.155V14.5813L14.0625 14.5816C14.1513 14.5816 14.2387 14.5889 14.3256 14.6002V19.2188C14.3256 19.4192 14.4877 19.5812 14.6881 19.5812C14.8886 19.5812 15.0506 19.4192 15.0506 19.2188V14.8272C15.7326 15.1845 16.2 15.8976 16.2 16.7191V19.2181C16.2 19.4186 16.3621 19.5806 16.5625 19.5806C16.7629 19.5806 16.925 19.4186 16.925 19.2181V16.7191C16.925 15.4054 16.0348 14.299 14.8268 13.9634C14.8208 13.9612 14.8157 13.9603 14.8138 13.96L14.813 13.9598ZM8.175 14.2191V12.9872C8.74122 13.208 9.35601 13.3316 9.99969 13.3316C10.6434 13.3316 11.2585 13.2077 11.8247 12.9871V13.5938H11.8237L11.825 13.6003V14.2184C11.825 14.4019 11.9608 14.5529 12.1372 14.5775V15.155C12.1372 16.3336 11.178 17.2928 9.99969 17.2928C8.82137 17.2928 7.86219 16.3336 7.86219 15.155V14.5782C8.03889 14.5539 8.175 14.4026 8.175 14.2191ZM5.36219 6.66875V6.14375H14.6372V6.66875H5.36219ZM5.67469 4.84375C5.67469 2.80355 7.33449 1.14375 9.37469 1.14375H12.1372V2.34437C12.1372 2.5448 12.2993 2.70687 12.4997 2.70687C13.5061 2.70687 14.3247 3.52543 14.3247 4.53188V5.41875H5.67469V4.84375ZM5.67469 8.28156V7.39375H14.3247V8.28156C14.3247 10.6664 12.3846 12.6066 9.99969 12.6066C7.6148 12.6066 5.67469 10.6664 5.67469 8.28156Z" fill="#A9C530" stroke="#A9C530" stroke-width="0.1"/>
<mask id="path-2-outside-1" maskUnits="userSpaceOnUse" x="1.98779" y="-0.668701" width="16" height="21" fill="black">
<rect fill="white" x="1.98779" y="-0.668701" width="16" height="21"/>
<path fill-rule="evenodd" clip-rule="evenodd" d="M14.0628 14.5316L12.8125 14.5313V15.1551C12.8125 16.706 11.5509 17.9679 9.99998 17.9679C8.44904 17.9679 7.18748 16.706 7.18748 15.1551V14.5316L5.93779 14.5313C5.83123 14.5313 5.72748 14.5416 5.62498 14.5563V19.2188C5.62498 19.3916 5.48529 19.5313 5.31248 19.5313C5.13967 19.5313 4.99998 19.3916 4.99998 19.2188V14.7457C4.95322 14.768 4.90736 14.7919 4.86248 14.8174C4.19959 15.1933 3.75029 15.904 3.75029 16.7188L3.75061 19.2182C3.75061 19.3907 3.61092 19.5307 3.43811 19.5307C3.26561 19.5307 3.12561 19.391 3.12561 19.2182L3.12529 16.7188C3.12529 15.1679 4.38686 13.9063 5.93779 13.9063L7.49998 13.9066V13.5954L7.49967 13.5938V12.6051C6.00779 11.7388 4.99967 10.1272 4.99967 8.28161V7.3438C4.82686 7.3438 4.68717 7.20411 4.68717 7.0313V5.7813C4.68717 5.60849 4.82686 5.4688 4.99967 5.4688V4.8438C4.99967 2.4313 6.96217 0.468799 9.37467 0.468799H12.4997C12.6725 0.468799 12.8122 0.608486 12.8122 0.781299V2.05349C14.0434 2.20817 14.9997 3.25942 14.9997 4.53192V5.4688C15.1725 5.4688 15.3122 5.60849 15.3122 5.7813V7.0313C15.3122 7.20411 15.1725 7.3438 14.9997 7.3438V8.28161C14.9997 10.1272 13.9915 11.7388 12.5 12.6047L12.5003 13.906L14.0625 13.9066C14.3175 13.9066 14.5631 13.9435 14.7981 14.0076C14.8025 14.0091 14.8072 14.0091 14.8115 14.011C15.9997 14.3401 16.8753 15.4279 16.8753 16.7191V19.2182C16.8753 19.391 16.7356 19.5307 16.5628 19.5307C16.39 19.5307 16.2503 19.391 16.2503 19.2182V16.7191C16.2503 15.9043 15.801 15.1939 15.1384 14.818C15.0935 14.7925 15.0477 14.7686 15.0009 14.7463V19.2188C15.0009 19.3916 14.8612 19.5313 14.6884 19.5313C14.5156 19.5313 14.3759 19.3916 14.3759 19.2188V14.5566C14.2734 14.5419 14.1694 14.5316 14.0628 14.5316ZM14.2384 14.6783C14.1798 14.6725 14.1214 14.6691 14.0628 14.6691L12.95 14.6688V15.1551C12.95 16.7819 11.6269 18.1054 9.99998 18.1054C8.37308 18.1054 7.04998 16.7819 7.04998 15.1551V14.6691L5.93779 14.6688C5.93778 14.6688 5.9378 14.6688 5.93779 14.6688C5.87921 14.6688 5.82096 14.6722 5.76248 14.678V19.2188C5.76248 19.4676 5.56123 19.6688 5.31248 19.6688C5.06373 19.6688 4.86248 19.4676 4.86248 19.2188V14.9772C4.27807 15.3387 3.88779 15.9839 3.88779 16.7188L3.88811 19.2182C3.88811 19.4665 3.68695 19.6682 3.43811 19.6682C3.18976 19.6682 2.98811 19.467 2.98811 19.2182L2.98779 16.7188C2.98779 15.0919 4.31092 13.7688 5.93779 13.7688L7.36248 13.7691V13.609L7.36217 13.6074V12.6835C5.8677 11.7847 4.86217 10.1503 4.86217 8.28161V7.45995C4.68079 7.40192 4.54967 7.23208 4.54967 7.0313V5.7813C4.54967 5.58051 4.68079 5.41068 4.86217 5.35265V4.8438C4.86217 2.35536 6.88623 0.331299 9.37467 0.331299H12.4997C12.7484 0.331299 12.9497 0.532547 12.9497 0.781299V1.93501C14.19 2.14945 15.1372 3.23074 15.1372 4.53192V5.35265C15.3186 5.41068 15.4497 5.58051 15.4497 5.7813V7.0313C15.4497 7.23208 15.3186 7.40192 15.1372 7.45995V8.28161C15.1372 10.1502 14.1317 11.7847 12.6375 12.6832L12.6378 13.7685L14.0625 13.7691C14.0625 13.7691 14.0625 13.7691 14.0625 13.7691C14.3304 13.7691 14.5879 13.8078 14.8331 13.8746C14.834 13.8748 14.835 13.875 14.8361 13.8752C14.8379 13.8756 14.8401 13.8761 14.8424 13.8767C14.8454 13.8775 14.849 13.8785 14.853 13.8798C16.0963 14.2264 17.0128 15.3658 17.0128 16.7191V19.2182C17.0128 19.4669 16.8115 19.6682 16.5628 19.6682C16.314 19.6682 16.1128 19.4669 16.1128 19.2182V16.7191C16.1128 15.9843 15.7226 15.3394 15.1384 14.9778V19.2188C15.1384 19.4676 14.9372 19.6688 14.6884 19.6688C14.4397 19.6688 14.2384 19.4676 14.2384 19.2188V14.6783ZM11.875 13.5938V12.9135C11.8295 12.932 11.7836 12.9498 11.7375 12.967C11.1961 13.1688 10.611 13.2816 9.99998 13.2816C9.38895 13.2816 8.80418 13.1691 8.26279 12.9671C8.21664 12.9499 8.1708 12.932 8.12529 12.9135V14.2191C8.12529 14.3919 7.98529 14.5316 7.81248 14.5316V15.1551C7.81248 16.3613 8.79404 17.3429 9.99998 17.3429C11.2059 17.3429 12.1875 16.3613 12.1875 15.1551V14.531C12.015 14.5307 11.8753 14.3913 11.8753 14.2185V13.5954L11.875 13.5938ZM11.7378 13.609L11.7375 13.6074V13.1135C11.1948 13.3097 10.6101 13.4191 9.99998 13.4191C9.38995 13.4191 8.80546 13.31 8.26279 13.1136V14.2191C8.26279 14.42 8.13137 14.5898 7.94998 14.6478V15.1551C7.94998 16.2854 8.87 17.2054 9.99998 17.2054C11.13 17.2054 12.05 16.2854 12.05 15.1551V14.647C11.8689 14.5888 11.7378 14.4194 11.7378 14.2185V13.609ZM5.44998 6.2313V6.5813H14.55V6.2313H5.44998ZM9.37498 1.2313C7.38311 1.2313 5.76248 2.85193 5.76248 4.8438V5.3313H14.2375V4.53192C14.2375 3.5738 13.4581 2.79442 12.5 2.79442C12.2512 2.79442 12.05 2.59318 12.05 2.34442V1.2313H9.37498ZM5.76248 7.4813V8.28161C5.76248 10.6182 7.66342 12.5191 9.99998 12.5191C12.3365 12.5191 14.2375 10.6182 14.2375 8.28161V7.4813H5.76248ZM5.31248 6.7188H14.6875V6.0938H5.31248V6.7188ZM9.37498 1.0938C7.30717 1.0938 5.62498 2.77599 5.62498 4.8438V5.4688H14.375V4.53192C14.375 3.49786 13.534 2.65692 12.5 2.65692C12.3272 2.65692 12.1875 2.51724 12.1875 2.34442V1.0938H9.37498ZM5.62498 8.28161C5.62498 10.6941 7.58748 12.6566 9.99998 12.6566C12.4125 12.6566 14.375 10.6941 14.375 8.28161V7.3438H5.62498V8.28161Z"/>
</mask>
<path fill-rule="evenodd" clip-rule="evenodd" d="M14.0628 14.5316L12.8125 14.5313V15.1551C12.8125 16.706 11.5509 17.9679 9.99998 17.9679C8.44904 17.9679 7.18748 16.706 7.18748 15.1551V14.5316L5.93779 14.5313C5.83123 14.5313 5.72748 14.5416 5.62498 14.5563V19.2188C5.62498 19.3916 5.48529 19.5313 5.31248 19.5313C5.13967 19.5313 4.99998 19.3916 4.99998 19.2188V14.7457C4.95322 14.768 4.90736 14.7919 4.86248 14.8174C4.19959 15.1933 3.75029 15.904 3.75029 16.7188L3.75061 19.2182C3.75061 19.3907 3.61092 19.5307 3.43811 19.5307C3.26561 19.5307 3.12561 19.391 3.12561 19.2182L3.12529 16.7188C3.12529 15.1679 4.38686 13.9063 5.93779 13.9063L7.49998 13.9066V13.5954L7.49967 13.5938V12.6051C6.00779 11.7388 4.99967 10.1272 4.99967 8.28161V7.3438C4.82686 7.3438 4.68717 7.20411 4.68717 7.0313V5.7813C4.68717 5.60849 4.82686 5.4688 4.99967 5.4688V4.8438C4.99967 2.4313 6.96217 0.468799 9.37467 0.468799H12.4997C12.6725 0.468799 12.8122 0.608486 12.8122 0.781299V2.05349C14.0434 2.20817 14.9997 3.25942 14.9997 4.53192V5.4688C15.1725 5.4688 15.3122 5.60849 15.3122 5.7813V7.0313C15.3122 7.20411 15.1725 7.3438 14.9997 7.3438V8.28161C14.9997 10.1272 13.9915 11.7388 12.5 12.6047L12.5003 13.906L14.0625 13.9066C14.3175 13.9066 14.5631 13.9435 14.7981 14.0076C14.8025 14.0091 14.8072 14.0091 14.8115 14.011C15.9997 14.3401 16.8753 15.4279 16.8753 16.7191V19.2182C16.8753 19.391 16.7356 19.5307 16.5628 19.5307C16.39 19.5307 16.2503 19.391 16.2503 19.2182V16.7191C16.2503 15.9043 15.801 15.1939 15.1384 14.818C15.0935 14.7925 15.0477 14.7686 15.0009 14.7463V19.2188C15.0009 19.3916 14.8612 19.5313 14.6884 19.5313C14.5156 19.5313 14.3759 19.3916 14.3759 19.2188V14.5566C14.2734 14.5419 14.1694 14.5316 14.0628 14.5316ZM14.2384 14.6783C14.1798 14.6725 14.1214 14.6691 14.0628 14.6691L12.95 14.6688V15.1551C12.95 16.7819 11.6269 18.1054 9.99998 18.1054C8.37308 18.1054 7.04998 16.7819 7.04998 15.1551V14.6691L5.93779 14.6688C5.93778 14.6688 5.9378 14.6688 5.93779 14.6688C5.87921 14.6688 5.82096 14.6722 5.76248 14.678V19.2188C5.76248 19.4676 5.56123 19.6688 5.31248 19.6688C5.06373 19.6688 4.86248 19.4676 4.86248 19.2188V14.9772C4.27807 15.3387 3.88779 15.9839 3.88779 16.7188L3.88811 19.2182C3.88811 19.4665 3.68695 19.6682 3.43811 19.6682C3.18976 19.6682 2.98811 19.467 2.98811 19.2182L2.98779 16.7188C2.98779 15.0919 4.31092 13.7688 5.93779 13.7688L7.36248 13.7691V13.609L7.36217 13.6074V12.6835C5.8677 11.7847 4.86217 10.1503 4.86217 8.28161V7.45995C4.68079 7.40192 4.54967 7.23208 4.54967 7.0313V5.7813C4.54967 5.58051 4.68079 5.41068 4.86217 5.35265V4.8438C4.86217 2.35536 6.88623 0.331299 9.37467 0.331299H12.4997C12.7484 0.331299 12.9497 0.532547 12.9497 0.781299V1.93501C14.19 2.14945 15.1372 3.23074 15.1372 4.53192V5.35265C15.3186 5.41068 15.4497 5.58051 15.4497 5.7813V7.0313C15.4497 7.23208 15.3186 7.40192 15.1372 7.45995V8.28161C15.1372 10.1502 14.1317 11.7847 12.6375 12.6832L12.6378 13.7685L14.0625 13.7691C14.0625 13.7691 14.0625 13.7691 14.0625 13.7691C14.3304 13.7691 14.5879 13.8078 14.8331 13.8746C14.834 13.8748 14.835 13.875 14.8361 13.8752C14.8379 13.8756 14.8401 13.8761 14.8424 13.8767C14.8454 13.8775 14.849 13.8785 14.853 13.8798C16.0963 14.2264 17.0128 15.3658 17.0128 16.7191V19.2182C17.0128 19.4669 16.8115 19.6682 16.5628 19.6682C16.314 19.6682 16.1128 19.4669 16.1128 19.2182V16.7191C16.1128 15.9843 15.7226 15.3394 15.1384 14.9778V19.2188C15.1384 19.4676 14.9372 19.6688 14.6884 19.6688C14.4397 19.6688 14.2384 19.4676 14.2384 19.2188V14.6783ZM11.875 13.5938V12.9135C11.8295 12.932 11.7836 12.9498 11.7375 12.967C11.1961 13.1688 10.611 13.2816 9.99998 13.2816C9.38895 13.2816 8.80418 13.1691 8.26279 12.9671C8.21664 12.9499 8.1708 12.932 8.12529 12.9135V14.2191C8.12529 14.3919 7.98529 14.5316 7.81248 14.5316V15.1551C7.81248 16.3613 8.79404 17.3429 9.99998 17.3429C11.2059 17.3429 12.1875 16.3613 12.1875 15.1551V14.531C12.015 14.5307 11.8753 14.3913 11.8753 14.2185V13.5954L11.875 13.5938ZM11.7378 13.609L11.7375 13.6074V13.1135C11.1948 13.3097 10.6101 13.4191 9.99998 13.4191C9.38995 13.4191 8.80546 13.31 8.26279 13.1136V14.2191C8.26279 14.42 8.13137 14.5898 7.94998 14.6478V15.1551C7.94998 16.2854 8.87 17.2054 9.99998 17.2054C11.13 17.2054 12.05 16.2854 12.05 15.1551V14.647C11.8689 14.5888 11.7378 14.4194 11.7378 14.2185V13.609ZM5.44998 6.2313V6.5813H14.55V6.2313H5.44998ZM9.37498 1.2313C7.38311 1.2313 5.76248 2.85193 5.76248 4.8438V5.3313H14.2375V4.53192C14.2375 3.5738 13.4581 2.79442 12.5 2.79442C12.2512 2.79442 12.05 2.59318 12.05 2.34442V1.2313H9.37498ZM5.76248 7.4813V8.28161C5.76248 10.6182 7.66342 12.5191 9.99998 12.5191C12.3365 12.5191 14.2375 10.6182 14.2375 8.28161V7.4813H5.76248ZM5.31248 6.7188H14.6875V6.0938H5.31248V6.7188ZM9.37498 1.0938C7.30717 1.0938 5.62498 2.77599 5.62498 4.8438V5.4688H14.375V4.53192C14.375 3.49786 13.534 2.65692 12.5 2.65692C12.3272 2.65692 12.1875 2.51724 12.1875 2.34442V1.0938H9.37498ZM5.62498 8.28161C5.62498 10.6941 7.58748 12.6566 9.99998 12.6566C12.4125 12.6566 14.375 10.6941 14.375 8.28161V7.3438H5.62498V8.28161Z" fill="#A9C530"/>
<path d="M14.0628 14.5316L14.0628 14.6316H14.0628V14.5316ZM12.8125 14.5313L12.8125 14.4313L12.7125 14.4313V14.5313H12.8125ZM7.18748 14.5316H7.28748V14.4316L7.18751 14.4316L7.18748 14.5316ZM5.93779 14.5313L5.93782 14.4313H5.93779V14.5313ZM5.62498 14.5563L5.6108 14.4573L5.52498 14.4696V14.5563H5.62498ZM4.99998 14.7457H5.09998V14.5872L4.95692 14.6554L4.99998 14.7457ZM4.86248 14.8174L4.81315 14.7304H4.81315L4.86248 14.8174ZM3.75029 16.7188H3.65029V16.7188L3.75029 16.7188ZM3.75061 19.2182H3.85061V19.2182L3.75061 19.2182ZM3.12561 19.2182H3.22561L3.22561 19.2182L3.12561 19.2182ZM3.12529 16.7188H3.02529V16.7188L3.12529 16.7188ZM5.93779 13.9063L5.93781 13.8063H5.93779V13.9063ZM7.49998 13.9066L7.49996 14.0066L7.59998 14.0066V13.9066H7.49998ZM7.49998 13.5954H7.59998V13.5855L7.59804 13.5757L7.49998 13.5954ZM7.49967 13.5938H7.39967V13.6037L7.40161 13.6134L7.49967 13.5938ZM7.49967 12.6051H7.59967V12.5475L7.54988 12.5186L7.49967 12.6051ZM4.99967 7.3438H5.09967V7.2438H4.99967V7.3438ZM4.99967 5.4688V5.5688H5.09967V5.4688H4.99967ZM12.8122 2.05349H12.7122V2.14171L12.7997 2.15271L12.8122 2.05349ZM14.9997 5.4688H14.8997V5.5688H14.9997V5.4688ZM14.9997 7.3438V7.2438H14.8997V7.3438H14.9997ZM12.5 12.6047L12.4498 12.5183L12.4 12.5472L12.4 12.6048L12.5 12.6047ZM12.5003 13.906L12.4003 13.906L12.4003 14.0059L12.5003 14.006L12.5003 13.906ZM14.0625 13.9066L14.0624 14.0066H14.0625V13.9066ZM14.7981 14.0076L14.8318 13.9131L14.8244 13.9111L14.7981 14.0076ZM14.8115 14.011L14.7718 14.1037L14.7849 14.1074L14.8115 14.011ZM15.1384 14.818L15.0891 14.905L15.1384 14.818ZM15.0009 14.7463L15.044 14.6561L14.9009 14.5878V14.7463H15.0009ZM14.3759 14.5566H14.4759V14.4699L14.3901 14.4576L14.3759 14.5566ZM14.0628 14.6691L14.0628 14.7691H14.0628V14.6691ZM14.2384 14.6783H14.3384V14.5876L14.2482 14.5788L14.2384 14.6783ZM12.95 14.6688L12.95 14.5688L12.85 14.5688V14.6688H12.95ZM7.04998 14.6691H7.14998V14.5691L7.05001 14.5691L7.04998 14.6691ZM5.76248 14.678L5.75267 14.5784L5.66248 14.5873V14.678H5.76248ZM4.86248 14.9772H4.96248V14.7977L4.80986 14.8921L4.86248 14.9772ZM3.88779 16.7188H3.78779V16.7188L3.88779 16.7188ZM3.88811 19.2182H3.98811V19.2182L3.88811 19.2182ZM2.98811 19.2182H3.08811V19.2182L2.98811 19.2182ZM2.98779 16.7188H2.88779V16.7188L2.98779 16.7188ZM5.93779 13.7688L5.93781 13.6688H5.93779V13.7688ZM7.36248 13.7691L7.36246 13.8691L7.46248 13.8691V13.7691H7.36248ZM7.36248 13.609H7.46248V13.5991L7.46053 13.5894L7.36248 13.609ZM7.36217 13.6074H7.26217V13.6173L7.26411 13.6271L7.36217 13.6074ZM7.36217 12.6835H7.46217V12.627L7.41371 12.5978L7.36217 12.6835ZM4.86217 7.45995H4.96217V7.38695L4.89264 7.36471L4.86217 7.45995ZM4.86217 5.35265L4.89264 5.44789L4.96217 5.42565V5.35265H4.86217ZM12.9497 1.93501H12.8497V2.01921L12.9326 2.03355L12.9497 1.93501ZM15.1372 5.35265H15.0372V5.42565L15.1067 5.44789L15.1372 5.35265ZM15.1372 7.45995L15.1067 7.36471L15.0372 7.38695V7.45995H15.1372ZM12.6375 12.6832L12.586 12.5975L12.5375 12.6266L12.5375 12.6832L12.6375 12.6832ZM12.6378 13.7685L12.5378 13.7686L12.5378 13.8685L12.6377 13.8685L12.6378 13.7685ZM14.8331 13.8746L14.8068 13.9713L14.8134 13.9726L14.8331 13.8746ZM14.8361 13.8752L14.8148 13.9729L14.8148 13.9729L14.8361 13.8752ZM14.8424 13.8767L14.8672 13.7798L14.8672 13.7798L14.8424 13.8767ZM14.853 13.8798L14.8216 13.9749L14.8261 13.9761L14.853 13.8798ZM15.1384 14.9778L15.191 14.8928L15.0384 14.7983V14.9778H15.1384ZM11.875 13.5938H11.775V13.6037L11.7769 13.6134L11.875 13.5938ZM11.875 12.9135H11.975V12.7649L11.8374 12.8208L11.875 12.9135ZM11.7375 12.967L11.7724 13.0607H11.7724L11.7375 12.967ZM8.26279 12.9671L8.29775 12.8734H8.29775L8.26279 12.9671ZM8.12529 12.9135L8.16297 12.8209L8.02529 12.7649V12.9135H8.12529ZM7.81248 14.5316V14.4316H7.71248V14.5316H7.81248ZM12.1875 14.531H12.2875V14.4312L12.1877 14.431L12.1875 14.531ZM11.8753 13.5954H11.9753V13.5855L11.9733 13.5757L11.8753 13.5954ZM11.7375 13.6074H11.6375V13.6173L11.6394 13.627L11.7375 13.6074ZM11.7378 13.609H11.8378V13.5991L11.8359 13.5894L11.7378 13.609ZM11.7375 13.1135H11.8375V12.971L11.7035 13.0195L11.7375 13.1135ZM8.26279 13.1136L8.29683 13.0196L8.16279 12.971V13.1136H8.26279ZM7.94998 14.6478L7.91952 14.5525L7.84998 14.5748V14.6478H7.94998ZM12.05 14.647H12.15V14.5741L12.0806 14.5518L12.05 14.647ZM5.44998 6.5813H5.34998V6.6813H5.44998V6.5813ZM5.44998 6.2313V6.1313H5.34998V6.2313H5.44998ZM14.55 6.5813V6.6813H14.65V6.5813H14.55ZM14.55 6.2313H14.65V6.1313H14.55V6.2313ZM5.76248 5.3313H5.66248V5.4313H5.76248V5.3313ZM14.2375 5.3313V5.4313H14.3375V5.3313H14.2375ZM12.05 1.2313H12.15V1.1313H12.05V1.2313ZM5.76248 7.4813V7.3813H5.66248V7.4813H5.76248ZM14.2375 7.4813H14.3375V7.3813H14.2375V7.4813ZM5.31248 6.7188H5.21248V6.8188H5.31248V6.7188ZM14.6875 6.7188V6.8188H14.7875V6.7188H14.6875ZM14.6875 6.0938H14.7875V5.9938H14.6875V6.0938ZM5.31248 6.0938V5.9938H5.21248V6.0938H5.31248ZM5.62498 5.4688H5.52498V5.5688H5.62498V5.4688ZM14.375 5.4688V5.5688H14.475V5.4688H14.375ZM12.1875 1.0938H12.2875V0.993799H12.1875V1.0938ZM14.375 7.3438H14.475V7.2438H14.375V7.3438ZM5.62498 7.3438V7.2438H5.52498V7.3438H5.62498ZM9.99998 18.0679C11.6062 18.0679 12.9125 16.7612 12.9125 15.1551H12.7125C12.7125 16.6508 11.4957 17.8679 9.99998 17.8679V18.0679ZM7.08748 15.1551C7.08748 16.7612 8.3938 18.0679 9.99998 18.0679V17.8679C8.50429 17.8679 7.28748 16.6508 7.28748 15.1551H7.08748ZM7.08748 14.5316V15.1551H7.28748V14.5316H7.08748ZM5.93777 14.6313L7.18746 14.6316L7.18751 14.4316L5.93782 14.4313L5.93777 14.6313ZM5.63917 14.6553C5.73891 14.641 5.8376 14.6313 5.93779 14.6313V14.4313C5.82486 14.4313 5.71605 14.4422 5.6108 14.4573L5.63917 14.6553ZM5.72498 19.2188V14.5563H5.52498V19.2188H5.72498ZM5.31248 19.6313C5.54052 19.6313 5.72498 19.4468 5.72498 19.2188H5.52498C5.52498 19.3364 5.43006 19.4313 5.31248 19.4313V19.6313ZM4.89998 19.2188C4.89998 19.4468 5.08444 19.6313 5.31248 19.6313V19.4313C5.1949 19.4313 5.09998 19.3364 5.09998 19.2188H4.89998ZM4.91181 14.9043C4.95465 14.88 4.99841 14.8572 5.04304 14.8359L4.95692 14.6554C4.90802 14.6788 4.86007 14.7038 4.81315 14.7304L4.91181 14.9043ZM3.85029 16.7188C3.85029 15.9417 4.2787 15.2634 4.91181 14.9043L4.81315 14.7304C4.12047 15.1232 3.65029 15.8662 3.65029 16.7188H3.85029ZM3.85061 19.2182L3.85029 16.7188L3.65029 16.7188L3.65061 19.2182L3.85061 19.2182ZM3.43811 19.6307C3.66621 19.6307 3.85061 19.4458 3.85061 19.2182H3.65061C3.65061 19.3355 3.55562 19.4307 3.43811 19.4307V19.6307ZM3.02561 19.2182C3.02561 19.4463 3.21044 19.6307 3.43811 19.6307V19.4307C3.32077 19.4307 3.22561 19.3357 3.22561 19.2182H3.02561ZM3.02529 16.7188L3.02561 19.2182L3.22561 19.2182L3.22529 16.7188L3.02529 16.7188ZM5.93779 13.8063C4.33163 13.8063 3.02529 15.1126 3.02529 16.7188H3.22529C3.22529 15.2231 4.44208 14.0063 5.93779 14.0063V13.8063ZM7.40161 13.6134L7.40192 13.615L7.59804 13.5757L7.59772 13.5742L7.40161 13.6134ZM7.39967 12.6051V13.5938H7.59967V12.6051H7.39967ZM4.89967 8.28161C4.89967 10.1646 5.9283 11.8083 7.44945 12.6915L7.54988 12.5186C6.08728 11.6693 5.09967 10.0899 5.09967 8.28161H4.89967ZM4.58717 7.0313C4.58717 7.25934 4.77163 7.4438 4.99967 7.4438V7.2438C4.88208 7.2438 4.78717 7.14888 4.78717 7.0313H4.58717ZM4.58717 5.7813V7.0313H4.78717V5.7813H4.58717ZM4.99967 5.3688C4.77163 5.3688 4.58717 5.55326 4.58717 5.7813H4.78717C4.78717 5.66372 4.88208 5.5688 4.99967 5.5688V5.3688ZM9.37467 0.368799C6.90694 0.368799 4.89967 2.37607 4.89967 4.8438H5.09967C5.09967 2.48653 7.0174 0.568799 9.37467 0.568799V0.368799ZM12.4997 0.368799H9.37467V0.568799H12.4997V0.368799ZM12.9122 0.781299C12.9122 0.553258 12.7277 0.368799 12.4997 0.368799V0.568799C12.6173 0.568799 12.7122 0.663715 12.7122 0.781299H12.9122ZM12.9122 2.05349V0.781299H12.7122V2.05349H12.9122ZM15.0997 4.53192C15.0997 3.20818 14.1051 2.11513 12.8246 1.95427L12.7997 2.15271C13.9818 2.30122 14.8997 3.31067 14.8997 4.53192H15.0997ZM15.4122 5.7813C15.4122 5.55326 15.2277 5.3688 14.9997 5.3688V5.5688C15.1173 5.5688 15.2122 5.66372 15.2122 5.7813H15.4122ZM15.4122 7.0313V5.7813H15.2122V7.0313H15.4122ZM14.9997 7.4438C15.2277 7.4438 15.4122 7.25934 15.4122 7.0313H15.2122C15.2122 7.14888 15.1173 7.2438 14.9997 7.2438V7.4438ZM12.5502 12.6912C14.071 11.8083 15.0997 10.1646 15.0997 8.28161H14.8997C14.8997 10.0899 13.912 11.6693 12.4498 12.5183L12.5502 12.6912ZM12.6003 13.906L12.6 12.6047L12.4 12.6048L12.4003 13.906L12.6003 13.906ZM14.8244 13.9111C14.5817 13.8449 14.3272 13.8066 14.0625 13.8066V14.0066C14.3077 14.0066 14.5445 14.0421 14.7718 14.104L14.8244 13.9111ZM14.8509 13.9191C14.8439 13.9161 14.8377 13.9142 14.8331 13.913C14.8286 13.9119 14.8248 13.9112 14.8234 13.9109C14.8212 13.9105 14.8222 13.9107 14.8231 13.9109C14.8244 13.9111 14.8276 13.9119 14.8317 13.9134L14.7645 14.1017C14.7708 14.104 14.7762 14.1053 14.7798 14.1061C14.7816 14.1065 14.7831 14.1068 14.7842 14.107C14.7847 14.1071 14.7851 14.1072 14.7855 14.1073C14.7859 14.1073 14.786 14.1074 14.7862 14.1074C14.7871 14.1076 14.7855 14.1073 14.7834 14.1067C14.781 14.1061 14.777 14.105 14.7721 14.1029L14.8509 13.9191ZM16.9753 16.7191C16.9753 15.3815 16.0683 14.2553 14.8382 13.9146L14.7849 14.1074C15.9311 14.4248 16.7753 15.4742 16.7753 16.7191H16.9753ZM16.9753 19.2182V16.7191H16.7753V19.2182H16.9753ZM16.5628 19.6307C16.7908 19.6307 16.9753 19.4462 16.9753 19.2182H16.7753C16.7753 19.3358 16.6804 19.4307 16.5628 19.4307V19.6307ZM16.1503 19.2182C16.1503 19.4462 16.3348 19.6307 16.5628 19.6307V19.4307C16.4452 19.4307 16.3503 19.3358 16.3503 19.2182H16.1503ZM16.1503 16.7191V19.2182H16.3503V16.7191H16.1503ZM15.0891 14.905C15.7219 15.264 16.1503 15.942 16.1503 16.7191H16.3503C16.3503 15.8666 15.8801 15.1238 15.1878 14.731L15.0891 14.905ZM14.9578 14.8365C15.0025 14.8578 15.0462 14.8807 15.0891 14.905L15.1878 14.731C15.1408 14.7044 15.0929 14.6794 15.044 14.6561L14.9578 14.8365ZM14.6884 19.6313C14.9165 19.6313 15.1009 19.4468 15.1009 19.2188H14.9009C14.9009 19.3364 14.806 19.4313 14.6884 19.4313V19.6313ZM14.2759 19.2188C14.2759 19.4468 14.4604 19.6313 14.6884 19.6313V19.4313C14.5708 19.4313 14.4759 19.3364 14.4759 19.2188H14.2759ZM14.2759 14.5566V19.2188H14.4759V14.5566H14.2759ZM14.0628 14.6316C14.163 14.6316 14.262 14.6413 14.3617 14.6556L14.3901 14.4576C14.2848 14.4425 14.1757 14.4316 14.0628 14.4316V14.6316ZM14.0628 14.7691C14.1176 14.7691 14.1726 14.7723 14.2286 14.7778L14.2482 14.5788C14.187 14.5727 14.1253 14.5691 14.0628 14.5691V14.7691ZM13.05 15.1551V14.6688H12.85V15.1551H13.05ZM9.99998 18.2054C11.6821 18.2054 13.05 16.8371 13.05 15.1551H12.85C12.85 16.7267 11.5716 18.0054 9.99998 18.0054V18.2054ZM6.94998 15.1551C6.94998 16.8371 8.31784 18.2054 9.99998 18.2054V18.0054C8.42833 18.0054 7.14998 16.7267 7.14998 15.1551H6.94998ZM6.94998 14.6691V15.1551H7.14998V14.6691H6.94998ZM5.93777 14.7688L7.04996 14.7691L7.05001 14.5691L5.93782 14.5688L5.93777 14.7688ZM5.93779 14.7688C5.93779 14.7688 5.93779 14.7688 5.93779 14.7688C5.93779 14.7688 5.93779 14.7688 5.93779 14.7688C5.93779 14.7688 5.93779 14.7688 5.93779 14.7688C5.93779 14.7688 5.93779 14.7688 5.93779 14.7688C5.93779 14.7688 5.93779 14.7688 5.93779 14.7688H5.93779C5.93779 14.7688 5.93779 14.7688 5.93779 14.7688H5.93779C5.93779 14.7688 5.93779 14.7688 5.9378 14.7688C5.9378 14.7688 5.9378 14.7688 5.9378 14.7688C5.9378 14.7688 5.9378 14.7688 5.9378 14.7688C5.9378 14.7688 5.9378 14.7688 5.9378 14.7688C5.9378 14.7688 5.9378 14.7688 5.9378 14.7688C5.9378 14.6688 5.9378 14.5688 5.9378 14.5688H5.9378C5.9378 14.5688 5.9378 14.5688 5.9378 14.5688H5.9378H5.9378C5.93779 14.5688 5.93779 14.5688 5.93779 14.5688C5.93779 14.5688 5.93779 14.5688 5.93779 14.5688C5.93779 14.5688 5.93779 14.5688 5.93779 14.5688C5.93779 14.5688 5.93779 14.5688 5.93779 14.5688C5.93779 14.5688 5.93779 14.5688 5.93779 14.5688C5.93779 14.5688 5.93779 14.5688 5.93779 14.5688H5.93779C5.93779 14.5688 5.93779 14.5688 5.93779 14.5688C5.93779 14.5688 5.93779 14.5688 5.93779 14.5688C5.93779 14.5688 5.93779 14.5688 5.93779 14.5688C5.93779 14.5688 5.93779 14.5688 5.93779 14.5688H5.93779C5.93779 14.5688 5.93779 14.5688 5.93779 14.5688C5.93779 14.5688 5.93779 14.5688 5.93779 14.5688C5.93779 14.5688 5.93779 14.5688 5.93779 14.5688C5.93779 14.5688 5.93779 14.5688 5.93779 14.5688C5.93779 14.5688 5.93779 14.5688 5.93779 14.5688C5.93779 14.5688 5.93779 14.5688 5.93779 14.5688H5.93779H5.93779C5.93779 14.5688 5.93779 14.5688 5.93779 14.5688H5.93779C5.93779 14.5688 5.93779 14.6688 5.93779 14.7688C5.93779 14.7688 5.93779 14.7688 5.93779 14.7688C5.93779 14.7688 5.93779 14.7688 5.93779 14.7688C5.93779 14.7688 5.93779 14.7688 5.93779 14.7688C5.93779 14.7688 5.93779 14.7688 5.93779 14.7688C5.93779 14.7688 5.93779 14.7688 5.93779 14.7688H5.93779C5.93779 14.7688 5.93779 14.7688 5.93779 14.7688H5.93779C5.93779 14.7688 5.93779 14.7688 5.93779 14.7688C5.93779 14.7688 5.93779 14.7688 5.93779 14.7688C5.93779 14.7688 5.93779 14.7688 5.93779 14.7688C5.93779 14.7688 5.93779 14.7688 5.93779 14.7688C5.93779 14.7688 5.93779 14.7688 5.93779 14.7688V14.5688C5.93779 14.5688 5.93779 14.5688 5.93779 14.5688C5.93779 14.5688 5.93779 14.5688 5.93779 14.5688C5.93779 14.5688 5.93779 14.5688 5.93779 14.5688C5.93779 14.5688 5.93779 14.5688 5.93779 14.5688C5.93779 14.5688 5.93779 14.5688 5.93779 14.5688H5.93779C5.93779 14.5688 5.93779 14.5688 5.93779 14.5688H5.93779C5.93779 14.5688 5.93779 14.5688 5.93779 14.5688C5.93779 14.5688 5.93779 14.5688 5.93779 14.5688C5.93779 14.5688 5.93779 14.5688 5.93779 14.5688C5.93779 14.5688 5.93779 14.5688 5.93779 14.5688C5.93779 14.5688 5.93779 14.5688 5.93779 14.5688C5.93779 14.6688 5.93779 14.7688 5.93779 14.7688H5.93779C5.93779 14.7688 5.93779 14.7688 5.93779 14.7688H5.93779H5.93779C5.93779 14.7688 5.93779 14.7688 5.93779 14.7688C5.93779 14.7688 5.93779 14.7688 5.93779 14.7688C5.93779 14.7688 5.93779 14.7688 5.93779 14.7688C5.93779 14.7688 5.93779 14.7688 5.93779 14.7688C5.93779 14.7688 5.93779 14.7688 5.93779 14.7688C5.93779 14.7688 5.93779 14.7688 5.93779 14.7688H5.93779C5.93779 14.7688 5.93779 14.7688 5.93779 14.7688C5.93779 14.7688 5.93779 14.7688 5.93779 14.7688C5.93779 14.7688 5.93779 14.7688 5.93779 14.7688C5.93779 14.7688 5.93779 14.7688 5.93779 14.7688H5.93779C5.93779 14.7688 5.93779 14.7688 5.93779 14.7688C5.93779 14.7688 5.93779 14.7688 5.93779 14.7688C5.93779 14.7688 5.93779 14.7688 5.93779 14.7688C5.93779 14.7688 5.93779 14.7688 5.93779 14.7688C5.93779 14.7688 5.93779 14.7688 5.93779 14.7688C5.93779 14.7688 5.93779 14.7688 5.9378 14.7688H5.9378H5.9378C5.9378 14.7688 5.9378 14.7688 5.9378 14.7688H5.9378C5.9378 14.7688 5.9378 14.6688 5.9378 14.5688C5.9378 14.5688 5.9378 14.5688 5.9378 14.5688C5.9378 14.5688 5.9378 14.5688 5.9378 14.5688C5.9378 14.5688 5.9378 14.5688 5.9378 14.5688C5.9378 14.5688 5.9378 14.5688 5.9378 14.5688C5.93779 14.5688 5.93779 14.5688 5.93779 14.5688H5.93779C5.93779 14.5688 5.93779 14.5688 5.93779 14.5688H5.93779C5.93779 14.5688 5.93779 14.5688 5.93779 14.5688C5.93779 14.5688 5.93779 14.5688 5.93779 14.5688C5.93779 14.5688 5.93779 14.5688 5.93779 14.5688C5.93779 14.5688 5.93779 14.5688 5.93779 14.5688C5.93779 14.5688 5.93779 14.5688 5.93779 14.5688V14.7688ZM5.77229 14.7775C5.82815 14.772 5.88308 14.7688 5.93779 14.7688V14.5688C5.87535 14.5688 5.81378 14.5724 5.75267 14.5784L5.77229 14.7775ZM5.86248 19.2188V14.678H5.66248V19.2188H5.86248ZM5.31248 19.7688C5.61646 19.7688 5.86248 19.5228 5.86248 19.2188H5.66248C5.66248 19.4123 5.506 19.5688 5.31248 19.5688V19.7688ZM4.76248 19.2188C4.76248 19.5228 5.0085 19.7688 5.31248 19.7688V19.5688C5.11896 19.5688 4.96248 19.4123 4.96248 19.2188H4.76248ZM4.76248 14.9772V19.2188H4.96248V14.9772H4.76248ZM3.98779 16.7188C3.98779 16.0202 4.35869 15.4065 4.9151 15.0622L4.80986 14.8921C4.19746 15.271 3.78779 15.9476 3.78779 16.7188H3.98779ZM3.98811 19.2182L3.98779 16.7188L3.78779 16.7188L3.78811 19.2182L3.98811 19.2182ZM3.43811 19.7682C3.74225 19.7682 3.98811 19.5217 3.98811 19.2182H3.78811C3.78811 19.4114 3.63165 19.5682 3.43811 19.5682V19.7682ZM2.88811 19.2182C2.88811 19.5223 3.1346 19.7682 3.43811 19.7682V19.5682C3.24491 19.5682 3.08811 19.4117 3.08811 19.2182H2.88811ZM2.88779 16.7188L2.88811 19.2182L3.08811 19.2182L3.08779 16.7188L2.88779 16.7188ZM5.93779 13.6688C4.25569 13.6688 2.88779 15.0367 2.88779 16.7188H3.08779C3.08779 15.1472 4.36614 13.8688 5.93779 13.8688V13.6688ZM7.26248 13.609V13.7691H7.46248V13.609H7.26248ZM7.26411 13.6271L7.26443 13.6286L7.46053 13.5894L7.46022 13.5878L7.26411 13.6271ZM4.76217 8.28161C4.76217 10.1871 5.78762 11.8532 7.31063 12.7692L7.41371 12.5978C5.94779 11.7162 4.96217 10.1134 4.96217 8.28161H4.76217ZM4.76217 7.45995V8.28161H4.96217V7.45995H4.76217ZM4.44967 7.0313C4.44967 7.27677 4.61004 7.48428 4.83169 7.5552L4.89264 7.36471C4.75153 7.31956 4.64967 7.1874 4.64967 7.0313H4.44967ZM4.44967 5.7813V7.0313H4.64967V5.7813H4.44967ZM4.83169 5.2574C4.61004 5.32832 4.44967 5.53583 4.44967 5.7813H4.64967C4.64967 5.6252 4.75153 5.49304 4.89264 5.44789L4.83169 5.2574ZM4.76217 4.8438V5.35265H4.96217V4.8438H4.76217ZM9.37467 0.231299C6.831 0.231299 4.76217 2.30013 4.76217 4.8438H4.96217C4.96217 2.41059 6.94146 0.431299 9.37467 0.431299V0.231299ZM12.4997 0.231299H9.37467V0.431299H12.4997V0.231299ZM13.0497 0.781299C13.0497 0.477319 12.8036 0.231299 12.4997 0.231299V0.431299C12.6932 0.431299 12.8497 0.587776 12.8497 0.781299H13.0497ZM13.0497 1.93501V0.781299H12.8497V1.93501H13.0497ZM15.2372 4.53192C15.2372 3.18104 14.2539 2.05903 12.9667 1.83647L12.9326 2.03355C14.126 2.23988 15.0372 3.28044 15.0372 4.53192H15.2372ZM15.2372 5.35265V4.53192H15.0372V5.35265H15.2372ZM15.5497 5.7813C15.5497 5.53583 15.3893 5.32832 15.1676 5.2574L15.1067 5.44789C15.2478 5.49304 15.3497 5.6252 15.3497 5.7813H15.5497ZM15.5497 7.0313V5.7813H15.3497V7.0313H15.5497ZM15.1676 7.5552C15.3893 7.48428 15.5497 7.27677 15.5497 7.0313H15.3497C15.3497 7.1874 15.2478 7.31956 15.1067 7.36471L15.1676 7.5552ZM15.2372 8.28161V7.45995H15.0372V8.28161H15.2372ZM12.689 12.7689C14.2117 11.8532 15.2372 10.1871 15.2372 8.28161H15.0372C15.0372 10.1134 14.0516 11.7162 12.586 12.5975L12.689 12.7689ZM12.7378 13.7685L12.7375 12.6832L12.5375 12.6832L12.5378 13.7686L12.7378 13.7685ZM14.0625 13.6691L12.6378 13.6685L12.6377 13.8685L14.0624 13.8691L14.0625 13.6691ZM14.0625 13.6691H14.0625C14.0625 13.6691 14.0625 13.6691 14.0625 13.6691H14.0625H14.0625H14.0625C14.0625 13.7691 14.0625 13.8691 14.0625 13.8691C14.0625 13.8691 14.0625 13.8691 14.0625 13.8691H14.0625H14.0625C14.0625 13.8691 14.0625 13.8691 14.0625 13.8691C14.0625 13.8691 14.0625 13.8691 14.0625 13.8691C14.0625 13.8691 14.0625 13.8691 14.0625 13.8691C14.0625 13.8691 14.0625 13.8691 14.0625 13.8691H14.0625H14.0625C14.0625 13.8691 14.0625 13.8691 14.0625 13.8691C14.0625 13.8691 14.0625 13.7691 14.0625 13.6691H14.0625H14.0625H14.0625C14.0625 13.6691 14.0625 13.6691 14.0625 13.6691H14.0625V13.8691H14.0625C14.0625 13.8691 14.0625 13.8691 14.0625 13.8691H14.0625H14.0625H14.0625C14.0625 13.7691 14.0625 13.6691 14.0625 13.6691C14.0625 13.6691 14.0625 13.6691 14.0625 13.6691H14.0625H14.0625C14.0625 13.6691 14.0625 13.6691 14.0625 13.6691C14.0625 13.6691 14.0625 13.6691 14.0625 13.6691C14.0625 13.6691 14.0625 13.6691 14.0625 13.6691C14.0625 13.6691 14.0625 13.6691 14.0625 13.6691H14.0625H14.0625C14.0625 13.6691 14.0625 13.6691 14.0625 13.6691C14.0625 13.6691 14.0625 13.7691 14.0625 13.8691H14.0625H14.0625H14.0625C14.0625 13.8691 14.0625 13.8691 14.0625 13.8691H14.0625V13.6691ZM14.8594 13.7781C14.6065 13.7092 14.3402 13.6691 14.0625 13.6691L14.0625 13.8691C14.3207 13.8691 14.5693 13.9064 14.8069 13.9711L14.8594 13.7781ZM14.8574 13.7775C14.8557 13.7771 14.8542 13.7768 14.8529 13.7766L14.8134 13.9726C14.8138 13.9727 14.8143 13.9728 14.8148 13.9729L14.8574 13.7775ZM14.8672 13.7798C14.8635 13.7789 14.8602 13.7781 14.8574 13.7775L14.8148 13.9729C14.8157 13.9731 14.8166 13.9733 14.8175 13.9736L14.8672 13.7798ZM14.8843 13.7848C14.8778 13.7827 14.872 13.7811 14.8672 13.7798L14.8175 13.9736C14.8188 13.9739 14.8202 13.9743 14.8217 13.9748L14.8843 13.7848ZM17.1128 16.7191C17.1128 15.3195 16.165 14.1417 14.8798 13.7835L14.8261 13.9761C16.0277 14.3111 16.9128 15.4121 16.9128 16.7191H17.1128ZM17.1128 19.2182V16.7191H16.9128V19.2182H17.1128ZM16.5628 19.7682C16.8668 19.7682 17.1128 19.5222 17.1128 19.2182H16.9128C16.9128 19.4117 16.7563 19.5682 16.5628 19.5682V19.7682ZM16.0128 19.2182C16.0128 19.5222 16.2588 19.7682 16.5628 19.7682V19.5682C16.3693 19.5682 16.2128 19.4117 16.2128 19.2182H16.0128ZM16.0128 16.7191V19.2182H16.2128V16.7191H16.0128ZM15.0858 15.0628C15.642 15.4071 16.0128 16.0206 16.0128 16.7191H16.2128C16.2128 15.9479 15.8032 15.2717 15.191 14.8928L15.0858 15.0628ZM15.2384 19.2188V14.9778H15.0384V19.2188H15.2384ZM14.6884 19.7688C14.9924 19.7688 15.2384 19.5228 15.2384 19.2188H15.0384C15.0384 19.4123 14.8819 19.5688 14.6884 19.5688V19.7688ZM14.1384 19.2188C14.1384 19.5228 14.3844 19.7688 14.6884 19.7688V19.5688C14.4949 19.5688 14.3384 19.4123 14.3384 19.2188H14.1384ZM14.1384 14.6783V19.2188H14.3384V14.6783H14.1384ZM11.7724 13.0607C11.8195 13.0432 11.8662 13.025 11.9126 13.0061L11.8374 12.8208C11.7927 12.839 11.7478 12.8565 11.7026 12.8733L11.7724 13.0607ZM9.99998 13.3816C10.6234 13.3816 11.2203 13.2665 11.7724 13.0607L11.7026 12.8733C11.1718 13.0711 10.5986 13.1816 9.99998 13.1816V13.3816ZM8.22783 13.0608C8.77998 13.2668 9.37657 13.3816 9.99998 13.3816V13.1816C9.40132 13.1816 8.82838 13.0714 8.29775 12.8734L8.22783 13.0608ZM8.08762 13.0061C8.13403 13.025 8.18077 13.0432 8.22783 13.0608L8.29775 12.8734C8.25251 12.8565 8.20758 12.839 8.16297 12.8209L8.08762 13.0061ZM7.81248 14.6316C8.04039 14.6316 8.22529 14.4473 8.22529 14.2191H8.02529C8.02529 14.3366 7.93019 14.4316 7.81248 14.4316V14.6316ZM9.99998 17.2429C8.84928 17.2429 7.91248 16.3061 7.91248 15.1551H7.71248C7.71248 16.4165 8.73881 17.4429 9.99998 17.4429V17.2429ZM12.0875 15.1551C12.0875 16.3061 11.1507 17.2429 9.99998 17.2429V17.4429C11.2612 17.4429 12.2875 16.4165 12.2875 15.1551H12.0875ZM11.7753 14.2185C11.7753 14.4466 11.9598 14.6306 12.1873 14.631L12.1877 14.431C12.0701 14.4308 11.9753 14.336 11.9753 14.2185H11.7753ZM11.7753 13.5954V14.2185H11.9753V13.5954H11.7753ZM11.7769 13.6134L11.7772 13.615L11.9733 13.5757L11.973 13.5742L11.7769 13.6134ZM11.6394 13.627L11.6397 13.6286L11.8359 13.5894L11.8355 13.5878L11.6394 13.627ZM9.99998 13.5191C10.6221 13.5191 11.2183 13.4076 11.7715 13.2075L11.7035 13.0195C11.1713 13.2119 10.598 13.3191 9.99998 13.3191V13.5191ZM8.22876 13.2076C8.78194 13.4078 9.37793 13.5191 9.99998 13.5191V13.3191C9.40197 13.3191 8.82898 13.2122 8.29683 13.0196L8.22876 13.2076ZM8.36279 14.2191V13.1136H8.16279V14.2191H8.36279ZM7.98044 14.743C8.202 14.6722 8.36279 14.4648 8.36279 14.2191H8.16279C8.16279 14.3752 8.06074 14.5074 7.91952 14.5525L7.98044 14.743ZM8.04998 15.1551V14.6478H7.84998V15.1551H8.04998ZM9.99998 17.1054C8.92523 17.1054 8.04998 16.2302 8.04998 15.1551H7.84998C7.84998 16.3406 8.81476 17.3054 9.99998 17.3054V17.1054ZM11.95 15.1551C11.95 16.2302 11.0747 17.1054 9.99998 17.1054V17.3054C11.1852 17.3054 12.15 16.3406 12.15 15.1551H11.95ZM11.95 14.647V15.1551H12.15V14.647H11.95ZM11.6378 14.2185C11.6378 14.4641 11.7983 14.6712 12.0194 14.7422L12.0806 14.5518C11.9396 14.5065 11.8378 14.3746 11.8378 14.2185H11.6378ZM11.6378 13.609V14.2185H11.8378V13.609H11.6378ZM5.54998 6.5813V6.2313H5.34998V6.5813H5.54998ZM14.55 6.4813H5.44998V6.6813H14.55V6.4813ZM14.45 6.2313V6.5813H14.65V6.2313H14.45ZM5.44998 6.3313H14.55V6.1313H5.44998V6.3313ZM5.86248 4.8438C5.86248 2.90715 7.43834 1.3313 9.37498 1.3313V1.1313C7.32788 1.1313 5.66248 2.7967 5.66248 4.8438H5.86248ZM5.86248 5.3313V4.8438H5.66248V5.3313H5.86248ZM14.2375 5.2313H5.76248V5.4313H14.2375V5.2313ZM14.1375 4.53192V5.3313H14.3375V4.53192H14.1375ZM12.5 2.89442C13.4029 2.89442 14.1375 3.62903 14.1375 4.53192H14.3375C14.3375 3.51857 13.5133 2.69442 12.5 2.69442V2.89442ZM11.95 2.34442C11.95 2.6484 12.196 2.89442 12.5 2.89442V2.69442C12.3065 2.69442 12.15 2.53795 12.15 2.34442H11.95ZM11.95 1.2313V2.34442H12.15V1.2313H11.95ZM9.37498 1.3313H12.05V1.1313H9.37498V1.3313ZM5.86248 8.28161V7.4813H5.66248V8.28161H5.86248ZM9.99998 12.4191C7.71865 12.4191 5.86248 10.5629 5.86248 8.28161H5.66248C5.66248 10.6734 7.60819 12.6191 9.99998 12.6191V12.4191ZM14.1375 8.28161C14.1375 10.5629 12.2813 12.4191 9.99998 12.4191V12.6191C12.3918 12.6191 14.3375 10.6734 14.3375 8.28161H14.1375ZM14.1375 7.4813V8.28161H14.3375V7.4813H14.1375ZM5.76248 7.5813H14.2375V7.3813H5.76248V7.5813ZM5.72498 4.8438C5.72498 2.83121 7.3624 1.1938 9.37498 1.1938V0.993799C7.25194 0.993799 5.52498 2.72076 5.52498 4.8438H5.72498ZM12.5 2.75692C13.4788 2.75692 14.275 3.55309 14.275 4.53192H14.475C14.475 3.44263 13.5893 2.55692 12.5 2.55692V2.75692ZM12.0875 2.34442C12.0875 2.57246 12.2719 2.75692 12.5 2.75692V2.55692C12.3824 2.55692 12.2875 2.46201 12.2875 2.34442H12.0875ZM9.99998 12.5566C7.64271 12.5566 5.72498 10.6389 5.72498 8.28161H5.52498C5.52498 10.7493 7.53225 12.7566 9.99998 12.7566V12.5566ZM14.275 8.28161C14.275 10.6389 12.3573 12.5566 9.99998 12.5566V12.7566C12.4677 12.7566 14.475 10.7493 14.475 8.28161H14.275ZM12.8125 14.6313L14.0628 14.6316L14.0628 14.4316L12.8125 14.4313L12.8125 14.6313ZM12.7125 14.5313V15.1551H12.9125V14.5313H12.7125ZM4.89998 14.7457V19.2188H5.09998V14.7457H4.89998ZM7.5 13.8066L5.93781 13.8063L5.93777 14.0063L7.49996 14.0066L7.5 13.8066ZM7.39998 13.5954V13.9066H7.59998V13.5954H7.39998ZM4.89967 7.3438V8.28161H5.09967V7.3438H4.89967ZM4.89967 4.8438V5.4688H5.09967V4.8438H4.89967ZM15.0997 5.4688V4.53192H14.8997V5.4688H15.0997ZM15.0997 8.28161V7.3438H14.8997V8.28161H15.0997ZM12.5003 14.006L14.0624 14.0066L14.0625 13.8066L12.5003 13.806L12.5003 14.006ZM15.1009 19.2188V14.7463H14.9009V19.2188H15.1009ZM12.95 14.7688L14.0628 14.7691L14.0628 14.5691L12.95 14.5688L12.95 14.7688ZM7.3625 13.6691L5.93781 13.6688L5.93777 13.8688L7.36246 13.8691L7.3625 13.6691ZM7.26217 12.6835V13.6074H7.46217V12.6835H7.26217ZM11.775 12.9135V13.5938H11.975V12.9135H11.775ZM8.22529 14.2191V12.9135H8.02529V14.2191H8.22529ZM7.91248 15.1551V14.5316H7.71248V15.1551H7.91248ZM12.0875 14.531V15.1551H12.2875V14.531H12.0875ZM11.6375 13.1135V13.6074H11.8375V13.1135H11.6375ZM5.41248 6.7188V6.0938H5.21248V6.7188H5.41248ZM14.6875 6.6188H5.31248V6.8188H14.6875V6.6188ZM14.5875 6.0938V6.7188H14.7875V6.0938H14.5875ZM5.31248 6.1938H14.6875V5.9938H5.31248V6.1938ZM5.72498 5.4688V4.8438H5.52498V5.4688H5.72498ZM14.375 5.3688H5.62498V5.5688H14.375V5.3688ZM14.275 4.53192V5.4688H14.475V4.53192H14.275ZM12.0875 1.0938V2.34442H12.2875V1.0938H12.0875ZM9.37498 1.1938H12.1875V0.993799H9.37498V1.1938ZM5.72498 8.28161V7.3438H5.52498V8.28161H5.72498ZM14.275 7.3438V8.28161H14.475V7.3438H14.275ZM5.62498 7.4438H14.375V7.2438H5.62498V7.4438Z" fill="#A9C530" mask="url(#path-2-outside-1)"/>
<path d="M2.5 18.9344C2.25665 18.9344 2.05937 19.1316 2.05937 19.375C2.05937 19.6184 2.25665 19.8156 2.5 19.8156L17.5 19.8156C17.7434 19.8156 17.9406 19.6184 17.9406 19.375C17.9406 19.1316 17.7434 18.9344 17.5 18.9344L2.5 18.9344Z" fill="#A9C530" stroke="#A9C530" stroke-width="0.1" stroke-linecap="round"/>
</g>
</svg>
