<svg width="20" height="20" viewBox="0 0 20 20" fill="none" xmlns="http://www.w3.org/2000/svg">
<g opacity="0.5">
<mask id="path-1-outside-1" maskUnits="userSpaceOnUse" x="-0.5354" y="-0.375" width="21" height="20" fill="black">
<rect fill="white" x="-0.5354" y="-0.375" width="21" height="20"/>
<path d="M19.5227 11.1827C19.535 11.1274 19.5321 11.0697 19.5141 11.0159C19.2962 7.86672 16.6904 5.4163 13.5338 5.3921C12.4802 1.86056 8.76326 -0.148317 5.23172 0.905226C1.70014 1.95877 -0.308691 5.67573 0.744811 9.20727C1.29951 11.0666 2.63605 12.5925 4.40619 13.3872C3.78013 13.7222 3.19853 14.1342 2.67494 14.6138L1.76816 15.4449C1.37992 15.8007 1.35362 16.4038 1.70944 16.7921C1.74921 16.8355 1.79291 16.8751 1.83999 16.9104L2.86215 17.6771C4.33348 18.7759 6.11975 19.3713 7.95608 19.3749H8.86572C10.7019 19.3711 12.4879 18.7757 13.959 17.6771L14.3188 17.4072C17.3094 17.0022 19.539 14.447 19.5351 11.4291C19.5351 11.3458 19.5259 11.2651 19.5227 11.1827ZM17.856 8.25071C18.4313 9.03433 18.7828 9.95959 18.8731 10.9275L18.6035 11.0623L17.043 10.022L17.5499 8.25071H17.856ZM15.7055 6.5042C16.3065 6.77337 16.8534 7.14981 17.3195 7.61504H17.3103C17.1684 7.61516 17.0437 7.70931 17.0048 7.84579L16.4092 9.93015L15.388 10.4012L13.8141 9.352V8.09846L15.5857 6.85891C15.6984 6.77925 15.7468 6.63595 15.7055 6.5042ZM8.52627 8.00693C8.49219 8.03478 8.46426 8.06942 8.44427 8.10863C8.44058 8.12 8.43748 8.13156 8.43506 8.14328L7.58898 7.2972L8.59874 6.28744C8.86731 6.53162 9.15527 6.75355 9.45975 6.95108H9.45912C9.10823 7.26566 8.7952 7.61996 8.52627 8.00693ZM8.108 8.71475C7.74758 9.42793 7.53348 10.206 7.47837 11.0032C7.18434 10.1709 6.72678 9.40596 6.13266 8.7532L7.13893 7.74567L8.108 8.71475ZM8.85841 8.67088L9.11268 8.79802L9.62566 10.0802L8.34733 11.3601L8.10197 11.2374C8.13315 10.3317 8.39342 9.44871 8.85841 8.67088ZM8.26851 12.0298C8.39088 12.0908 8.53863 12.0668 8.63529 11.97L10.0764 10.5293L11.3264 11.0292L11.9192 13.1037C11.9249 13.1198 11.9322 13.1354 11.9408 13.1501C10.833 12.6436 9.629 12.3818 8.4109 12.3826C8.33589 12.3826 8.2612 12.3857 8.18619 12.3876L8.18556 12.3861C8.16013 12.2437 8.13597 12.1 8.12199 11.9563L8.26851 12.0298ZM11.5521 10.4361L10.2445 9.91298L9.65967 8.45094C9.63075 8.37852 9.57624 8.31924 9.50648 8.2844L9.22042 8.14074C9.76412 7.43312 10.4739 6.87047 11.287 6.50261C11.2457 6.63432 11.2941 6.77766 11.4068 6.85732L13.1784 8.09846V9.352L11.5521 10.4361ZM13.4963 9.90345L15.0009 10.9088C15.0034 10.9154 15.0028 10.9224 15.006 10.9291C15.0118 10.9401 15.0184 10.9508 15.0257 10.9609L14.5279 12.7004H12.4646L11.9586 10.9291L13.4963 9.90345ZM14.9434 6.22864V6.23023L15.026 6.47528L13.4963 7.5448L11.9665 6.47369L12.0492 6.22864C12.9949 5.95828 13.9976 5.95828 14.9434 6.22864ZM12.8803 5.42198C11.8347 5.53012 10.8358 5.9112 9.98386 6.52709C9.65077 6.32781 9.33767 6.09694 9.04879 5.83771L11.6267 3.2607C12.1909 3.88576 12.6179 4.62195 12.8803 5.42198ZM11.1735 2.81351L8.59906 5.38797C7.69911 4.39017 7.15883 3.11998 7.06424 1.77959L7.02737 1.2666C8.55575 1.23669 10.0383 1.7898 11.1735 2.81351ZM6.3936 1.31301L6.43016 1.82472C6.53508 3.31795 7.14056 4.73212 8.14869 5.83866L7.13956 6.84778L3.10561 2.81351C4.02133 1.98733 5.16943 1.46338 6.3936 1.31301ZM2.65619 3.26292L6.69014 7.2972L5.68356 8.30378C4.57599 7.29605 3.16091 6.69133 1.66709 6.58748L1.15506 6.55093C1.30563 5.32671 1.82978 4.17861 2.65619 3.26292ZM1.10897 7.18501L1.62195 7.22156C2.9627 7.31524 4.23364 7.85461 5.23256 8.75384L2.65523 11.3315C1.63181 10.1959 1.07893 8.71343 1.10897 7.18501ZM3.10116 11.7853L5.68356 9.20421C6.50258 10.1168 7.02292 11.258 7.17484 12.4747C6.4967 12.5741 5.83318 12.7555 5.19886 13.0151C4.42367 12.7512 3.71005 12.3329 3.10116 11.7853ZM14.6446 16.3625C14.6313 16.3769 14.6167 16.3901 14.601 16.4019L13.5773 17.1689C12.2164 18.1851 10.5642 18.7358 8.86572 18.7393H7.95608C6.25761 18.7358 4.60543 18.1851 3.2445 17.1689L2.22203 16.4019C2.08158 16.2966 2.0531 16.0974 2.15842 15.957C2.17018 15.9413 2.18341 15.9267 2.19787 15.9134L3.10306 15.0823C3.75014 14.4925 4.49141 14.0154 5.29612 13.6705C5.34439 13.6614 5.38988 13.6413 5.42898 13.6117C8.24324 12.4493 11.4761 13.0228 13.7187 15.0823L14.6252 15.9134C14.7546 16.0321 14.7633 16.2331 14.6446 16.3625ZM14.1469 14.6138C13.5961 14.1094 12.9811 13.6798 12.318 13.3361H14.636L15.3352 14.0353L14.7625 15.1795L14.1469 14.6138ZM15.2784 16.5274C15.4068 16.2511 15.3878 15.9286 15.2278 15.6693L15.9175 14.2896H17.7495L17.891 14.5724C17.2434 15.4788 16.3305 16.1619 15.2784 16.5274ZM18.2819 13.9345L18.232 13.8297C18.1779 13.7214 18.067 13.6532 17.9459 13.6539H15.8527L15.1245 12.9257L15.6849 10.9644L16.6463 10.521L18.4052 11.6935C18.4999 11.7566 18.6211 11.7642 18.723 11.7135L18.8893 11.6302C18.8614 12.4341 18.6539 13.2214 18.2819 13.9345Z"/>
</mask>
<path d="M19.5227 11.1827C19.535 11.1274 19.5321 11.0697 19.5141 11.0159C19.2962 7.86672 16.6904 5.4163 13.5338 5.3921C12.4802 1.86056 8.76326 -0.148317 5.23172 0.905226C1.70014 1.95877 -0.308691 5.67573 0.744811 9.20727C1.29951 11.0666 2.63605 12.5925 4.40619 13.3872C3.78013 13.7222 3.19853 14.1342 2.67494 14.6138L1.76816 15.4449C1.37992 15.8007 1.35362 16.4038 1.70944 16.7921C1.74921 16.8355 1.79291 16.8751 1.83999 16.9104L2.86215 17.6771C4.33348 18.7759 6.11975 19.3713 7.95608 19.3749H8.86572C10.7019 19.3711 12.4879 18.7757 13.959 17.6771L14.3188 17.4072C17.3094 17.0022 19.539 14.447 19.5351 11.4291C19.5351 11.3458 19.5259 11.2651 19.5227 11.1827ZM17.856 8.25071C18.4313 9.03433 18.7828 9.95959 18.8731 10.9275L18.6035 11.0623L17.043 10.022L17.5499 8.25071H17.856ZM15.7055 6.5042C16.3065 6.77337 16.8534 7.14981 17.3195 7.61504H17.3103C17.1684 7.61516 17.0437 7.70931 17.0048 7.84579L16.4092 9.93015L15.388 10.4012L13.8141 9.352V8.09846L15.5857 6.85891C15.6984 6.77925 15.7468 6.63595 15.7055 6.5042ZM8.52627 8.00693C8.49219 8.03478 8.46426 8.06942 8.44427 8.10863C8.44058 8.12 8.43748 8.13156 8.43506 8.14328L7.58898 7.2972L8.59874 6.28744C8.86731 6.53162 9.15527 6.75355 9.45975 6.95108H9.45912C9.10823 7.26566 8.7952 7.61996 8.52627 8.00693ZM8.108 8.71475C7.74758 9.42793 7.53348 10.206 7.47837 11.0032C7.18434 10.1709 6.72678 9.40596 6.13266 8.7532L7.13893 7.74567L8.108 8.71475ZM8.85841 8.67088L9.11268 8.79802L9.62566 10.0802L8.34733 11.3601L8.10197 11.2374C8.13315 10.3317 8.39342 9.44871 8.85841 8.67088ZM8.26851 12.0298C8.39088 12.0908 8.53863 12.0668 8.63529 11.97L10.0764 10.5293L11.3264 11.0292L11.9192 13.1037C11.9249 13.1198 11.9322 13.1354 11.9408 13.1501C10.833 12.6436 9.629 12.3818 8.4109 12.3826C8.33589 12.3826 8.2612 12.3857 8.18619 12.3876L8.18556 12.3861C8.16013 12.2437 8.13597 12.1 8.12199 11.9563L8.26851 12.0298ZM11.5521 10.4361L10.2445 9.91298L9.65967 8.45094C9.63075 8.37852 9.57624 8.31924 9.50648 8.2844L9.22042 8.14074C9.76412 7.43312 10.4739 6.87047 11.287 6.50261C11.2457 6.63432 11.2941 6.77766 11.4068 6.85732L13.1784 8.09846V9.352L11.5521 10.4361ZM13.4963 9.90345L15.0009 10.9088C15.0034 10.9154 15.0028 10.9224 15.006 10.9291C15.0118 10.9401 15.0184 10.9508 15.0257 10.9609L14.5279 12.7004H12.4646L11.9586 10.9291L13.4963 9.90345ZM14.9434 6.22864V6.23023L15.026 6.47528L13.4963 7.5448L11.9665 6.47369L12.0492 6.22864C12.9949 5.95828 13.9976 5.95828 14.9434 6.22864ZM12.8803 5.42198C11.8347 5.53012 10.8358 5.9112 9.98386 6.52709C9.65077 6.32781 9.33767 6.09694 9.04879 5.83771L11.6267 3.2607C12.1909 3.88576 12.6179 4.62195 12.8803 5.42198ZM11.1735 2.81351L8.59906 5.38797C7.69911 4.39017 7.15883 3.11998 7.06424 1.77959L7.02737 1.2666C8.55575 1.23669 10.0383 1.7898 11.1735 2.81351ZM6.3936 1.31301L6.43016 1.82472C6.53508 3.31795 7.14056 4.73212 8.14869 5.83866L7.13956 6.84778L3.10561 2.81351C4.02133 1.98733 5.16943 1.46338 6.3936 1.31301ZM2.65619 3.26292L6.69014 7.2972L5.68356 8.30378C4.57599 7.29605 3.16091 6.69133 1.66709 6.58748L1.15506 6.55093C1.30563 5.32671 1.82978 4.17861 2.65619 3.26292ZM1.10897 7.18501L1.62195 7.22156C2.9627 7.31524 4.23364 7.85461 5.23256 8.75384L2.65523 11.3315C1.63181 10.1959 1.07893 8.71343 1.10897 7.18501ZM3.10116 11.7853L5.68356 9.20421C6.50258 10.1168 7.02292 11.258 7.17484 12.4747C6.4967 12.5741 5.83318 12.7555 5.19886 13.0151C4.42367 12.7512 3.71005 12.3329 3.10116 11.7853ZM14.6446 16.3625C14.6313 16.3769 14.6167 16.3901 14.601 16.4019L13.5773 17.1689C12.2164 18.1851 10.5642 18.7358 8.86572 18.7393H7.95608C6.25761 18.7358 4.60543 18.1851 3.2445 17.1689L2.22203 16.4019C2.08158 16.2966 2.0531 16.0974 2.15842 15.957C2.17018 15.9413 2.18341 15.9267 2.19787 15.9134L3.10306 15.0823C3.75014 14.4925 4.49141 14.0154 5.29612 13.6705C5.34439 13.6614 5.38988 13.6413 5.42898 13.6117C8.24324 12.4493 11.4761 13.0228 13.7187 15.0823L14.6252 15.9134C14.7546 16.0321 14.7633 16.2331 14.6446 16.3625ZM14.1469 14.6138C13.5961 14.1094 12.9811 13.6798 12.318 13.3361H14.636L15.3352 14.0353L14.7625 15.1795L14.1469 14.6138ZM15.2784 16.5274C15.4068 16.2511 15.3878 15.9286 15.2278 15.6693L15.9175 14.2896H17.7495L17.891 14.5724C17.2434 15.4788 16.3305 16.1619 15.2784 16.5274ZM18.2819 13.9345L18.232 13.8297C18.1779 13.7214 18.067 13.6532 17.9459 13.6539H15.8527L15.1245 12.9257L15.6849 10.9644L16.6463 10.521L18.4052 11.6935C18.4999 11.7566 18.6211 11.7642 18.723 11.7135L18.8893 11.6302C18.8614 12.4341 18.6539 13.2214 18.2819 13.9345Z" fill="#A9C530"/>
<path d="M19.5227 11.1827C19.535 11.1274 19.5321 11.0697 19.5141 11.0159C19.2962 7.86672 16.6904 5.4163 13.5338 5.3921C12.4802 1.86056 8.76326 -0.148317 5.23172 0.905226C1.70014 1.95877 -0.308691 5.67573 0.744811 9.20727C1.29951 11.0666 2.63605 12.5925 4.40619 13.3872C3.78013 13.7222 3.19853 14.1342 2.67494 14.6138L1.76816 15.4449C1.37992 15.8007 1.35362 16.4038 1.70944 16.7921C1.74921 16.8355 1.79291 16.8751 1.83999 16.9104L2.86215 17.6771C4.33348 18.7759 6.11975 19.3713 7.95608 19.3749H8.86572C10.7019 19.3711 12.4879 18.7757 13.959 17.6771L14.3188 17.4072C17.3094 17.0022 19.539 14.447 19.5351 11.4291C19.5351 11.3458 19.5259 11.2651 19.5227 11.1827ZM17.856 8.25071C18.4313 9.03433 18.7828 9.95959 18.8731 10.9275L18.6035 11.0623L17.043 10.022L17.5499 8.25071H17.856ZM15.7055 6.5042C16.3065 6.77337 16.8534 7.14981 17.3195 7.61504H17.3103C17.1684 7.61516 17.0437 7.70931 17.0048 7.84579L16.4092 9.93015L15.388 10.4012L13.8141 9.352V8.09846L15.5857 6.85891C15.6984 6.77925 15.7468 6.63595 15.7055 6.5042ZM8.52627 8.00693C8.49219 8.03478 8.46426 8.06942 8.44427 8.10863C8.44058 8.12 8.43748 8.13156 8.43506 8.14328L7.58898 7.2972L8.59874 6.28744C8.86731 6.53162 9.15527 6.75355 9.45975 6.95108H9.45912C9.10823 7.26566 8.7952 7.61996 8.52627 8.00693ZM8.108 8.71475C7.74758 9.42793 7.53348 10.206 7.47837 11.0032C7.18434 10.1709 6.72678 9.40596 6.13266 8.7532L7.13893 7.74567L8.108 8.71475ZM8.85841 8.67088L9.11268 8.79802L9.62566 10.0802L8.34733 11.3601L8.10197 11.2374C8.13315 10.3317 8.39342 9.44871 8.85841 8.67088ZM8.26851 12.0298C8.39088 12.0908 8.53863 12.0668 8.63529 11.97L10.0764 10.5293L11.3264 11.0292L11.9192 13.1037C11.9249 13.1198 11.9322 13.1354 11.9408 13.1501C10.833 12.6436 9.629 12.3818 8.4109 12.3826C8.33589 12.3826 8.2612 12.3857 8.18619 12.3876L8.18556 12.3861C8.16013 12.2437 8.13597 12.1 8.12199 11.9563L8.26851 12.0298ZM11.5521 10.4361L10.2445 9.91298L9.65967 8.45094C9.63075 8.37852 9.57624 8.31924 9.50648 8.2844L9.22042 8.14074C9.76412 7.43312 10.4739 6.87047 11.287 6.50261C11.2457 6.63432 11.2941 6.77766 11.4068 6.85732L13.1784 8.09846V9.352L11.5521 10.4361ZM13.4963 9.90345L15.0009 10.9088C15.0034 10.9154 15.0028 10.9224 15.006 10.9291C15.0118 10.9401 15.0184 10.9508 15.0257 10.9609L14.5279 12.7004H12.4646L11.9586 10.9291L13.4963 9.90345ZM14.9434 6.22864V6.23023L15.026 6.47528L13.4963 7.5448L11.9665 6.47369L12.0492 6.22864C12.9949 5.95828 13.9976 5.95828 14.9434 6.22864ZM12.8803 5.42198C11.8347 5.53012 10.8358 5.9112 9.98386 6.52709C9.65077 6.32781 9.33767 6.09694 9.04879 5.83771L11.6267 3.2607C12.1909 3.88576 12.6179 4.62195 12.8803 5.42198ZM11.1735 2.81351L8.59906 5.38797C7.69911 4.39017 7.15883 3.11998 7.06424 1.77959L7.02737 1.2666C8.55575 1.23669 10.0383 1.7898 11.1735 2.81351ZM6.3936 1.31301L6.43016 1.82472C6.53508 3.31795 7.14056 4.73212 8.14869 5.83866L7.13956 6.84778L3.10561 2.81351C4.02133 1.98733 5.16943 1.46338 6.3936 1.31301ZM2.65619 3.26292L6.69014 7.2972L5.68356 8.30378C4.57599 7.29605 3.16091 6.69133 1.66709 6.58748L1.15506 6.55093C1.30563 5.32671 1.82978 4.17861 2.65619 3.26292ZM1.10897 7.18501L1.62195 7.22156C2.9627 7.31524 4.23364 7.85461 5.23256 8.75384L2.65523 11.3315C1.63181 10.1959 1.07893 8.71343 1.10897 7.18501ZM3.10116 11.7853L5.68356 9.20421C6.50258 10.1168 7.02292 11.258 7.17484 12.4747C6.4967 12.5741 5.83318 12.7555 5.19886 13.0151C4.42367 12.7512 3.71005 12.3329 3.10116 11.7853ZM14.6446 16.3625C14.6313 16.3769 14.6167 16.3901 14.601 16.4019L13.5773 17.1689C12.2164 18.1851 10.5642 18.7358 8.86572 18.7393H7.95608C6.25761 18.7358 4.60543 18.1851 3.2445 17.1689L2.22203 16.4019C2.08158 16.2966 2.0531 16.0974 2.15842 15.957C2.17018 15.9413 2.18341 15.9267 2.19787 15.9134L3.10306 15.0823C3.75014 14.4925 4.49141 14.0154 5.29612 13.6705C5.34439 13.6614 5.38988 13.6413 5.42898 13.6117C8.24324 12.4493 11.4761 13.0228 13.7187 15.0823L14.6252 15.9134C14.7546 16.0321 14.7633 16.2331 14.6446 16.3625ZM14.1469 14.6138C13.5961 14.1094 12.9811 13.6798 12.318 13.3361H14.636L15.3352 14.0353L14.7625 15.1795L14.1469 14.6138ZM15.2784 16.5274C15.4068 16.2511 15.3878 15.9286 15.2278 15.6693L15.9175 14.2896H17.7495L17.891 14.5724C17.2434 15.4788 16.3305 16.1619 15.2784 16.5274ZM18.2819 13.9345L18.232 13.8297C18.1779 13.7214 18.067 13.6532 17.9459 13.6539H15.8527L15.1245 12.9257L15.6849 10.9644L16.6463 10.521L18.4052 11.6935C18.4999 11.7566 18.6211 11.7642 18.723 11.7135L18.8893 11.6302C18.8614 12.4341 18.6539 13.2214 18.2819 13.9345Z" stroke="#A9C530" stroke-width="0.4" mask="url(#path-1-outside-1)"/>
<path d="M11.2714 15.561H10.9536V15.2431C10.9536 15.0676 10.8113 14.9253 10.6358 14.9253C10.4603 14.9253 10.3179 15.0676 10.3179 15.2431V15.561H9.68228V15.2431C9.68228 15.0676 9.53997 14.9253 9.36444 14.9253C9.18892 14.9253 9.04661 15.0676 9.04661 15.2431V15.561H8.41094V15.2431C8.41094 15.0676 8.26863 14.9253 8.0931 14.9253C7.91758 14.9253 7.77527 15.0676 7.77527 15.2431V15.561H7.1396V15.2431C7.1396 15.0676 6.99729 14.9253 6.82177 14.9253C6.64624 14.9253 6.50393 15.0676 6.50393 15.2431V15.561H5.86826V15.2431C5.86826 15.0676 5.72595 14.9253 5.55043 14.9253C5.3749 14.9253 5.23259 15.0676 5.23259 15.2431V15.561H4.91476C4.73923 15.561 4.59692 15.7033 4.59692 15.8788C4.59692 16.0543 4.73923 16.1966 4.91476 16.1966H5.23259V16.5145C5.23259 16.69 5.3749 16.8323 5.55043 16.8323C5.72595 16.8323 5.86826 16.69 5.86826 16.5145V16.1966H6.50393V16.5145C6.50393 16.69 6.64624 16.8323 6.82177 16.8323C6.99729 16.8323 7.1396 16.69 7.1396 16.5145V16.1966H7.77527V16.5145C7.77527 16.69 7.91758 16.8323 8.0931 16.8323C8.26863 16.8323 8.41094 16.69 8.41094 16.5145V16.1966H9.04661V16.5145C9.04661 16.69 9.18892 16.8323 9.36444 16.8323C9.53997 16.8323 9.68228 16.69 9.68228 16.5145V16.1966H10.3179V16.5145C10.3179 16.69 10.4603 16.8323 10.6358 16.8323C10.8113 16.8323 10.9536 16.69 10.9536 16.5145V16.1966H11.2714C11.447 16.1966 11.5893 16.0543 11.5893 15.8788C11.5893 15.7033 11.447 15.561 11.2714 15.561Z" fill="#A9C530"/>
</g>
</svg>
