<svg width="20" height="20" viewBox="0 0 20 20" fill="none" xmlns="http://www.w3.org/2000/svg">
<g opacity="0.5">
<path d="M6.59984 1.01675H3.78317V2.31675H6.59984V1.01675ZM9.3665 3.80091C9.3665 2.27292 8.14061 1.01675 6.59984 1.01675V2.31675C7.40906 2.31675 8.0665 2.97724 8.0665 3.80091H9.3665ZM9.3665 6.64175V3.80091H8.0665V6.64175H9.3665ZM6.59984 9.42508C8.1388 9.42508 9.3665 8.17907 9.3665 6.64175H8.0665C8.0665 7.47109 7.41087 8.12508 6.59984 8.12508V9.42508ZM3.78317 9.42508H6.59984V8.12508H3.78317V9.42508ZM1.0165 6.64175C1.0165 8.18074 2.2542 9.42508 3.78317 9.42508V8.12508C2.97881 8.12508 2.3165 7.46942 2.3165 6.64175H1.0165ZM1.0165 3.80091V6.64175H2.3165V3.80091H1.0165ZM3.78317 1.01675C2.25239 1.01675 1.0165 2.27125 1.0165 3.80091H2.3165C2.3165 2.97891 2.98062 2.31675 3.78317 2.31675V1.01675ZM6.59984 10.5748H3.78317V11.8748H6.59984V10.5748ZM9.3665 13.359C9.3665 11.822 8.13913 10.5748 6.59984 10.5748V11.8748C7.41054 11.8748 8.0665 12.5293 8.0665 13.359H9.3665ZM9.3665 16.1998V13.359H8.0665V16.1998H9.3665ZM6.59984 18.9832C8.14045 18.9832 9.3665 17.7272 9.3665 16.1998H8.0665C8.0665 17.0225 7.40923 17.6832 6.59984 17.6832V18.9832ZM3.78317 18.9832H6.59984V17.6832H3.78317V18.9832ZM1.0165 16.1998C1.0165 17.7288 2.25255 18.9832 3.78317 18.9832V17.6832C2.98045 17.6832 2.3165 17.0208 2.3165 16.1998H1.0165ZM1.0165 13.359V16.1998H2.3165V13.359H1.0165ZM3.78317 10.5748C2.25387 10.5748 1.0165 11.8203 1.0165 13.359H2.3165C2.3165 12.531 2.97914 11.8748 3.78317 11.8748V10.5748ZM13.3999 2.31675H16.2166V1.01675H13.3999V2.31675ZM11.9332 3.80091C11.9332 2.97724 12.5907 2.31675 13.3999 2.31675V1.01675C11.8591 1.01675 10.6332 2.27292 10.6332 3.80091H11.9332ZM11.9332 6.64175V3.80091H10.6332V6.64175H11.9332ZM13.3999 8.12508C12.5889 8.12508 11.9332 7.47109 11.9332 6.64175H10.6332C10.6332 8.17907 11.8609 9.42508 13.3999 9.42508V8.12508ZM16.2166 8.12508H13.3999V9.42508H16.2166V8.12508ZM17.6832 6.64175C17.6832 7.46942 17.0209 8.12508 16.2166 8.12508V9.42508C17.7455 9.42508 18.9832 8.18074 18.9832 6.64175H17.6832ZM17.6832 3.80091V6.64175H18.9832V3.80091H17.6832ZM16.2166 2.31675C17.0191 2.31675 17.6832 2.97891 17.6832 3.80091H18.9832C18.9832 2.27125 17.7474 1.01675 16.2166 1.01675V2.31675ZM16.2166 10.5748H13.3999V11.8748H16.2166V10.5748ZM18.9832 13.359C18.9832 11.8203 17.7459 10.5748 16.2166 10.5748V11.8748C17.0206 11.8748 17.6832 12.531 17.6832 13.359H18.9832ZM18.9832 16.1998V13.359H17.6832V16.1998H18.9832ZM16.2166 18.9832C17.7472 18.9832 18.9832 17.7288 18.9832 16.1998H17.6832C17.6832 17.0208 17.0193 17.6832 16.2166 17.6832V18.9832ZM13.3999 18.9832H16.2166V17.6832H13.3999V18.9832ZM10.6332 16.1998C10.6332 17.7272 11.8593 18.9832 13.3999 18.9832V17.6832C12.5905 17.6832 11.9332 17.0225 11.9332 16.1998H10.6332ZM10.6332 13.359V16.1998H11.9332V13.359H10.6332ZM13.3999 10.5748C11.8606 10.5748 10.6332 11.822 10.6332 13.359H11.9332C11.9332 12.5293 12.5892 11.8748 13.3999 11.8748V10.5748Z" fill="#A9C530"/>
</g>
</svg>
