<svg width="20" height="20" viewBox="0 0 20 20" fill="none" xmlns="http://www.w3.org/2000/svg">
<g opacity="0.5">
<path d="M2.85703 20H17.1427C17.4285 20 17.6189 19.8095 17.6189 19.5238V2.38095C17.6189 2.09523 17.4284 1.90478 17.1427 1.90478H12.8571V0.476175C12.8571 0.190493 12.6666 0 12.3809 0H7.61897C7.33325 0 7.1428 0.190493 7.1428 0.476175V1.90474H2.85703C2.57131 1.90474 2.38086 2.09523 2.38086 2.38091V19.5238C2.38086 19.8095 2.57135 20 2.85703 20ZM7.61897 4.7619H12.3809H14.7618V17.1429H5.23802V4.7619H7.61897ZM8.09515 0.952388H11.9047V3.80951H8.09515V0.952388ZM3.33325 2.85713H7.14276V3.80951H4.76181C4.47609 3.80951 4.28564 4.00001 4.28564 4.28569V17.619C4.28564 17.9048 4.47613 18.0952 4.76181 18.0952H15.238C15.5237 18.0952 15.7142 17.9047 15.7142 17.619V4.28569C15.7142 3.99997 15.5237 3.80951 15.238 3.80951H12.8571V2.85713H16.6666V19.0476H3.33325V2.85713Z" fill="#A9C530"/>
<path d="M10.9522 1.90479H9.04746C8.76174 1.90479 8.57129 2.09528 8.57129 2.38096C8.57129 2.66664 8.76178 2.85714 9.04746 2.85714H10.9522C11.238 2.85714 11.4284 2.66664 11.4284 2.38096C11.4284 2.09528 11.238 1.90479 10.9522 1.90479Z" fill="#A9C530"/>
<path d="M6.28569 8.38106C6.38092 8.47628 6.47618 8.47628 6.66664 8.47628C6.85713 8.47628 6.95236 8.47628 7.04759 8.38106L7.61903 7.80962L8.19047 8.38106C8.2857 8.47628 8.38096 8.47628 8.57142 8.47628C8.76191 8.47628 8.85714 8.47628 8.95236 8.38106C9.14286 8.19056 9.14286 7.90488 8.95236 7.71439L8.2857 7.04772L8.85714 6.47628C9.04763 6.28579 9.04763 6.00011 8.85714 5.80962C8.66664 5.61912 8.38096 5.61912 8.19047 5.80962L7.61903 6.38106L6.95236 5.80962C6.76187 5.61912 6.47618 5.61912 6.28569 5.80962C6.0952 6.00011 6.0952 6.28579 6.28569 6.47628L6.85713 7.04772L6.28569 7.61916C6.0952 7.90484 6.0952 8.19056 6.28569 8.38106Z" fill="#A9C530"/>
<path d="M13.6188 12.4761C13.4283 12.2856 13.1427 12.2856 12.9522 12.4761L12.3807 13.0476L11.8093 12.4761C11.6188 12.2856 11.3331 12.2856 11.1426 12.4761C10.9521 12.6666 10.9521 12.9523 11.1426 13.1428L11.7141 13.7142L11.1426 14.2857C10.9521 14.4762 10.9521 14.7618 11.1426 14.9523C11.2379 15.0476 11.3331 15.0476 11.5236 15.0476C11.714 15.0476 11.8093 15.0476 11.9045 14.9523L12.476 14.3809L13.0474 14.9523C13.1426 15.0476 13.2379 15.0476 13.4283 15.0476C13.6188 15.0476 13.7141 15.0476 13.8093 14.9523C13.9998 14.7618 13.9998 14.4762 13.8093 14.2857L13.2379 13.7142L13.8093 13.1428C13.8093 12.9523 13.8093 12.6666 13.6188 12.4761Z" fill="#A9C530"/>
<path d="M6.28577 15.0475C6.381 15.1428 6.47627 15.1428 6.66672 15.1428C6.85721 15.1428 6.95244 15.1428 7.04767 15.0475L7.61911 14.4761L8.19055 15.0475C8.28578 15.1428 8.38105 15.1428 8.5715 15.1428C8.76199 15.1428 8.85722 15.1428 8.95245 15.0475C9.14294 14.8571 9.14294 14.5714 8.95245 14.3809L8.38101 13.8094L8.95245 13.238C9.14294 13.0475 9.14294 12.7618 8.95245 12.5713C8.76195 12.3808 8.47627 12.3808 8.28578 12.5713L7.71434 13.1428L7.1429 12.5713C6.9524 12.3808 6.66672 12.3808 6.47623 12.5713C6.28574 12.7618 6.28574 13.0475 6.47623 13.238L7.04767 13.8094L6.47623 14.3809C6.09528 14.5713 6.09528 14.8571 6.28577 15.0475Z" fill="#A9C530"/>
<path d="M11.6191 7.33345L11.9048 7.04773C11.7143 10.0001 8.85721 10.2858 7.14292 10.2858C6.8572 10.2858 6.66675 10.4763 6.66675 10.762C6.66675 11.0477 6.85724 11.2382 7.14292 11.2382C7.33342 11.2382 7.42864 11.2382 7.6191 11.2382C10.7619 11.2382 12.7619 9.71436 12.9524 7.14296L13.1429 7.33345C13.2382 7.42868 13.3334 7.52394 13.5239 7.52394C13.6191 7.52394 13.7144 7.52394 13.8096 7.42872C14.0001 7.23822 14.0001 6.95254 13.8096 6.76205L12.762 5.6192C12.6668 5.52398 12.5715 5.42871 12.381 5.42871C12.2858 5.42871 12.0953 5.52394 12.0001 5.6192L10.9525 6.66682C10.762 6.85731 10.762 7.143 10.9525 7.33349C11.1429 7.52391 11.5239 7.5239 11.6191 7.33345Z" fill="#A9C530"/>
</g>
</svg>
