<svg width="20" height="20" viewBox="0 0 20 20" fill="none" xmlns="http://www.w3.org/2000/svg">
<g opacity="0.5">
<path d="M10.0001 0C5.65251 0 2.11548 3.53699 2.11548 7.88461C2.11548 10.5941 3.48938 12.9886 5.577 14.4085V19.423C5.577 19.6188 5.67626 19.8013 5.84067 19.9075C6.00501 20.0138 6.21212 20.0294 6.39067 19.9491L10.0001 18.325L13.6095 19.9492C13.6851 19.9832 13.7658 20 13.8462 20C13.9557 20 14.0647 19.9688 14.1595 19.9075C14.3239 19.8013 14.4232 19.6188 14.4232 19.4231V14.4085C16.5108 12.9886 17.8847 10.5941 17.8847 7.88465C17.8847 3.53699 14.3477 0 10.0001 0ZM13.2693 18.5309L10.2368 17.1663C10.1615 17.1323 10.0808 17.1154 10.0001 17.1154C9.91938 17.1154 9.83864 17.1323 9.76337 17.1662L6.73087 18.5308V15.0607C7.02083 15.1929 7.31845 15.3065 7.62169 15.4023C7.63888 15.4078 7.65602 15.4134 7.67329 15.4187C7.712 15.4306 7.75083 15.4421 7.7897 15.4534C7.81849 15.4618 7.84727 15.4702 7.87614 15.4783C7.90751 15.487 7.93899 15.4955 7.97048 15.5039C8.0072 15.5137 8.04399 15.5232 8.08091 15.5325C8.107 15.5391 8.13313 15.5455 8.15931 15.5517C8.20177 15.5619 8.24435 15.5717 8.28708 15.5812C8.30923 15.5861 8.33142 15.591 8.3536 15.5957C8.4004 15.6057 8.44735 15.6152 8.4945 15.6244C8.51368 15.6281 8.53286 15.6319 8.55208 15.6355C8.602 15.6448 8.65212 15.6535 8.70235 15.6618C8.71958 15.6647 8.73681 15.6677 8.75407 15.6704C8.80591 15.6787 8.85798 15.6863 8.9102 15.6936C8.92638 15.6958 8.94251 15.6982 8.95868 15.7004C9.01153 15.7073 9.06462 15.7136 9.11774 15.7196C9.1336 15.7213 9.14938 15.7233 9.16524 15.725C9.21825 15.7307 9.27145 15.7355 9.32478 15.74C9.34095 15.7414 9.35704 15.743 9.37325 15.7443C9.42579 15.7484 9.47856 15.7518 9.53141 15.7549C9.54837 15.7559 9.56524 15.7572 9.58227 15.7581C9.63567 15.7609 9.68927 15.7629 9.74294 15.7646C9.75911 15.7651 9.77517 15.766 9.79134 15.7664C9.86071 15.7682 9.93032 15.7692 10.0002 15.7692C10.07 15.7692 10.1396 15.7682 10.209 15.7664C10.2251 15.766 10.2412 15.7651 10.2574 15.7646C10.311 15.7629 10.3646 15.7609 10.418 15.7581C10.435 15.7572 10.4519 15.7559 10.4689 15.7549C10.5217 15.7518 10.5745 15.7485 10.627 15.7443C10.6433 15.743 10.6593 15.7414 10.6755 15.74C10.7288 15.7355 10.782 15.7306 10.835 15.725C10.8509 15.7234 10.8667 15.7214 10.8825 15.7196C10.9357 15.7136 10.9888 15.7073 11.0416 15.7004C11.0578 15.6982 11.0739 15.6958 11.0901 15.6936C11.1423 15.6863 11.1943 15.6787 11.2462 15.6704C11.2635 15.6677 11.2807 15.6647 11.2979 15.6618C11.3482 15.6535 11.3983 15.6448 11.4482 15.6355C11.4674 15.6319 11.4866 15.6281 11.5058 15.6244C11.5529 15.6152 11.5999 15.6057 11.6467 15.5957C11.6689 15.591 11.6911 15.5861 11.7132 15.5812C11.7559 15.5717 11.7985 15.5619 11.841 15.5517C11.8671 15.5454 11.8933 15.539 11.9194 15.5325C11.9563 15.5233 11.9931 15.5137 12.0298 15.5039C12.0613 15.4955 12.0928 15.4871 12.1242 15.4783C12.153 15.4702 12.1818 15.4618 12.2106 15.4534C12.2495 15.442 12.2883 15.4306 12.327 15.4187C12.3443 15.4133 12.3614 15.4077 12.3786 15.4023C12.6818 15.3065 12.9795 15.1929 13.2694 15.0607V18.5309H13.2693ZM12.1965 14.247C12.1735 14.255 12.1505 14.2629 12.1274 14.2706C12.0924 14.2823 12.0571 14.2939 12.0218 14.305C11.9806 14.3179 11.9394 14.3304 11.898 14.3425C11.8688 14.3511 11.8396 14.3596 11.8103 14.3679C11.7556 14.3831 11.7006 14.3977 11.6455 14.4116C11.625 14.4168 11.6043 14.4217 11.5838 14.4267C11.5298 14.4398 11.4756 14.4522 11.4213 14.4639C11.4077 14.4669 11.3941 14.47 11.3804 14.4728C11.3104 14.4875 11.24 14.5011 11.1695 14.5135C11.1623 14.5147 11.155 14.5158 11.1478 14.5171C11.0842 14.5281 11.0204 14.538 10.9565 14.5471C10.9421 14.5492 10.9277 14.5512 10.9132 14.5532C10.845 14.5625 10.7768 14.571 10.7083 14.5782C10.7057 14.5785 10.7031 14.5788 10.7005 14.5791C10.6288 14.5866 10.5568 14.5927 10.4847 14.5978C10.4691 14.5989 10.4534 14.5998 10.4377 14.6008C10.3817 14.6045 10.3256 14.6073 10.2694 14.6096C10.2503 14.6104 10.2312 14.6111 10.2121 14.6118C10.1415 14.6139 10.0709 14.6154 10.0001 14.6154C9.92931 14.6154 9.85864 14.6139 9.78806 14.6117C9.76892 14.6111 9.74981 14.6103 9.73075 14.6095C9.67454 14.6073 9.61849 14.6044 9.56243 14.6007C9.54677 14.5997 9.5311 14.5989 9.51544 14.5977C9.44337 14.5926 9.37142 14.5864 9.29966 14.579C9.29708 14.5787 9.2945 14.5784 9.29192 14.5781C9.22341 14.5709 9.15513 14.5624 9.08696 14.5532C9.07255 14.5512 9.05813 14.5492 9.04368 14.5471C8.97974 14.5379 8.91595 14.528 8.85235 14.517C8.84516 14.5158 8.83794 14.5147 8.83071 14.5134C8.76013 14.501 8.68977 14.4873 8.61974 14.4727C8.6061 14.4699 8.59251 14.4667 8.57884 14.4638C8.52454 14.4521 8.47036 14.4397 8.41641 14.4266C8.39579 14.4216 8.37516 14.4167 8.35466 14.4115C8.29954 14.3977 8.24462 14.383 8.18989 14.3678C8.16056 14.3596 8.13134 14.351 8.10216 14.3424C8.06083 14.3303 8.01954 14.3179 7.97837 14.3049C7.94302 14.2937 7.90782 14.2823 7.8727 14.2705C7.84958 14.2629 7.82657 14.2549 7.8036 14.247C5.16751 13.3344 3.26931 10.8271 3.26931 7.88461C3.26931 4.17328 6.28872 1.15383 10.0001 1.15383C13.7115 1.15383 16.7309 4.17324 16.7309 7.88461C16.7309 10.8271 14.8326 13.3344 12.1965 14.247Z" fill="#A9C530"/>
<path d="M13.4227 7.88514L14.5063 5.84842C14.5999 5.67275 14.5961 5.46131 14.4967 5.289C14.3972 5.1167 14.2159 5.00775 14.017 5.00088L11.7113 4.921L10.4893 2.9642C10.3839 2.79545 10.199 2.69287 9.99998 2.69287C9.80099 2.69287 9.61607 2.79545 9.51064 2.9642L8.28865 4.921L5.98298 5.00088C5.78412 5.00775 5.60283 5.1167 5.50333 5.289C5.40384 5.46131 5.40013 5.67275 5.49365 5.84842L6.57728 7.88514L5.49365 9.92185C5.40013 10.0975 5.40384 10.309 5.50333 10.4813C5.60283 10.6536 5.78412 10.7625 5.98298 10.7694L8.28865 10.8493L9.51064 12.8061C9.61603 12.9748 9.80099 13.0774 9.99998 13.0774C10.199 13.0774 10.3839 12.9748 10.4893 12.8061L11.7113 10.8493L14.017 10.7694C14.2158 10.7625 14.3971 10.6536 14.4966 10.4813C14.5961 10.309 14.5998 10.0975 14.5063 9.92185L13.4227 7.88514ZM11.3646 9.70674C11.1729 9.71338 10.9969 9.81498 10.8953 9.97775L9.99998 11.4114L9.1047 9.97779C9.00306 9.81502 8.82712 9.71346 8.63537 9.70678L6.94623 9.64822L7.74009 8.15611C7.83025 7.9867 7.83025 7.78357 7.74009 7.61416L6.94623 6.12205L8.63537 6.0635C8.82712 6.05686 9.0031 5.95525 9.1047 5.79248L9.99998 4.35893L10.8953 5.79252C10.9969 5.95529 11.1728 6.05686 11.3646 6.06353L13.0537 6.12209L12.2599 7.6142C12.1697 7.78361 12.1697 7.98678 12.2599 8.15615L13.0538 9.64826L11.3646 9.70674Z" fill="#A9C530"/>
</g>
</svg>
